<svg xmlns="http://www.w3.org/2000/svg" width="80" height="48">
  <path fill="#0071BC"
        d="M5.294 38.132c-4.747 0-6.646-2.968-4.272-5.937.237-4.151.949-28.125 11.037-29.193C14.313.629 13.008.035 33.777.035s19.7 1.186 21.48 3.56c3.086 1.068 5.578 1.306 9.257 17.09 6.053 0 12.579-.831 14.006 12.461 2.254 1.188 2.254 5.578-2.256 5.695-5.816.121-70.97-.709-70.97-.709z"/>
  <path fill="#d5f6ff"
        d="M62.734 21.672a2.693 2.693 0 01-2.691 2.692H42.521a2.691 2.691 0 01-2.691-2.692V7.474a2.692 2.692 0 012.691-2.692h10.521c1.485 0 3.958-.052 5.776 5.104 1.424 4.034 3.916 11.786 3.916 11.786z"/>
  <path fill="#ffffff"
        d="M4.227 26.207c-.852 0-1.543.612-1.543 1.367v2.842c0 .757.69 1.37 1.543 1.37.85 0 1.543-.613 1.543-1.37v-2.842c0-.755-.691-1.367-1.543-1.367zM74.9 28.119c-.82 0-1.482.497-1.482 1.106v3.884c0 .61.662 1.104 1.482 1.104.818 0 1.483-.495 1.483-1.104v-3.884c0-.61-.665-1.106-1.483-1.106zM14.742 3.477c-.747.005-1.537.07-2.293.302a6.178 6.178 0 00-2.08 1.106c-1.227.987-2.064 2.306-2.717 3.648A21.455 21.455 0 006.6 12.852c.567-1.354 1.147-2.697 1.906-3.907.617-1.268 1.397-2.469 2.457-3.318 1.054-.87 2.379-1.221 3.79-1.201 1.438 0 2.906.043 4.36.07l8.752.182 4.38.076c1.46-.14 2.922-.248 4.38-.447-1.458-.2-2.914-.335-4.37-.512l-4.372-.066-8.748-.182c-1.462-.03-2.912-.07-4.393-.07zM68.328 22.37a12.253 12.253 0 00-2.822.262c1.855.372 3.7.506 5.348 1.123a6.838 6.838 0 012.232 1.297c.656.577 1.188 1.31 1.674 2.127a5.054 5.054 0 00-1.147-2.635c-.635-.773-1.514-1.327-2.435-1.672a8.973 8.973 0 00-2.85-.502z"/>
  <path fill="#000000"
        d="M23.452 26.923c-5.012 0-9.086-4.076-9.086-9.086 0-5.01 4.076-9.086 9.086-9.086 5.01 0 9.086 4.076 9.086 9.086.002 5.012-4.076 9.086-9.086 9.086zm0-16.58c-4.132 0-7.495 3.361-7.495 7.494 0 4.133 3.361 7.495 7.495 7.495 4.133 0 7.494-3.362 7.494-7.495s-3.361-7.494-7.494-7.494z"/>
  <path fill="#ffffff"
        d="M17.518 16.26v1.695h1.699V16.26h-1.7zm3.39 0v1.695h1.697V16.26h-1.697zm3.395 0v1.695h1.693V16.26h-1.693zm3.39 0v1.695h1.698V16.26h-1.698zm-11.87 1.697v1.695h1.695v1.696h1.699v-1.696h1.691v1.696h1.697V19.65h-1.697v-1.693h-1.691v1.693h-1.7v-1.693h-1.695zm10.173 0v1.693h-1.693v1.698h1.693v-1.696h1.697v1.696h1.698v-1.696h1.691v-1.695h-1.691v1.693h-1.698v-1.693h-1.697zM22.605 17.957h1.696v1.695h-1.696z"/>
  <path fill="#000000"
        d="M15.822 16.26v1.695h1.696V16.26h-1.696zm3.395 0v1.695h1.691V16.26h-1.691zm6.78 0v1.695h1.696V16.26h-1.697zm3.394 0v1.695h1.691V16.26h-1.691zm-11.873 1.697v1.693h-1.696v1.698h1.696v-1.696h1.699v1.696h1.691v-1.696h1.697v-1.695h-1.697v1.693h-1.691v-1.693h-1.7zm6.785 0v1.695h1.693v1.696h1.697v-1.696h1.698v1.696h1.691V19.65h-1.691v-1.693h-1.698v1.693h-1.697v-1.693h-1.693zM22.605 19.651h1.696v1.697h-1.696zM22.605 16.259h1.696v1.697h-1.696z"/>
  <path fill="#000000"
        d="M18.746 14.21v1.397h3.863v7.735h1.66v-7.735h3.881v-1.396h-9.404z"/>
  <path fill="#050708"
        d="M60.117 29.15a9.63 9.63 0 017.424.771 9.644 9.644 0 013.895 4.024 9.515 9.515 0 011.055 4.47c0 .274-.01.537-.038.81a10.917 10.917 0 01-.272 1.553 9.605 9.605 0 01-3.5 5.24c-1.607 1.241-3.621 1.898-5.645 1.946h-.271c-2.023-.057-4.027-.715-5.627-1.956-1.807-1.354-3.085-3.378-3.574-5.578a10.327 10.327 0 01-.217-1.592 13.257 13.257 0 010-.846 9.785 9.785 0 011.063-4.104c1.176-2.256 3.272-4.017 5.709-4.75l-.002.012z"/>
  <path fill="#323332"
        d="M55.038 38.436c0-3.463 2.428-6.736 5.683-7.828-.519.537-1.147.94-1.619 1.517-2.397 2.672-3.207 6.567-2.36 10.028.18.826.536 1.599.838 2.389-1.618-1.57-2.597-3.829-2.531-6.105h-.011v-.001zM62.555 34.766c2.09-.348 4.205 1.401 4.252 3.527.16 1.893-1.354 3.689-3.217 3.934-2.089.366-4.215-1.4-4.253-3.519-.16-1.892 1.354-3.707 3.218-3.933v-.009z"/>
  <path fill="#050708"
        d="M19.666 29.15a9.628 9.628 0 017.423.771 9.62 9.62 0 013.895 4.024 9.478 9.478 0 011.054 4.47c0 .274-.009.537-.038.81a9.614 9.614 0 01-3.772 6.793c-1.609 1.241-3.623 1.898-5.645 1.946h-.273c-2.023-.057-4.027-.715-5.626-1.956-1.806-1.354-3.085-3.378-3.575-5.578a10.086 10.086 0 01-.216-1.592 13.257 13.257 0 010-.846 9.77 9.77 0 011.063-4.104c1.176-2.256 3.273-4.017 5.709-4.75l.001.012z"/>
  <path fill="#323332"
        d="M14.586 38.436c0-3.463 2.427-6.736 5.682-7.828-.518.537-1.148.94-1.619 1.517-2.398 2.672-3.208 6.567-2.361 10.028.179.826.536 1.599.838 2.389-1.619-1.57-2.597-3.829-2.531-6.105h-.009v-.001zM22.103 34.766c2.089-.348 4.206 1.401 4.252 3.527.16 1.893-1.355 3.689-3.217 3.934-2.088.366-4.214-1.4-4.252-3.519-.16-1.892 1.355-3.707 3.217-3.933v-.009z"/>
</svg>
