<?xml version="1.0" encoding="utf-8"?><!-- Generator: Adobe Illustrator 15.0.2, SVG Export Plug-In . SVG Version: 6.00 Build 0)  -->
<!DOCTYPE svg PUBLIC "-//W3C//DTD SVG 1.1//EN"
  "http://www.w3.org/Graphics/SVG/1.1/DTD/svg11.dtd">
<svg version="1.1" id="Слой_1" xmlns="http://www.w3.org/2000/svg" x="0px"
     y="0px" width="80px" height="60px" viewBox="0 0 80 60"
     enable-background="new 0 0 80 60" xml:space="preserve">
<g>
	<path fill="#0071BC" d="M0,48.049c0-5.822,0-7.724,0-12.046c0-4.841,1.729-9.165,13.372-9.165c0-4.957,0-12.772,0-16.577
		c0-3.803,0.692-10.028,7.953-10.028c7.262,0,28.934-0.115,32.854-0.115c3.918,0,12.334,1.383,12.334,9.452
		c0,8.876-0.058,9.775-0.058,14.848c4.956,2.075,4.408,1.816,8.329,3.775c3.918,1.96,4.984,4.755,4.984,8.56
		c0,3.804,0.23,11.181,0.23,11.181L0,48.049z"/>
  <rect x="22.882" y="8.82" fill="#FFFFFF" width="14.87" height="15.942"/>
  <rect x="42.479" y="8.82" fill="#FFFFFF" width="14.87" height="15.942"/>
  <path fill="#FFFFFF" d="M30.559,29.95c-0.001,0.039-0.012,0.076-0.012,0.115c0,1.528,1.238,2.767,2.766,2.767
		c1.53,0,2.767-1.238,2.767-2.767c0-0.039-0.01-0.076-0.011-0.115H30.559z"/>
  <path fill="#FFFFFF" d="M50.79,29.95c-0.002,0.039-0.012,0.076-0.012,0.115c0,1.528,1.238,2.767,2.767,2.767
		s2.768-1.238,2.768-2.767c0-0.039-0.011-0.076-0.013-0.115H50.79z"/>
  <path fill="#FFFFFF" d="M79.943,41.293c-0.04,0.002-0.076,0.013-0.116,0.013c-1.528,0-2.767-1.239-2.767-2.768
		c0-1.527,1.238-2.767,2.767-2.767c0.04,0,0.076,0.01,0.116,0.013V41.293z"/>
  <path fill="#FFFFFF"
        d="M0.058,35.662v7.309c0.606-0.016,1.095-0.507,1.095-1.118V36.78C1.152,36.17,0.664,35.679,0.058,35.662z"/>
  <path fill="#FFFFFF" d="M15.677,9.916c-0.051-1.827,0.28-3.824,1.612-5.249c1.329-1.43,3.347-1.921,5.21-2.006L33.64,2.455
		l22.27-0.379c0.509-0.007,0.929,0.398,0.938,0.907c0.009,0.51-0.397,0.93-0.907,0.938c-0.01,0.001-0.024,0-0.034,0L33.639,3.456
		L22.512,3.234c-1.793-0.008-3.701,0.356-5.018,1.635C16.167,6.14,15.716,8.085,15.677,9.916z"/>
  <path fill="#FFFFFF" d="M3.17,39.921c-0.069-1.394-0.087-2.799,0.119-4.206c0.203-1.396,0.663-2.844,1.653-4.004
		c0.989-1.167,2.417-1.877,3.831-2.27c1.425-0.405,2.875-0.559,4.311-0.645c0.509-0.03,0.946,0.359,0.976,0.867
		c0.03,0.511-0.358,0.948-0.867,0.978c-0.034,0.002-0.067,0.002-0.101,0.001l-0.008-0.001c-1.351-0.07-2.705-0.071-4,0.147
		c-1.292,0.214-2.533,0.674-3.472,1.556c-0.94,0.877-1.529,2.139-1.871,3.461C3.395,37.136,3.254,38.529,3.17,39.921z"/>
  <g>
		<path fill="#050708" d="M51.874,37.212c2.947-0.908,6.246-0.567,8.944,0.929c1.994,1.099,3.65,2.811,4.692,4.853
			c0.862,1.654,1.291,3.522,1.27,5.383c0,0.331-0.011,0.646-0.045,0.975c-0.068,0.636-0.17,1.26-0.329,1.872
			c-0.646,2.505-2.154,4.762-4.217,6.313c-1.938,1.497-4.364,2.289-6.802,2.347H55.06c-2.438-0.068-4.853-0.862-6.78-2.357
			c-2.176-1.632-3.716-4.07-4.306-6.722c-0.137-0.636-0.228-1.271-0.26-1.919c-0.013-0.338-0.013-0.679,0-1.018
			c0.056-1.71,0.496-3.411,1.28-4.944c1.416-2.718,3.944-4.839,6.88-5.723V37.212z"/>
    <path fill="#323332" d="M45.754,48.398c0-4.171,2.924-8.115,6.846-9.432c-0.623,0.647-1.385,1.134-1.95,1.826
			c-2.892,3.22-3.865,7.914-2.846,12.084c0.217,0.997,0.647,1.927,1.011,2.879c-1.951-1.895-3.129-4.614-3.052-7.357H45.754z"/>
    <path fill="#FFFFFF" d="M54.81,43.978c2.517-0.418,5.067,1.688,5.123,4.251c0.194,2.28-1.632,4.445-3.876,4.74
			c-2.516,0.439-5.078-1.69-5.123-4.24c-0.193-2.278,1.633-4.468,3.876-4.738V43.978z"/>
	</g>
  <g>
		<path fill="#050708" d="M22.363,37.212c2.948-0.908,6.246-0.567,8.944,0.929c1.996,1.099,3.651,2.811,4.693,4.853
			c0.862,1.654,1.291,3.522,1.27,5.383c0,0.331-0.012,0.646-0.046,0.975c-0.067,0.636-0.169,1.26-0.328,1.872
			c-0.646,2.505-2.155,4.762-4.217,6.313c-1.938,1.497-4.364,2.289-6.802,2.347h-0.329c-2.437-0.068-4.852-0.862-6.779-2.357
			c-2.176-1.632-3.716-4.07-4.307-6.722c-0.137-0.636-0.227-1.271-0.26-1.919c-0.013-0.338-0.013-0.679,0-1.018
			c0.056-1.71,0.498-3.411,1.28-4.944c1.416-2.718,3.944-4.839,6.88-5.723V37.212z"/>
    <path fill="#323332" d="M16.243,48.398c0-4.171,2.925-8.115,6.846-9.432c-0.623,0.647-1.383,1.134-1.949,1.826
			c-2.892,3.22-3.866,7.914-2.846,12.084c0.218,0.997,0.647,1.927,1.01,2.879c-1.95-1.895-3.129-4.614-3.05-7.357H16.243z"/>
    <path fill="#FFFFFF" d="M25.298,43.978c2.517-0.418,5.069,1.688,5.125,4.251c0.192,2.28-1.633,4.445-3.875,4.74
			c-2.518,0.439-5.08-1.69-5.126-4.24c-0.191-2.278,1.634-4.468,3.876-4.738V43.978z"/>
	</g>
</g>
</svg>
