<svg xmlns="http://www.w3.org/2000/svg" width="80" height="48">
  <path fill="#050708"
        d="M16.21 27.73c2.62-.8 5.56-.5 7.96.83a10.3 10.3 0 01-4.83 19.33h-.3a10.34 10.34 0 01-10.08-9.78v-.9c.05-1.52.44-3.04 1.14-4.4 1.26-2.42 3.5-4.3 6.11-5.09v.01z"/>
  <path fill="#323332"
        d="M10.77 37.68a9.1 9.1 0 016.09-8.39c-.56.58-1.23 1.01-1.73 1.63a12.02 12.02 0 00-2.53 10.74c.19.89.57 1.72.9 2.56a8.91 8.91 0 01-2.72-6.54zM18.82 33.75a4.04 4.04 0 011.11 8 4.03 4.03 0 01-1.1-7.99z"/>
  <path fill="#050708"
        d="M54.42 27.73c2.63-.8 5.56-.5 7.96.83a10.3 10.3 0 01-4.83 19.33h-.3a10.34 10.34 0 01-10.08-9.78v-.9c.05-1.52.44-3.04 1.14-4.4 1.26-2.42 3.5-4.3 6.12-5.09v.01z"/>
  <path fill="#323332"
        d="M48.98 37.68a9.1 9.1 0 016.09-8.39c-.56.58-1.23 1.01-1.73 1.63a12.02 12.02 0 00-2.53 10.74c.19.89.57 1.72.9 2.56a8.91 8.91 0 01-2.72-6.54zM57.03 33.75a4.05 4.05 0 014.56 3.78 4.06 4.06 0 01-3.45 4.21 4.03 4.03 0 01-1.1-7.98z"/>
  <path fill="#d7eef4"
        d="M6.67 14.9c0 .03 32.59-.1 54.08-.18h-4.17c0-4.32-1.7-8.87-4.91-11.73H21.2C10.13 3 6.67 9.31 6.67 14.91z"/>
  <path fill="#0071bc"
        d="M19.15 24.16c7.18 0 13.2 4.48 14.74 10.46l8.48-.05c1.56-5.96 7.57-10.41 14.73-10.41 7.08 0 13.04 4.36 14.68 10.22l3.43-.02s-.17-5.63-.17-10.05c0-4.42-3.25-9.6-9.74-9.6h-4.55l-28.96.12V3h19.88A11.4 11.4 0 0043.93.1h-26.5C10.78.1 2.92 3.6 2.92 11.52s.17 12.94.17 23.3l1.27-.01c1.47-6.08 7.54-10.65 14.8-10.65zM21.2 2.99h6.15v11.86l-20.68.06c0-5.6 3.46-11.92 14.53-11.92z"/>
  <path fill="#999999"
        d="M19.15 22.85a15.1 15.1 0 00-12.03 5.98h-2.5a4.62 4.62 0 100 9.24h1.9l.03-.1h1.57a11.04 11.04 0 0122.05 0h4.1v-.08h7.7v.09h4.1a11.04 11.04 0 0122.05 0h3.14l.02.09h4.1a4.61 4.61 0 100-9.24h-6.26a15.1 15.1 0 00-26.66 5.39h-8.68a15.14 15.14 0 00-14.63-11.37z"/>
  <path fill="#ffffff"
        d="M19.15 24.9a12.8 12.8 0 018.88 4.2 12.28 12.28 0 013.17 8.88h2.05c-.04-.72-.14-1.43-.28-2.14h11.05v-1.36h-11.4a13.7 13.7 0 00-8.37-8.82c-1.65-.6-3.4-.84-5.1-.76zm37.95 0a12.8 12.8 0 018.88 4.2 12.3 12.3 0 013.17 8.88h2.05a13.95 13.95 0 00-4.5-9.61 13.45 13.45 0 00-9.6-3.47zM8.55 29.78l-2.1.17c-.7.07-1.38.06-2.15.23a4.07 4.07 0 00-2.98 2.94 3.77 3.77 0 013.1-2.26c.6-.04 1.34.07 2.03.11l2.1.17zm60.71 0v1.36l4.29-.17c.69-.04 1.42-.15 2.03-.11 1.28.1 2.54.96 3.1 2.26a4.07 4.07 0 00-2.98-2.94c-.77-.17-1.45-.16-2.15-.23z"
        opacity=".99"/>
  <path fill="#ffffff"
        d="M42.02.8l-.9.02-6.9.13-13.79.25-3.45.06c-1.15.02-2.32.1-3.45.35a9.56 9.56 0 00-3.17 1.25c-.95.6-1.7 1.4-2.32 2.26a8.67 8.67 0 012.4-2.16 9.4 9.4 0 013.14-1.13c1.12-.2 2.26-.25 3.4-.23l3.45.06 13.8.2 6.9.1c1.91-.02 3.76.33 5.45 1v-.04h3.16a15.92 15.92 0 00-7.72-2.1zM49 4.22c1.23.83 2.26 1.86 3 3.04a9.83 9.83 0 011.42 5.49v.03c0 .5.47.91 1.04.9.57 0 1.02-.42 1.01-.93-.04-2.17-.62-4.4-1.92-6.3a11.26 11.26 0 00-2.02-2.23zm14.21 11.6c-3.08 0-6.07.04-9.11.05L35.92 16l-4.04.02v.55l4.04.02 18.17.17c3.02.04 6.1.04 9.06.1 1.44.09 2.9.37 4.25.82.6.2 1.17.45 1.7.74.31-.34.68-.6 1.08-.79l-.16-.1c-.7-.39-1.44-.67-2.19-.91-1.5-.46-3.03-.73-4.62-.8zm-35.77.22l-20.09.1v.27l20.09.13zM73.86 22.75a2.28 3.92 0 01-2.28 3.92 2.28 3.92 0 01-2.28-3.92 2.28 3.92 0 012.28-3.92 2.28 3.92 0 012.28 3.92z"/>
</svg>
