<svg xmlns="http://www.w3.org/2000/svg" width="80" height="48">
  <path fill="#0071bc"
        d="M4.16 41C2.53 40.66.25 39.54.13 37.44c-.13-2.2-.59-3.79 1.6-6.69.94-1.25 1.14-1.4 1.6-1.89 0-2.03-.44-6.54 2.83-6.97 2.62-2.76 13-11.34 13.52-11.63-.07-.37-.51-1.02 1.23-1.16 1.75-.15 16.73-.63 21.15.29 14.68 3.05 26.1 11.99 31.32 15.11 5.24 3.13 6.54 11.63 6.62 13.38.07 1.74-1.46 4.8-3.13 5.08-2.58.2-8.84.65-19.44-.14-17.44-1.31-34.63.14-34.63.14z"/>
  <path fill="#fbb03b"
        d="M3.33 28.4s1.55.86 1.81.47c.27-.4.6-3.2.23-4.25-.38-1.04-1.52-.83-1.52-.83s-.3.4-.45 1.9c-.13 1.31-.07 2.71-.07 2.71z"/>
  <path fill="#ffffff"
        d="M69.46 26.44c1.67 0 4.44.4 5.23 1.27.8.87 1.38 2.1 1.6 4-1.92-3.46-6.83-5.27-6.83-5.27z"/>
  <path fill="#d7eef4"
        d="M42.18 9.42c-.4.9.46.97 1.12 1.25.69.3 5.9 2.2 10.53 4.61 5.18 2.7 12.1 6.76 13.01 7.3.91.55 2.4 1.79 2.95 1.79.54 0 1.49.04 3.6.14C68.16 21.4 56.8 12.5 42.17 9.42zm-22.53.74c0 .04.02.08.03.11-.51.29-10.86 8.83-13.5 11.61 2.14.22 6.28.7 7.54.56 1.34-1.49 5.96-8.03 6.57-9.12.62-1.09 1.35-2.02.4-2.87-.25-.23-.57-.31-1.04-.3zm15.45.83c-3.02 0-7.17.08-9.1.08-2.58 0-2.8 1.02-3.42 1.85a210 210 0 00-4.57 7.6c-.59 1.01-1.28 2 0 1.96 1.27-.04 1.89 0 3.12 0 0 0 25.15.76 29.58.83 3.92.07 4.83-1.96 5.45-2.8.45-.6.55-1.15.04-1.52a63.42 63.42 0 00-9.01-5.21c-4.49-2.15-7.02-2.64-9.56-2.75A67.3 67.3 0 0035.1 11z"/>
  <path fill="#fbb03b"
        d="M62.83 26.15h-2.94a.93.93 0 00-.4 1.76 13.3 13.3 0 013.68-1.7.9.9 0 00-.34-.06z"/>
  <path fill="#ffffff"
        d="M6.03 22.06c.35.1.69.24 1.02.38.34.14.69.26 1.04.35.7.2 1.43.32 2.15.4 1.45.2 2.9.28 4.36.33 2.91 0 5.8.07 8.72.14l17.43.5 17.43.55 8.71.26 2.18.01h1.1a8.95 8.95 0 013.17.5c.67.26 1.34.6 1.8 1.16-.43-.6-1.1-.96-1.76-1.26a8.13 8.13 0 00-3.21-.68l-1.09-.05-2.18-.11-8.71-.27-17.43-.55-17.43-.5c-2.9-.06-5.82-.13-8.72-.13-1.45 0-2.9 0-4.35-.1-.72-.06-1.44-.15-2.14-.3a8.9 8.9 0 01-1.05-.3c-.34-.12-.68-.25-1.04-.33zm7.79 3.82A12.15 12.15 0 003.4 31.46c-1.19 1.85 3.67-4.1 10.38-4 6.72.1 11.23 5.63 9.81 3.61a12.14 12.14 0 00-9.78-5.2zm50.32.1c-1.52.11-3.02.6-4.38 1.35a10.2 10.2 0 00-5.26 7.38c-.25 1.53-.18 3.1.15 4.58.03-1.52.15-3.02.51-4.45a11.43 11.43 0 014.95-6.93 16.36 16.36 0 014.03-1.93z"/>
  <path fill="#d7eef4"
        d="M28.7 23.59c-.19 0-.37.03-.55.08l.3 4.03c.08.01.17.03.26.03h.98a2.07 2.07 0 100-4.14h-.98zm-2.93 7.1c-.64 0-1.15.52-1.15 1.15l.74 2.57c.22.76.52 1.15 1.15 1.15h1.15c.64 0 1.15-.52 1.15-1.15 0 0-.57-1.92-.74-2.57-.16-.59-.52-1.15-1.15-1.15h-1.15zm5.13.07c-.63 0-1.14.51-1.14 1.15l.74 2.57c.18.66.51 1.15 1.15 1.15h16.28c.63 0 .87-.58 1.15-1.15.88-1.83 1.15-1.87 1.35-2.57.18-.61-.52-1.15-1.15-1.15H30.9zm22.37.36c-.64 0-.76.42-1.15 1.15l-1.42 2.57c0 .64.1 1.15 1.15 1.15h.65c.64 0 .7-.33 1.15-1.15l1.42-2.57c0-.63-.16-1.15-1.15-1.15h-.65z"/>
  <path fill="#323332"
        d="M21.93 43.16l.67-2.35 3.87-.08c7.52-.3 18.9-.76 31.06.08l1.06 2.34c-12.04-.84-24.56-.54-32.03-.24z"/>
  <path fill="#050708"
        d="M10.74 28.47a9.97 9.97 0 017.69.8 9.95 9.95 0 01-4.67 18.68h-.28a9.99 9.99 0 01-9.75-9.45v-.87c.05-1.47.43-2.93 1.1-4.25a10.02 10.02 0 015.91-4.92v.01z"/>
  <path fill="#323332"
        d="M5.49 38.08a8.8 8.8 0 015.88-8.1c-.54.56-1.2.97-1.68 1.57a11.62 11.62 0 00-2.44 10.38c.18.86.55 1.66.86 2.47a8.62 8.62 0 01-2.62-6.32z"/>
  <path fill="#323332"
        d="M12.97 32.13a6.08 6.08 0 011.67 12.03 6.06 6.06 0 01-1.67-12.01z"/>
  <path fill="#050708"
        d="M13.27 34.29A3.9 3.9 0 0114.34 42a3.89 3.89 0 01-1.07-7.71zM63.87 28.47a9.97 9.97 0 017.68.8 9.96 9.96 0 01-4.66 18.68h-.28a9.98 9.98 0 01-8.65-14.57 10.03 10.03 0 015.91-4.92v.01z"/>
  <path fill="#323332"
        d="M58.61 38.08a8.8 8.8 0 015.88-8.1c-.53.56-1.19.97-1.67 1.57a11.62 11.62 0 00-2.45 10.38c.19.86.56 1.66.87 2.47a8.6 8.6 0 01-2.62-6.32z"/>
  <path fill="#323332"
        d="M66.1 32.13a6.09 6.09 0 016.85 5.69 6.11 6.11 0 01-5.19 6.34 6.06 6.06 0 01-1.67-12.01v-.02z"/>
  <path fill="#050708"
        d="M66.4 34.29A3.9 3.9 0 0167.45 42a3.9 3.9 0 01-1.07-7.71z"/>
  <path fill="#162d50"
        d="M48.58 39.79c-.1 0-.19 0-.3-.02-3.36-.35-13.5-.48-16.2-.22-.75.12-1.9.3-2.14-.77-.02-.1-2.1-10.25-2-15.11.09-4.62.52-12.5.53-12.58 0-.12.1-.22.23-.2.12 0 .2.1.2.22 0 .08-.43 7.96-.53 12.56-.1 4.82 1.98 14.92 2 15.02.1.5.51.61 1.66.43 2.72-.27 12.92-.14 16.3.22.69.07.7-.1.74-.4 1.57-8.03 5.2-10.14 7.37-11.4l.37-.22c1.88-1.12 2.63-1.9 2.84-2.96.02-.12.14-.2.25-.17.12.02.2.14.18.25-.24 1.21-1.04 2.06-3.05 3.26l-.37.21c-2.1 1.23-5.64 3.27-7.16 11.08-.06.56-.32.8-.92.8z"/>
</svg>
