<?xml version="1.0" encoding="utf-8"?><!-- Generator: Adobe Illustrator 15.0.2, SVG Export Plug-In . SVG Version: 6.00 Build 0)  -->
<!DOCTYPE svg PUBLIC "-//W3C//DTD SVG 1.1//EN"
  "http://www.w3.org/Graphics/SVG/1.1/DTD/svg11.dtd">
<svg version="1.1" id="Слой_1" xmlns="http://www.w3.org/2000/svg" x="0px"
     y="0px" width="80px" height="50px" viewBox="0 0 80 50"
     enable-background="new 0 0 80 50" xml:space="preserve">
<g>
	<g>
		<path fill="#0071BC" d="M78.056,25.48c-4.492-4.117-15.421-5.589-17.617-5.839c-0.003-0.02-0.007-0.041-0.011-0.062
			c-1.83,0.187-2.637,0.684-3.657,1.31c-1.098,0.674-2.221-0.249-2.646-1.223c-0.424-0.973-3.068-8.309-3.318-9.157
			c-0.25-0.848,0.225-1.447,1.148-1.598c0.801-0.129,2.577-0.24,3.489-0.447c-0.04-0.066-0.074-0.118-0.097-0.152
			c-0.549-0.823-2.296-2.221-5.64-2.97C44.605,4.2,38.405,3.622,31.817,4.22c-5.884,0.535-9.835,2.225-11.572,4.731
			c0.496-0.035,1.123-0.005,1.766,0.16c0.874,0.225,1.646,0.524,1.747,0.974c0.213,0.959-1.073,5.215-1.248,5.689
			c-0.174,0.475-0.773,2.496-2.47,2.97c-1.567,0.438-2.869,0.095-3.821-0.14c-0.587,0.189-1.16,0.421-1.714,0.696
			c-0.616-0.383-1.302-0.831-2.067-1.39c-2.275-1.665-3.051-2.414-3.773-3.468c3.33,0.111,5.715-0.5,6.326-1.887
			c-3.33-0.443-12.486-1.11-14.956-1.138c-0.306,2.192,1.415,3.635,3.968,3.58c1.945,5.028,5.341,8.021,6.289,8.787
			c-0.677,1.593-1.082,3.626-1.082,6.264c0,3.992,0.848,10.33,2.695,10.33l16.094,0.774L56.945,41.2c0,0,14.998,0.085,16.169,0
			c1.747-0.124,2.047-0.947,2.695-1.695c2.093-2.416,3.144-7.611,3.494-9.134C79.728,28.525,80.077,27.277,78.056,25.48z
			 M46.715,21.837c-2.745-0.025-15.097-0.424-16.095-0.474c-0.998-0.05-3.669-0.299-3.594-2.296c0.063-1.67,0.424-6.163,0.449-7.111
			c0.025-0.949,0.798-2.021,2.246-2.096c1.447-0.075,6.488-0.199,6.488-0.199c1.597,0,7.785-0.125,8.509-0.125
			c0.723,0,1.746,0.399,2.195,1.947c0.449,1.546,1.934,7.454,2.021,8.01C49.061,20.29,49.484,21.862,46.715,21.837z"/>
    <path fill="#29ABE2" d="M20.04,18.743c1.697-0.474,2.296-2.495,2.47-2.97c0.175-0.474,1.461-4.73,1.248-5.689
			c-0.101-0.449-0.874-0.749-1.747-0.974c-0.643-0.165-1.27-0.194-1.766-0.16c-0.208,0.3-0.386,0.611-0.53,0.934
			c-0.97,2.172-2.496,5.489-3.468,8.708c-0.01,0.002-0.019,0.006-0.028,0.009C17.171,18.838,18.472,19.181,20.04,18.743z"/>
    <path fill="#29ABE2" d="M50.807,10.509c0.25,0.849,2.895,8.185,3.318,9.157c0.425,0.974,1.548,1.896,2.646,1.223
			c1.021-0.625,1.827-1.123,3.657-1.31c-0.6-3.606-4.237-9.915-4.983-11.115c-0.912,0.207-2.688,0.317-3.489,0.447
			C51.031,9.062,50.557,9.661,50.807,10.509z"/>
    <path fill="#C9C7C8" d="M46.914,11.482c-0.449-1.547-1.473-1.947-2.195-1.947c-0.725,0-6.913,0.125-8.509,0.125
			c0,0-5.041,0.124-6.488,0.199c-1.447,0.075-2.221,1.147-2.246,2.096c-0.025,0.948-0.387,5.441-0.449,7.111
			c-0.075,1.997,2.596,2.246,3.594,2.296c0.998,0.05,13.35,0.449,16.095,0.474c2.77,0.025,2.346-1.547,2.22-2.346
			C48.848,18.936,47.363,13.028,46.914,11.482z"/>
    <path fill="#29ABE2" d="M48.935,19.492c-0.087-0.556-1.571-6.463-2.021-8.01c-0.449-1.547-1.473-1.947-2.195-1.947
			c-0.725,0-6.913,0.125-8.509,0.125c0,0-5.041,0.124-6.488,0.199c-1.447,0.075-2.221,1.147-2.246,2.096
			c-0.025,0.948-0.387,5.441-0.449,7.111c-0.013,0.348,0.061,0.641,0.192,0.89c0.617,1.184,2.577,1.364,3.402,1.406
			c0.998,0.05,13.35,0.449,16.095,0.474c1.423,0.013,2-0.396,2.21-0.905C49.125,20.45,48.996,19.88,48.935,19.492z"/>

    <ellipse transform="matrix(0.9471 0.321 -0.321 0.9471 11.7723 -22.3357)"
             fill="#FFFFFF" cx="73.634" cy="24.54" rx="3.522" ry="1.202"/>
    <g>
			<path fill="#050708" d="M62.346,28.916c2.224-0.685,4.712-0.428,6.747,0.701c1.505,0.829,2.754,2.12,3.541,3.66
				c0.65,1.249,0.975,2.658,0.957,4.062c0,0.249-0.008,0.488-0.034,0.735c-0.051,0.479-0.127,0.95-0.248,1.411
				c-0.487,1.891-1.625,3.593-3.181,4.764c-1.462,1.129-3.293,1.727-5.131,1.771h-0.248c-1.839-0.052-3.66-0.65-5.114-1.779
				c-1.642-1.23-2.805-3.069-3.25-5.07c-0.103-0.479-0.171-0.959-0.196-1.447c-0.008-0.255-0.008-0.513,0-0.768
				c0.043-1.291,0.376-2.574,0.967-3.729c1.068-2.052,2.976-3.651,5.19-4.318V28.916z"/>
      <path fill="#323332" d="M57.729,37.355c0-3.146,2.206-6.123,5.165-7.115c-0.472,0.488-1.044,0.855-1.472,1.378
				c-2.181,2.429-2.916,5.97-2.146,9.116c0.163,0.752,0.488,1.453,0.762,2.172c-1.472-1.429-2.36-3.481-2.301-5.551H57.729z"/>
      <path fill="#323332" d="M64.561,34.021c1.898-0.316,3.823,1.274,3.865,3.207c0.146,1.72-1.231,3.354-2.925,3.575
				c-1.897,0.333-3.83-1.274-3.865-3.198c-0.146-1.719,1.231-3.37,2.925-3.574V34.021z"/>
		</g>
    <g>
			<path fill="#050708" d="M17.564,28.916c2.224-0.685,4.712-0.428,6.748,0.701c1.505,0.829,2.753,2.12,3.54,3.66
				c0.651,1.249,0.975,2.658,0.958,4.062c0,0.249-0.008,0.488-0.034,0.735c-0.051,0.479-0.128,0.95-0.248,1.411
				c-0.488,1.891-1.625,3.593-3.181,4.764c-1.462,1.129-3.292,1.727-5.131,1.771h-0.248c-1.839-0.052-3.66-0.65-5.114-1.779
				c-1.642-1.23-2.804-3.069-3.25-5.07c-0.103-0.479-0.171-0.959-0.196-1.447c-0.008-0.255-0.008-0.513,0-0.768
				c0.042-1.291,0.376-2.574,0.966-3.729c1.069-2.052,2.976-3.651,5.19-4.318V28.916z"/>
      <path fill="#323332" d="M12.947,37.355c0-3.146,2.207-6.123,5.166-7.115c-0.471,0.488-1.044,0.855-1.472,1.378
				c-2.18,2.429-2.916,5.97-2.146,9.116c0.163,0.752,0.487,1.453,0.761,2.172c-1.471-1.429-2.36-3.481-2.301-5.551H12.947z"/>
      <path fill="#323332" d="M19.779,34.021c1.899-0.316,3.823,1.274,3.866,3.207c0.145,1.72-1.232,3.354-2.925,3.575
				c-1.898,0.333-3.831-1.274-3.866-3.198c-0.146-1.719,1.232-3.37,2.925-3.574V34.021z"/>
		</g>
    <path fill="#FFFFFF" d="M69.524,27.554c-0.841-0.335-1.718-0.522-2.604-0.608c-0.88-0.107-1.77-0.126-2.644-0.044
			c-1.743,0.16-3.457,0.654-4.876,1.625c-1.437,0.945-2.52,2.357-3.265,3.94c-0.746,1.591-1.146,3.352-1.436,5.135
			c-0.041-0.905,0.028-1.814,0.14-2.722c0.145-0.903,0.363-1.801,0.69-2.669c0.64-1.739,1.815-3.335,3.394-4.394
			c1.579-1.056,3.471-1.563,5.321-1.57C66.086,26.248,67.974,26.58,69.524,27.554z"/>
    <path fill="#FFFFFF" d="M28.959,31.045c-0.379-0.85-0.922-1.597-1.588-2.212c-0.645-0.634-1.389-1.158-2.184-1.574
			c-1.587-0.83-3.364-1.294-5.137-1.262c-1.775,0.009-3.522,0.549-5.053,1.482c-0.768,0.464-1.479,1.035-2.124,1.68
			c-0.67,0.624-1.248,1.344-1.82,2.077c0.408-0.837,0.926-1.62,1.51-2.36c0.604-0.724,1.297-1.381,2.069-1.944
			c1.545-1.133,3.472-1.763,5.406-1.789c1.933-0.015,3.861,0.522,5.478,1.55c0.805,0.514,1.546,1.13,2.161,1.857
			C28.268,29.288,28.762,30.129,28.959,31.045z"/>
    <path fill="#FFFFFF" d="M29.83,37.887c1.978-0.176,3.955-0.259,5.933-0.327c1.978-0.079,3.955-0.09,5.933-0.101
			c1.978,0.011,3.955,0.021,5.933,0.099l2.967,0.119c0.988,0.071,1.978,0.113,2.966,0.21c-0.988,0.097-1.978,0.139-2.966,0.21
			l-2.967,0.119c-1.978,0.078-3.955,0.089-5.933,0.099c-1.978-0.011-3.955-0.021-5.933-0.101
			C33.785,38.146,31.808,38.063,29.83,37.887z"/>
    <path fill="#E6E6E6" d="M79.621,29.435c-0.514,0.077-1.095,0.129-1.629,0.131c-0.545,0.005-1.09-0.029-1.626-0.109
			c-1.069-0.161-2.121-0.511-2.994-1.119c0.946,0.484,1.998,0.677,3.03,0.692c0.517,0.008,1.033-0.029,1.542-0.104
			c0.521-0.076,0.988-0.18,1.508-0.33c0.228-0.065,0.465,0.066,0.531,0.294c0.065,0.228-0.066,0.465-0.293,0.53
			c-0.018,0.006-0.036,0.01-0.054,0.012L79.621,29.435z"/>
    <path fill="#E6E6E6" d="M79.18,31.723c-0.801-0.069-1.619-0.142-2.424-0.285c-0.801-0.146-1.612-0.346-2.315-0.748
			c0.761,0.271,1.563,0.319,2.354,0.322c0.794,0,1.583-0.07,2.386-0.145c0.235-0.021,0.445,0.152,0.466,0.389
			c0.022,0.236-0.151,0.445-0.388,0.467C79.232,31.726,79.204,31.725,79.18,31.723z"/>
    <path fill="#E6E6E6" d="M78.854,33.611c-0.342-0.036-0.714-0.091-1.053-0.155c-0.348-0.063-0.69-0.139-1.03-0.225
			c-0.678-0.175-1.354-0.377-1.975-0.688c0.669,0.176,1.354,0.232,2.036,0.266c0.341,0.014,0.683,0.017,1.021,0.009
			c0.347-0.008,0.663-0.026,1.01-0.061c0.236-0.023,0.446,0.149,0.471,0.386c0.023,0.236-0.149,0.446-0.386,0.47
			c-0.029,0.004-0.058,0.004-0.086,0L78.854,33.611z"/>
    <path fill="#E6E6E6" d="M78.057,35.634c-0.954-0.342-1.961-0.721-2.796-1.31c0.973,0.333,1.957,0.406,2.977,0.473
			c0.237,0.016,0.418,0.222,0.402,0.46c-0.015,0.238-0.221,0.419-0.459,0.402c-0.04-0.002-0.079-0.011-0.115-0.023L78.057,35.634z"/>
    <path fill="#FFFFFF" d="M1.407,12.05l12.583,0.86L1.38,13.16c-0.306,0.006-0.56-0.238-0.566-0.544
			c-0.007-0.307,0.237-0.561,0.544-0.566C1.375,12.049,1.391,12.049,1.407,12.05z"/>
	</g>
  <path fill="#FFFFFF" d="M26.854,6.406c4.103-0.939,8.334-1.318,12.556-1.237c2.112,0.043,4.225,0.204,6.321,0.519
		c2.095,0.319,4.183,0.774,6.193,1.553c0.22,0.085,0.329,0.333,0.244,0.553c-0.086,0.221-0.334,0.33-0.553,0.245
		c-0.005-0.001-0.009-0.003-0.012-0.005L51.598,8.03c-1.891-0.808-3.924-1.329-5.973-1.711c-2.053-0.379-4.139-0.61-6.23-0.724
		C35.21,5.375,30.986,5.607,26.854,6.406z"/>
</g>
</svg>
