<svg xmlns="http://www.w3.org/2000/svg" width="80" height="50">
  <path fill="#050708"
        d="M13.82 30.38a9.98 9.98 0 017.7.8 9.96 9.96 0 014.8 11.26 9.96 9.96 0 01-9.48 7.45h-.28A10 10 0 017.9 35.3a10.03 10.03 0 015.92-4.92z"/>
  <path fill="#323332"
        d="M8.56 40a8.8 8.8 0 015.89-8.1c-.54.55-1.2.97-1.68 1.56a11.63 11.63 0 00-2.45 10.4c.19.86.56 1.66.87 2.48A8.62 8.62 0 018.57 40h-.01zM16.35 36.2a3.91 3.91 0 011.07 7.74 3.9 3.9 0 01-1.07-7.72z"/>
  <path fill="#050708"
        d="M55.26 30.38a9.95 9.95 0 0112.5 12.05 9.96 9.96 0 01-9.47 7.46H58a10 10 0 01-8.66-14.59 10.03 10.03 0 015.91-4.92z"/>
  <path fill="#323332"
        d="M50 40a8.8 8.8 0 015.89-8.1c-.54.55-1.2.97-1.68 1.56a11.63 11.63 0 00-2.45 10.4c.19.86.56 1.66.87 2.48A8.63 8.63 0 0150.01 40H50zM57.79 36.2a3.91 3.91 0 011.07 7.74 3.9 3.9 0 01-1.07-7.72z"/>
  <path fill="#d5f6ff"
        d="M48.66 10.73c1.3.86 9.93 7.26 12.09 10.93 2.47-.55 2.65-.64 3.35-1.28-.9-1.1-3.29-3.55-5.6-5.41a108.86 108.86 0 00-8.69-6.29c.03.72-.33 1.27-1.15 2.05z"/>
  <path fill="#0071bc"
        d="M77.22 30.07C73.98 22.23 66 20.44 64.2 20.3l-.1.09c-.7.64-.88.73-3.35 1.28-2.16-3.67-10.8-10.07-12.09-10.93.83-.78 1.18-1.33 1.15-2.05v-.13c-.06-.52-1.36-1.13-1.86.02-.25.55-.46.9-1.14 1.4-.64.5-.5 1.44.22 2.11 1.1 1.06 3.26 3.13 5.23 4.83-.57.65-1 1-1.87 1.94 0 0-28.98.08-30.5 0-.5-.72-2.8-3.02-3.66-3.88-1.59-.07-1.8.5-2.45.94-.8-.72-.65-.5-1.51-1.08-1.08.72-1.87 2.37-2.16 4.67-2.44 1.44-3.38 4.39-3.52 5.68C3.57 26.84.9 31.73.1 36.18c-.79 4.47 2.74 7.42 3.67 7.49.94.07 3.1-1.37 3.53-2.38-.29-1-.72-11.22 9.2-11.14 9.93.07 10.07 11.43 10.43 13.8l21.65-.07c0-.93-1.91-9.16 4.49-12.54C59.09 28.17 64 31.02 66.3 34c1.67 2.16 2.16 6.3 2.13 9.02 2.38 0 6.55.8 9.5-1.73 3.77-3.22 1.65-8.77-.72-11.22z"/>
  <path fill="#ffffff"
        d="M12.19 15.53a.2.2 0 00-.12.06 3.61 3.61 0 00-.91 2.1s0 .02.02.02l.03-.01c.2-.65.6-1.21 1.04-1.67 1.6 1.12 3.3 2.07 4.93 3.1l2.56 1.6c.84.52 1.7 1.04 2.52 1.61h.04v-.04c-1.61-1.2-3.28-2.32-4.94-3.44-1.67-1.1-3.3-2.29-5.02-3.3h-.02a.2.2 0 00-.13-.03zM52.4 16.9c1.16 1.2 2.42 2.35 3.31 3.7.1.17.2.34.26.5.03.08.04.16.03.21a.9.9 0 01-.06.24c-.1.2-.59.27-.97.3-.8.08-1.65.08-2.48.09H27.42l-5.01.21 5.01.22H52.5c.84 0 1.68 0 2.53-.09.21-.02.43-.05.65-.1.2-.06.5-.14.65-.43.07-.14.09-.25.11-.36.03-.17 0-.3-.04-.42-.07-.23-.2-.42-.31-.6C55 19 53.66 18 52.4 16.9zm8.3 6.35c-.45 0-.9.02-1.35.05-1.8.1-3.6.4-5.3 1.02a12.9 12.9 0 00-4.62 2.8 13.14 13.14 0 00-3 4.45c-1.34 3.2-1.62 6.67-1.57 10.07H29.03v.87h15.9v-.87h-.06c.09-3.4.51-6.84 1.94-9.9a12.62 12.62 0 013.05-4.15 12.16 12.16 0 014.45-2.47c1.64-.51 3.36-.73 5.09-.77 1.73-.03 3.44.12 5.12.47a20.18 20.18 0 017.02 2.92 15.1 15.1 0 011.89 1.55l.02.03.03.02a.87.87 0 001.2-1.24c-.4-.38-.73-.64-1.11-.93a17.2 17.2 0 00-3.59-2.06 21.69 21.69 0 00-5.22-1.55c-1.35-.22-2.7-.32-4.06-.3zm-47.5.37c-.38 0-.74.02-1.1.05-.7.08-1.4.2-2.08.35-.7.17-1.35.34-2.09.67l-.05.02a.86.86 0 10.8 1.53h.02a9.83 9.83 0 011.72-.65 15.81 15.81 0 012.8-.52 18.12 18.12 0 012.89.15c2.56.35 5.04 1.35 7.1 2.97a14.85 14.85 0 014.6 6.3 18.3 18.3 0 011.15 7.87c.32-2.67.12-5.43-.74-8.02a15.5 15.5 0 00-4.46-6.81 15.7 15.7 0 00-7.44-3.58 18.55 18.55 0 00-3.12-.33z"/>
  <path fill="#fcee21"
        d="M8.08 24.58A7.18 7.18 0 002.28 30s1.6.8 3.83-.27c1.34-.63 3.14-2.8 1.97-5.15zm63.4 1.53c-.39-.03-.7.05-.88.3-.93 1.29 1.94 5.53 4.03 5.46 1.36-.05 2.52-1.22 2.09-2.59-.26-.8-3.52-3.05-5.23-3.17zM20.72 15.26c-1.65 0-2.08 2.23-1.65 2.73.43.5 2.3 2.59 3.56 4 0 0 .1-2.56.1-3.64s-.35-3.1-2-3.1zm15.07.24c-1-.09-1.78.85-1.83 1.55-.07.94-.08 4.82-.08 4.82h4.68s-.43-1.08-1-2.08c.14-.58.71-2.59-.73-3.81-.36-.3-.71-.45-1.04-.48z"/>
</svg>
