<svg xmlns="http://www.w3.org/2000/svg" width="80" height="48">
  <path fill="#0071bc"
        d="M78.06 27.39c-4.5-4.12-15.43-5.6-17.62-5.84l-.01-.06a7.46 7.46 0 00-3.66 1.3c-1.1.68-2.22-.24-2.65-1.21-.42-.98-3.06-8.31-3.31-9.16-.25-.85.22-1.45 1.14-1.6.8-.13 2.58-.24 3.5-.45a3.67 3.67 0 00-.1-.15c-.55-.82-2.3-2.22-5.64-2.97a58.7 58.7 0 00-17.9-1.12c-5.88.54-9.83 2.23-11.56 4.73.5-.03 1.12 0 1.76.16.88.23 1.65.53 1.75.98.21.95-1.07 5.2-1.25 5.68-.17.48-.77 2.5-2.47 2.97-1.57.44-2.87.1-3.82-.14-.59.2-1.16.42-1.71.7-.62-.38-1.3-.83-2.07-1.4-2.28-1.66-3.05-2.4-3.77-3.46 3.33.1 5.71-.5 6.32-1.9a214.8 214.8 0 00-14.96-1.1C-.26 15.5 1.46 16.96 4 16.9a21.84 21.84 0 006.3 8.78 15.92 15.92 0 00-1.09 6.27c0 3.99.85 10.33 2.7 10.33l16.09.77 28.95.05s15 .09 16.16 0c1.75-.12 2.05-.95 2.7-1.7 2.1-2.41 3.14-7.6 3.5-9.13.42-1.84.77-3.1-1.25-4.9zm-31.34-3.64c-2.75-.03-15.1-.43-16.1-.48-1-.05-3.67-.3-3.6-2.3.07-1.66.43-6.16.46-7.1.02-.95.8-2.03 2.24-2.1 1.45-.07 6.49-.2 6.49-.2 1.6 0 7.78-.12 8.5-.12.73 0 1.75.4 2.2 1.94a207.2 207.2 0 012.02 8c.13.8.55 2.38-2.21 2.36z"/>
  <path fill="#050708"
        d="M62.35 30.75a8.75 8.75 0 016.74.7 8.75 8.75 0 01-4.1 16.4h-.24a8.76 8.76 0 01-2.4-17.11z"/>
  <path fill="#323332"
        d="M57.73 39.23c0-3.14 2.2-6.12 5.16-7.11-.47.49-1.04.85-1.47 1.38a10.2 10.2 0 00-2.14 9.1c.16.77.48 1.47.76 2.19a7.56 7.56 0 01-2.3-5.56zm6.83-3.33a3.43 3.43 0 01.94 6.78 3.42 3.42 0 01-.94-6.77z"/>
  <path fill="#050708"
        d="M17.56 30.75a8.75 8.75 0 016.75.7 8.74 8.74 0 01-4.1 16.4h-.24a8.76 8.76 0 01-2.4-17.11z"/>
  <path fill="#323332"
        d="M12.95 39.23c0-3.14 2.2-6.12 5.16-7.11-.47.49-1.04.85-1.47 1.38a10.2 10.2 0 00-2.15 9.1c.17.77.5 1.47.77 2.19a7.57 7.57 0 01-2.3-5.56zm6.83-3.33a3.43 3.43 0 01.94 6.78 3.42 3.42 0 01-.94-6.77z"/>
  <path fill="#d7eef4"
        d="M20.04 20.72c1.7-.47 2.3-2.5 2.47-2.97.17-.47 1.46-4.73 1.25-5.7-.1-.44-.88-.74-1.75-.96a5.68 5.68 0 00-1.77-.16c-.2.3-.38.6-.53.93-.97 2.18-2.5 5.5-3.46 8.7l-.03.02c.95.24 2.25.58 3.82.14zm30.76-8.24c.26.86 2.9 8.2 3.33 9.17.42.97 1.54 1.9 2.64 1.22a7.36 7.36 0 013.66-1.31c-.6-3.6-4.24-9.92-4.99-11.12-.9.2-2.68.32-3.48.45-.93.15-1.4.75-1.15 1.6zm-1.86 9c-.1-.56-1.58-6.47-2.03-8.02-.44-1.54-1.47-1.94-2.2-1.94-.72 0-6.9.12-8.5.12 0 0-5.04.12-6.49.2-1.44.07-2.22 1.15-2.24 2.1-.03.94-.4 5.44-.45 7.1-.02.35.06.65.19.9.62 1.18 2.58 1.36 3.4 1.4 1 .05 13.35.45 16.1.48 1.42 0 2-.4 2.2-.9.2-.5.08-1.06.02-1.45z"/>
  <path fill="#e6e6e6"
        d="M79.62 31.38a11.67 11.67 0 01-3.25.03 7.08 7.08 0 01-3-1.12 7 7 0 003.03.7 9.57 9.57 0 003.05-.44.43.43 0 11.19.83zm-.44 2.3a27.2 27.2 0 01-2.42-.29 7.26 7.26 0 01-2.32-.75c.76.27 1.56.32 2.36.32.79 0 1.58-.07 2.38-.14a.43.43 0 110 .85zm-.33 1.88a13.43 13.43 0 01-2.08-.38 9.93 9.93 0 01-1.97-.69 10 10 0 002.03.27 15.82 15.82 0 002.03-.05c.24-.03.45.15.47.38a.43.43 0 01-.47.47zm-.79 2.02a11.9 11.9 0 01-2.8-1.3c.97.33 1.96.4 2.98.47a.43.43 0 11-.17.84z"/>
  <path fill="#ffffff"
        d="M76.97 27.6a3.52 1.2 18.72 01-3.72 0 3.52 1.2 18.72 01-2.94-2.26 3.52 1.2 18.72 013.71 0 3.52 1.2 18.72 012.95 2.26zM69.52 29.48a9.48 9.48 0 00-2.6-.6c-.88-.11-1.77-.13-2.64-.05-1.75.16-3.46.66-4.88 1.63a9.46 9.46 0 00-3.27 3.94 19.4 19.4 0 00-1.43 5.13 13.73 13.73 0 01.83-5.4 9.08 9.08 0 013.4-4.38 9.68 9.68 0 015.31-1.57c1.85 0 3.73.33 5.28 1.3zm-40.56 3.5a6.75 6.75 0 00-1.59-2.22 10.75 10.75 0 00-7.32-2.83A9.97 9.97 0 0015 29.42c-.77.46-1.48 1.03-2.13 1.68a17.5 17.5 0 00-1.82 2.08 11.6 11.6 0 013.58-4.3 9.43 9.43 0 015.4-1.8 10.12 10.12 0 017.65 3.41 6.2 6.2 0 011.28 2.5zm.87 6.84a172.64 172.64 0 0111.87-.43c1.97.01 3.95.02 5.93.1l2.97.12c.98.07 1.97.11 2.96.2-.99.1-1.98.15-2.96.22l-2.97.12a196 196 0 01-5.93.1c-1.98-.02-3.96-.03-5.94-.1-1.97-.07-3.95-.16-5.93-.33zM1.4 13.98l12.59.86-12.61.25a.56.56 0 11.03-1.11zm25.45-5.65a51.87 51.87 0 0118.88-.71c2.1.32 4.18.77 6.2 1.55a.43.43 0 11-.33.8v-.01c-1.9-.8-3.93-1.33-5.98-1.71a51.79 51.79 0 00-18.77.09z"/>
</svg>
