<?xml version="1.0" encoding="utf-8"?><!-- Generator: Adobe Illustrator 15.0.2, SVG Export Plug-In . SVG Version: 6.00 Build 0)  -->
<!DOCTYPE svg PUBLIC "-//W3C//DTD SVG 1.1//EN"
  "http://www.w3.org/Graphics/SVG/1.1/DTD/svg11.dtd">
<svg version="1.1" id="Слой_1" xmlns="http://www.w3.org/2000/svg" x="0px"
     y="0px" width="80px" height="52.05px" viewBox="0 0 80 52.05"
     enable-background="new 0 0 80 52.05" xml:space="preserve">
<g>
	<g>
		<path fill="#050708" d="M16.214,31.891c2.621-0.807,5.553-0.504,7.953,0.827c1.773,0.977,3.245,2.498,4.172,4.313
			c0.767,1.473,1.149,3.134,1.129,4.787c0,0.294-0.01,0.575-0.04,0.866c-0.06,0.565-0.151,1.12-0.292,1.664
			c-0.575,2.229-1.916,4.234-3.749,5.614c-1.724,1.331-3.881,2.035-6.048,2.087h-0.292c-2.167-0.062-4.314-0.767-6.028-2.097
			c-1.935-1.451-3.305-3.618-3.83-5.977c-0.121-0.565-0.202-1.13-0.231-1.705c-0.01-0.302-0.01-0.604,0-0.905
			c0.05-1.522,0.443-3.034,1.139-4.396c1.26-2.417,3.507-4.303,6.118-5.089V31.891z"/>
    <path fill="#323332" d="M10.771,41.838c0-3.708,2.601-7.217,6.088-8.386c-0.555,0.574-1.23,1.008-1.734,1.624
			c-2.57,2.862-3.437,7.036-2.53,10.744c0.192,0.887,0.575,1.713,0.898,2.56c-1.734-1.683-2.782-4.103-2.712-6.542H10.771z"/>
    <path fill="#323332" d="M18.824,37.908c2.238-0.372,4.506,1.502,4.556,3.779c0.171,2.028-1.452,3.953-3.447,4.215
			c-2.237,0.392-4.515-1.502-4.557-3.77c-0.171-2.026,1.452-3.973,3.447-4.213V37.908z"/>
	</g>
  <g>
		<path fill="#050708" d="M54.424,31.891c2.622-0.807,5.554-0.504,7.953,0.827c1.774,0.977,3.246,2.498,4.174,4.313
			c0.766,1.473,1.147,3.134,1.128,4.787c0,0.294-0.01,0.575-0.039,0.866c-0.062,0.565-0.152,1.12-0.294,1.664
			c-0.574,2.229-1.915,4.234-3.748,5.614c-1.725,1.331-3.882,2.035-6.048,2.087h-0.293c-2.167-0.062-4.313-0.767-6.028-2.097
			c-1.935-1.451-3.305-3.618-3.828-5.977c-0.122-0.565-0.203-1.13-0.232-1.705c-0.01-0.302-0.01-0.604,0-0.905
			c0.051-1.522,0.442-3.034,1.14-4.396c1.26-2.417,3.506-4.303,6.116-5.089V31.891z"/>
    <path fill="#323332" d="M48.982,41.838c0-3.708,2.601-7.217,6.087-8.386c-0.555,0.574-1.23,1.008-1.734,1.624
			c-2.568,2.862-3.437,7.036-2.529,10.744c0.193,0.887,0.575,1.713,0.897,2.56c-1.734-1.683-2.781-4.103-2.711-6.542H48.982z"/>
    <path fill="#323332" d="M57.034,37.908c2.238-0.372,4.507,1.502,4.558,3.779c0.171,2.028-1.453,3.953-3.447,4.215
			c-2.238,0.392-4.516-1.502-4.558-3.77c-0.171-2.026,1.453-3.973,3.447-4.213V37.908z"/>
	</g>
  <path fill="#29ABE2" d="M6.667,16.625c0,0.027,32.589-0.116,54.082-0.214c-0.711,0-1.942,0-4.165,0
		c0-4.851-1.695-9.959-4.916-13.163c-10.4,0-25.359,0-30.472,0C10.128,3.248,6.667,10.342,6.667,16.625z"/>
  <path fill="#0071BC" d="M19.146,27.009c7.18,0,13.202,5.027,14.742,11.747l8.478-0.061c1.563-6.688,7.569-11.687,14.729-11.687
		c7.083,0,13.042,4.893,14.68,11.477l3.439-0.024c0,0-0.172-6.325-0.172-11.281c0-4.958-3.248-10.769-9.742-10.769
		c-4.839,0-2.473,0-4.552,0c-8.792,0.04-19.438,0.088-28.953,0.128V3.248c6.285,0,13.841,0,19.872,0C49.666,1.257,47.077,0,43.934,0
		c-8.206,0-19.831,0-26.498,0c-6.667,0-14.53,3.931-14.53,12.821c0,8.888,0.171,14.53,0.171,26.153l1.277-0.01
		C5.816,32.142,11.891,27.009,19.146,27.009z M21.196,3.248c1.408,0,3.559,0,6.155,0v13.31C15.68,16.606,6.667,16.64,6.667,16.625
		C6.667,10.342,10.128,3.248,21.196,3.248z"/>
  <g>
		<path fill="#999999"
          d="M4.616,32.993C2.067,32.993,0,35.058,0,37.607s2.067,4.615,4.616,4.615h1.911L9.4,32.993H4.616z"/>
    <g opacity="0.99">
			<path fill="#FFFFFF" d="M1.32,37.279c0.175-0.679,0.535-1.326,1.052-1.846c0.519-0.514,1.185-0.907,1.925-1.093
				c0.774-0.175,1.45-0.159,2.152-0.237l2.098-0.17v1.366L6.45,35.128c-0.692-0.04-1.425-0.156-2.033-0.115
				C3.135,35.109,1.878,35.98,1.32,37.279z"/>
		</g>
	</g>
  <g>
		<path fill="#999999"
          d="M75.384,32.993c2.55,0,4.616,2.065,4.616,4.614s-2.066,4.615-4.616,4.615h-4.101l-2.872-9.229H75.384z"/>
    <g opacity="0.99">
			<path fill="#FFFFFF" d="M78.68,37.279c-0.176-0.679-0.536-1.326-1.054-1.846c-0.518-0.514-1.185-0.907-1.925-1.093
				c-0.774-0.175-1.449-0.159-2.152-0.237l-4.285-0.17v1.366l4.285-0.171c0.691-0.04,1.426-0.156,2.034-0.115
				C76.864,35.109,78.12,35.98,78.68,37.279z"/>
		</g>
	</g>
  <g>
		<g>
			<rect x="31.796" y="38.376" fill="#999999" width="12.477" height="3.675"/>
      <g>
				<rect x="31.968" y="38.633" fill="#FFFFFF" width="12.05"
              height="1.368"/>
			</g>
		</g>
    <g>
			<path fill="#999999" d="M34.274,42.137h-4.103c0-6.08-4.945-11.025-11.025-11.025S8.121,36.057,8.121,42.137H4.017
				c0-8.342,6.786-15.128,15.129-15.128S34.274,33.795,34.274,42.137z"/>
		</g>
    <path fill="#FFFFFF" d="M19.146,29.059c1.712-0.085,3.458,0.166,5.103,0.758c1.647,0.588,3.189,1.513,4.506,2.711
			c1.319,1.196,2.414,2.667,3.186,4.31c0.775,1.641,1.223,3.456,1.308,5.3h-2.052c0.19-3.16-0.946-6.439-3.167-8.885
			C25.833,30.792,22.578,29.214,19.146,29.059z"/>
    <g>
			<path fill="#999999" d="M72.223,42.137h-4.101c0-6.08-4.947-11.025-11.026-11.025s-11.026,4.945-11.026,11.025h-4.103
				c0-8.342,6.786-15.128,15.129-15.128S72.223,33.795,72.223,42.137z"/>
		</g>
    <path fill="#FFFFFF" d="M57.096,29.059c1.711-0.085,3.459,0.166,5.104,0.758c1.644,0.588,3.188,1.513,4.504,2.711
			c1.319,1.196,2.414,2.667,3.186,4.31c0.775,1.641,1.225,3.456,1.309,5.3h-2.051c0.188-3.16-0.947-6.439-3.168-8.885
			C63.783,30.792,60.528,29.214,57.096,29.059z"/>
	</g>
  <polygon fill="#FFFFFF"
           points="7.35,18.301 27.436,18.444 27.436,17.883 7.35,17.987 	"/>
  <g>
		<path fill="#FFFFFF" d="M53.548,7.126c-0.557-0.929-1.246-1.767-2.018-2.511h-2.532c1.229,0.926,2.267,2.084,3.001,3.413
			c1.037,1.856,1.466,4.008,1.421,6.16c0,0.012,0,0.027,0,0.038c0.008,0.567,0.475,1.02,1.041,1.01
			c0.565-0.008,1.021-0.473,1.011-1.04v-0.008C55.434,11.75,54.848,9.252,53.548,7.126z"/>
    <path fill="#FFFFFF" d="M46.583,3.163h3.153c-0.512-0.342-1.043-0.646-1.592-0.913c-2.174-1.068-4.652-1.559-7.015-1.438
			l-6.9,0.141L20.431,1.236l-3.451,0.068c-1.155,0.016-2.323,0.115-3.455,0.391c-1.128,0.272-2.225,0.724-3.167,1.406
			C9.41,3.776,8.656,4.677,8.035,5.64c0.658-0.939,1.44-1.807,2.396-2.435c0.95-0.636,2.037-1.035,3.15-1.26
			c1.116-0.228,2.257-0.284,3.398-0.258l3.452,0.061l13.8,0.229l6.898,0.116c1.911-0.024,3.758,0.362,5.453,1.112V3.163z"/>
	</g>
  <ellipse fill="#FFFFFF" cx="71.582" cy="25.427" rx="2.281" ry="4.403"/>
  <path fill="#FFFFFF" d="M70.175,19.672c-0.053-0.035-0.103-0.076-0.157-0.108c-0.701-0.444-1.438-0.762-2.184-1.03
		c-1.498-0.516-3.039-0.821-4.624-0.895c-3.085-0.007-6.073,0.041-9.114,0.057l-18.174,0.142l-4.04,0.021v0.616l4.039,0.029
		l18.173,0.19c3.018,0.04,6.089,0.047,9.06,0.11c1.44,0.098,2.894,0.419,4.248,0.922c0.599,0.227,1.171,0.503,1.692,0.824
		C69.415,20.178,69.777,19.882,70.175,19.672z"/>
</g>
</svg>
