<?xml version="1.0" encoding="utf-8"?><!-- Generator: Adobe Illustrator 15.0.2, SVG Export Plug-In . SVG Version: 6.00 Build 0)  -->
<!DOCTYPE svg PUBLIC "-//W3C//DTD SVG 1.1//EN"
  "http://www.w3.org/Graphics/SVG/1.1/DTD/svg11.dtd">
<svg version="1.1" id="Слой_1" xmlns="http://www.w3.org/2000/svg" x="0px"
     y="0px" width="80px" height="50px" viewBox="0 0 80 50"
     enable-background="new 0 0 80 50" xml:space="preserve">
<g>
	<g>
		<path fill="#0071BC" d="M4.161,37.593c-1.634-0.326-3.911-1.439-4.032-3.543c-0.128-2.199-0.588-3.785,1.598-6.687
			c0.944-1.255,1.144-1.399,1.599-1.89c0-2.035-0.437-6.541,2.835-6.976C8.776,15.735,19.169,7.16,19.677,6.869
			c-0.072-0.364-0.508-1.017,1.235-1.163c1.745-0.145,16.726-0.628,21.149,0.291c14.681,3.052,26.091,11.99,31.322,15.116
			c5.233,3.125,6.54,11.627,6.614,13.373c0.072,1.744-1.455,4.796-3.126,5.088c-2.579,0.199-8.841,0.648-19.44-0.146
			c-17.442-1.308-34.629,0.146-34.629,0.146L4.161,37.593z"/>
    <path fill="#FBB03B" d="M3.326,25.001c0,0,1.554,0.857,1.818,0.466c0.265-0.392,0.604-3.198,0.227-4.242
			c-0.377-1.042-1.519-0.839-1.519-0.839s-0.307,0.398-0.453,1.909C3.271,23.601,3.326,25.001,3.326,25.001z"/>
    <path fill="#FFFFFF" d="M69.459,23.039c1.673,0,4.442,0.408,5.233,1.272c0.799,0.872,1.381,2.107,1.599,3.998
			C74.365,24.855,69.459,23.039,69.459,23.039z"/>
    <path fill="#29ABE2" d="M21.13,19.079c-1.235,0-1.852-0.036-3.124,0c-1.272,0.036-0.582-0.945,0-1.962s3.96-6.759,4.578-7.594
			C23.202,8.687,23.42,7.668,26,7.668c2.58,0,9.084-0.145,11.628-0.036c2.544,0.109,5.072,0.595,9.557,2.743
			c3.87,1.854,7.14,3.87,9.012,5.214c0.517,0.371,0.413,0.918-0.037,1.526c-0.617,0.835-1.526,2.862-5.449,2.797
			C46.276,19.842,21.13,19.079,21.13,19.079z"/>
    <path fill="#29ABE2" d="M43.297,7.269c0.691,0.292,5.906,2.21,10.537,4.615c5.179,2.688,12.101,6.759,13.01,7.304
			c0.908,0.544,2.397,1.78,2.941,1.78c0.547,0,1.49,0.037,3.599,0.145C68.165,17.997,56.803,9.099,42.178,6.023
			C41.786,6.911,42.639,6.992,43.297,7.269z"/>
    <path fill="#29ABE2" d="M13.718,19.043c1.345-1.49,5.959-8.031,6.577-9.121c0.617-1.09,1.345-2.02,0.399-2.871
			c-0.254-0.23-0.569-0.313-1.045-0.294c0.011,0.039,0.022,0.078,0.028,0.112C19.169,7.159,8.815,15.704,6.175,18.48
			C8.324,18.703,12.457,19.175,13.718,19.043z"/>
    <path fill="#FBB03B" d="M62.828,22.749h-2.943c-0.513,0-0.927,0.415-0.927,0.927c0,0.367,0.216,0.682,0.527,0.832
			c1.326-0.884,2.67-1.408,3.68-1.695C63.06,22.771,62.947,22.749,62.828,22.749z"/>
    <path fill="#FFFFFF" d="M13.795,24.059C7.082,23.958,2.22,29.906,3.406,28.063c2.198-3.414,6.054-5.65,10.412-5.584
			c4.06,0.061,7.624,2.106,9.786,5.194C25.016,29.695,20.506,24.161,13.795,24.059z"/>
    <path fill="#FFFFFF" d="M54.653,35.886c-0.331-1.483-0.406-3.043-0.152-4.579c0.24-1.534,0.845-3.029,1.758-4.312
			c0.924-1.278,2.139-2.326,3.502-3.069c1.358-0.741,2.854-1.236,4.375-1.342c-1.445,0.463-2.795,1.115-4.022,1.925
			c-1.22,0.817-2.31,1.813-3.146,2.994c-0.854,1.169-1.443,2.52-1.804,3.941C54.803,32.871,54.682,34.367,54.653,35.886z"/>
    <path fill="#29ABE2" d="M29.688,20.187h-0.981c-0.193,0-0.375,0.036-0.552,0.084l0.293,4.032c0.085,0.011,0.171,0.026,0.259,0.026
			h0.981c1.144,0,2.071-0.928,2.071-2.071C31.759,21.114,30.831,20.187,29.688,20.187z"/>
    <path fill="#FFFFFF" d="M6.032,18.66c0.355,0.079,0.699,0.208,1.041,0.327c0.342,0.12,0.69,0.222,1.042,0.299
			c0.706,0.157,1.427,0.239,2.147,0.296c1.444,0.109,2.896,0.116,4.345,0.106c2.903,0.003,5.816,0.068,8.72,0.138l17.432,0.496
			l17.431,0.548l8.715,0.27l2.176,0.113l1.088,0.05c0.36,0.008,0.736,0.036,1.098,0.088c0.729,0.102,1.444,0.295,2.115,0.587
			c0.66,0.302,1.327,0.669,1.765,1.261c-0.464-0.566-1.142-0.896-1.806-1.159c-0.675-0.254-1.384-0.409-2.1-0.473
			c-0.358-0.033-0.711-0.042-1.076-0.032l-1.093,0.005l-2.182-0.005l-8.715-0.27l-17.429-0.549l-17.43-0.496
			c-2.907-0.069-5.806-0.136-8.715-0.138c-1.457-0.052-2.913-0.139-4.362-0.322c-0.723-0.094-1.447-0.212-2.152-0.408
			c-0.351-0.096-0.697-0.217-1.035-0.355C6.716,18.902,6.384,18.756,6.032,18.66z"/>
    <g>
			<path fill="#323332" d="M21.931,39.755l0.666-2.343l3.871-0.082c7.524-0.304,18.893-0.764,31.058,0.082l1.068,2.343
				c-12.045-0.841-24.563-0.549-32.038-0.245L21.931,39.755z"/>
		</g>
    <g>
			<path fill="#050708" d="M10.744,25.073c2.533-0.78,5.366-0.488,7.685,0.797c1.714,0.944,3.136,2.415,4.031,4.167
				c0.742,1.424,1.109,3.03,1.091,4.627c0,0.284-0.01,0.558-0.04,0.838c-0.058,0.546-0.145,1.082-0.281,1.607
				c-0.555,2.152-1.85,4.091-3.623,5.425c-1.667,1.286-3.75,1.967-5.843,2.017h-0.284c-2.094-0.06-4.167-0.741-5.824-2.026
				c-1.87-1.402-3.194-3.497-3.7-5.773c-0.119-0.548-0.196-1.095-0.224-1.648c-0.009-0.292-0.009-0.584,0-0.876
				c0.047-1.47,0.427-2.931,1.1-4.248c1.217-2.334,3.389-4.157,5.911-4.917V25.073z"/>
      <path fill="#323332" d="M5.485,34.684c0-3.583,2.514-6.973,5.882-8.103c-0.537,0.555-1.188,0.972-1.675,1.567
				c-2.483,2.767-3.321,6.8-2.445,10.383c0.187,0.857,0.556,1.656,0.867,2.473c-1.675-1.627-2.687-3.964-2.62-6.32H5.485z"/>
      <path fill="#323332" d="M12.968,28.73c3.368-0.561,6.781,2.261,6.855,5.688c0.258,3.051-2.184,5.949-5.187,6.345
				c-3.366,0.588-6.795-2.263-6.857-5.677c-0.257-3.047,2.186-5.978,5.189-6.338V28.73z"/>
      <path fill="#050708" d="M13.267,30.886c2.163-0.36,4.354,1.45,4.401,3.652c0.166,1.957-1.403,3.819-3.33,4.073
				c-2.161,0.378-4.362-1.452-4.401-3.644c-0.166-1.959,1.403-3.839,3.33-4.07V30.886z"/>
		</g>
    <g>
			<path fill="#050708" d="M63.869,25.073c2.532-0.78,5.365-0.488,7.685,0.797c1.715,0.944,3.136,2.415,4.032,4.167
				c0.74,1.424,1.11,3.03,1.091,4.627c0,0.284-0.011,0.558-0.039,0.838c-0.058,0.546-0.146,1.082-0.282,1.607
				c-0.556,2.152-1.851,4.091-3.623,5.425c-1.666,1.286-3.75,1.967-5.843,2.017h-0.283c-2.094-0.06-4.169-0.741-5.824-2.026
				c-1.87-1.402-3.193-3.497-3.7-5.773c-0.117-0.548-0.195-1.095-0.224-1.648c-0.01-0.292-0.01-0.584,0-0.876
				c0.049-1.47,0.428-2.931,1.1-4.248c1.219-2.334,3.389-4.157,5.911-4.917V25.073z"/>
      <path fill="#323332" d="M58.611,34.684c0-3.583,2.513-6.973,5.882-8.103c-0.536,0.555-1.189,0.972-1.676,1.567
				c-2.483,2.767-3.321,6.8-2.444,10.383c0.186,0.857,0.555,1.656,0.868,2.473c-1.676-1.627-2.689-3.964-2.619-6.32H58.611z"/>
      <path fill="#323332" d="M66.093,28.73c3.367-0.561,6.781,2.261,6.857,5.688c0.257,3.051-2.186,5.949-5.188,6.345
				c-3.367,0.588-6.796-2.263-6.856-5.677c-0.257-3.047,2.185-5.978,5.188-6.338V28.73z"/>
      <path fill="#050708" d="M66.392,30.886c2.163-0.36,4.354,1.45,4.403,3.652c0.166,1.957-1.404,3.819-3.331,4.073
				c-2.161,0.378-4.362-1.452-4.403-3.644c-0.165-1.959,1.404-3.839,3.331-4.07V30.886z"/>
		</g>
    <path fill="#29ABE2" d="M49.076,31.079c-0.275,0.571-0.513,1.148-1.148,1.148H31.649c-0.635,0-0.967-0.487-1.15-1.148
			c-0.178-0.646-0.744-2.568-0.744-2.568c0-0.638,0.515-1.152,1.15-1.152h18.374c0.635,0,1.327,0.541,1.15,1.152
			C50.226,29.206,49.956,29.253,49.076,31.079z"/>
    <path fill="#29ABE2" d="M28.813,31.009c0,0.636-0.515,1.151-1.15,1.151h-1.151c-0.635,0-0.93-0.392-1.149-1.151
			c-0.186-0.641-0.745-2.568-0.745-2.568c0-0.635,0.515-1.15,1.15-1.15h1.149c0.636,0,0.994,0.559,1.151,1.15
			C28.239,29.089,28.813,31.009,28.813,31.009z"/>
    <path fill="#29ABE2" d="M50.697,31.442c0,0.635,0.104,1.148,1.151,1.148H52.5c0.636,0,0.703-0.325,1.15-1.148
			c0.349-0.645,1.422-2.568,1.422-2.568c0-0.636-0.164-1.151-1.151-1.151H53.27c-0.636,0-0.76,0.42-1.15,1.151
			C51.772,29.521,50.697,31.442,50.697,31.442z"/>
	</g>
  <g>
		<path fill="#1B1464" d="M48.58,36.387c-0.091,0-0.189-0.005-0.297-0.017c-3.368-0.35-13.512-0.484-16.199-0.218
			c-0.754,0.119-1.913,0.302-2.143-0.771c-0.02-0.098-2.104-10.249-2.006-15.114c0.094-4.617,0.526-12.498,0.531-12.577
			c0.006-0.12,0.111-0.221,0.23-0.206c0.12,0.007,0.212,0.11,0.206,0.229c-0.004,0.079-0.437,7.953-0.529,12.562
			c-0.098,4.82,1.976,14.917,1.997,15.015c0.109,0.507,0.512,0.612,1.661,0.43c2.715-0.271,12.915-0.135,16.3,0.218
			c0.689,0.069,0.706-0.099,0.741-0.407c1.563-8.023,5.197-10.134,7.368-11.396c0.129-0.075,0.252-0.145,0.368-0.214
			c1.883-1.122,2.627-1.896,2.84-2.963c0.024-0.118,0.139-0.195,0.256-0.17c0.119,0.023,0.196,0.138,0.173,0.256
			c-0.242,1.208-1.039,2.058-3.046,3.252c-0.118,0.069-0.242,0.141-0.372,0.216c-2.107,1.224-5.635,3.272-7.157,11.083
			C49.439,36.147,49.175,36.387,48.58,36.387z"/>
	</g>
</g>
</svg>
