<?xml version="1.0" encoding="utf-8"?><!-- Generator: Adobe Illustrator 15.0.2, SVG Export Plug-In . SVG Version: 6.00 Build 0)  -->
<!DOCTYPE svg PUBLIC "-//W3C//DTD SVG 1.1//EN"
  "http://www.w3.org/Graphics/SVG/1.1/DTD/svg11.dtd">
<svg version="1.1" id="Слой_1" xmlns="http://www.w3.org/2000/svg" x="0px"
     y="0px" width="80px" height="50px" viewBox="0 0 80 50"
     enable-background="new 0 0 80 50" xml:space="preserve">
<g>
	<g>
		<path fill="#050708" d="M13.823,26.484c2.536-0.781,5.373-0.487,7.694,0.8c1.716,0.944,3.139,2.417,4.036,4.173
			c0.742,1.425,1.111,3.032,1.092,4.632c0,0.283-0.009,0.556-0.039,0.838c-0.058,0.546-0.146,1.083-0.283,1.609
			c-0.556,2.155-1.853,4.096-3.627,5.431c-1.667,1.288-3.755,1.97-5.851,2.02h-0.283c-2.097-0.06-4.173-0.741-5.832-2.028
			c-1.872-1.404-3.197-3.501-3.705-5.782c-0.117-0.547-0.195-1.093-0.224-1.649c-0.01-0.291-0.01-0.584,0-0.876
			c0.048-1.472,0.429-2.935,1.102-4.252c1.219-2.339,3.393-4.164,5.918-4.924V26.484z"/>
    <path fill="#323332" d="M8.559,36.107c0-3.588,2.516-6.981,5.89-8.112c-0.537,0.556-1.19,0.975-1.678,1.57
			c-2.486,2.77-3.325,6.807-2.447,10.395c0.186,0.857,0.556,1.657,0.868,2.477c-1.678-1.629-2.691-3.97-2.623-6.329H8.559z"/>
    <path fill="#323332" d="M16.349,32.305c2.166-0.36,4.359,1.453,4.408,3.656c0.166,1.962-1.404,3.824-3.334,4.077
			c-2.165,0.379-4.368-1.453-4.408-3.646c-0.166-1.96,1.404-3.844,3.334-4.076V32.305z"/>
	</g>
  <g>
		<path fill="#050708" d="M55.264,26.484c2.536-0.781,5.373-0.487,7.694,0.8c1.716,0.944,3.14,2.417,4.036,4.173
			c0.742,1.425,1.111,3.032,1.093,4.632c0,0.283-0.01,0.556-0.039,0.838c-0.059,0.546-0.146,1.083-0.283,1.609
			c-0.556,2.155-1.853,4.096-3.627,5.431c-1.667,1.288-3.755,1.97-5.851,2.02h-0.282c-2.097-0.06-4.174-0.741-5.832-2.028
			c-1.872-1.404-3.197-3.501-3.705-5.782c-0.117-0.547-0.195-1.093-0.224-1.649c-0.01-0.291-0.01-0.584,0-0.876
			c0.049-1.472,0.429-2.935,1.102-4.252c1.219-2.339,3.394-4.164,5.918-4.924V26.484z"/>
    <path fill="#323332" d="M49.999,36.107c0-3.588,2.516-6.981,5.89-8.112c-0.537,0.556-1.19,0.975-1.678,1.57
			c-2.486,2.77-3.325,6.807-2.447,10.395c0.186,0.857,0.556,1.657,0.868,2.477c-1.678-1.629-2.69-3.97-2.623-6.329H49.999z"/>
    <path fill="#323332" d="M57.789,32.305c2.166-0.36,4.359,1.453,4.408,3.656c0.166,1.962-1.404,3.824-3.335,4.077
			c-2.164,0.379-4.367-1.453-4.407-3.646c-0.166-1.96,1.404-3.844,3.334-4.076V32.305z"/>
	</g>
  <g>
		<path fill="#29ABE2" d="M48.664,6.826c1.295,0.861,9.926,7.263,12.083,10.932c2.477-0.55,2.65-0.642,3.354-1.278
			c-0.904-1.109-3.29-3.547-5.61-5.413c-2.578-2.071-7.219-5.452-8.681-6.286C49.839,5.496,49.485,6.045,48.664,6.826z"/>
    <path fill="#0071BC" d="M77.22,26.173c-3.238-7.841-11.222-9.637-13.02-9.782c-0.036,0.031-0.066,0.061-0.099,0.089
			c-0.704,0.636-0.878,0.728-3.354,1.278C58.59,14.089,49.959,7.687,48.664,6.826c0.821-0.78,1.175-1.33,1.146-2.044
			c-0.002-0.045,0-0.087-0.006-0.132c-0.052-0.521-1.35-1.129-1.858,0.018c-0.244,0.549-0.46,0.898-1.134,1.411
			c-0.645,0.491-0.493,1.43,0.215,2.104c1.106,1.053,3.265,3.13,5.233,4.829c-0.575,0.647-1.007,1.006-1.87,1.941
			c0,0-28.985,0.073-30.496,0c-0.503-0.719-2.806-3.021-3.668-3.884c-1.583-0.072-1.798,0.504-2.446,0.936
			c-0.791-0.719-0.646-0.504-1.51-1.079c-1.079,0.72-1.869,2.374-2.157,4.675c-2.446,1.438-3.38,4.387-3.525,5.681
			c-3.021,1.655-5.682,6.546-6.474,11.005c-0.79,4.461,2.735,7.408,3.67,7.48c0.934,0.073,3.092-1.366,3.523-2.374
			c-0.287-1.006-0.719-11.22,9.207-11.147c9.925,0.072,10.069,11.437,10.429,13.81c0,0,18.771-0.072,21.649-0.072
			c0-0.936-1.914-9.162,4.486-12.543c6.013-3.175,10.925-0.323,13.234,2.661c1.669,2.157,2.157,6.302,2.13,9.019
			c2.374,0,6.545,0.792,9.494-1.727C81.714,34.17,79.593,28.618,77.22,26.173z"/>
    <path fill="#FFFFFF" d="M28.957,38.473c0.179-2.682-0.172-5.399-1.142-7.874c-0.962-2.473-2.555-4.683-4.611-6.295
			c-2.05-1.622-4.537-2.625-7.097-2.971c-0.641-0.088-1.287-0.139-1.933-0.154c-0.32-0.006-0.652-0.006-0.963,0.005
			c-0.294,0.013-0.607,0.05-0.919,0.098c-0.624,0.098-1.254,0.245-1.871,0.421c-0.606,0.176-1.245,0.389-1.721,0.639L8.685,22.35
			c-0.422,0.223-0.946,0.06-1.167-0.364c-0.221-0.421-0.057-0.944,0.364-1.165c0.016-0.009,0.032-0.016,0.048-0.024
			c0.739-0.332,1.397-0.496,2.089-0.663c0.687-0.155,1.375-0.278,2.083-0.351c0.356-0.036,0.715-0.061,1.093-0.057
			c0.36,0.008,0.7,0.026,1.05,0.05c0.696,0.055,1.391,0.146,2.075,0.279c2.742,0.52,5.357,1.748,7.437,3.583
			c2.088,1.826,3.615,4.227,4.464,6.813C29.079,33.044,29.279,35.804,28.957,38.473z"/>
    <path fill="#FFFFFF" d="M44.852,38.113c-0.071-3.51,0.189-7.119,1.574-10.436c0.69-1.646,1.688-3.191,3.001-4.443
			c1.306-1.258,2.912-2.197,4.618-2.805c1.71-0.611,3.511-0.915,5.307-1.023c1.792-0.106,3.615-0.031,5.404,0.264
			s3.553,0.807,5.227,1.546c0.837,0.371,1.651,0.795,2.434,1.285c0.392,0.244,0.775,0.503,1.149,0.78
			c0.38,0.288,0.723,0.554,1.112,0.929c0.342,0.331,0.353,0.877,0.021,1.221c-0.332,0.342-0.879,0.353-1.222,0.021
			c-0.008-0.007-0.017-0.017-0.026-0.025l-0.021-0.025c-0.235-0.248-0.572-0.544-0.887-0.8c-0.322-0.261-0.66-0.511-1.008-0.748
			c-0.693-0.476-1.428-0.9-2.188-1.276c-1.521-0.751-3.149-1.301-4.825-1.649c-1.679-0.351-3.396-0.498-5.126-0.465
			c-1.724,0.036-3.445,0.256-5.081,0.769c-1.634,0.51-3.174,1.33-4.458,2.469c-1.289,1.135-2.309,2.575-3.043,4.147
			C45.333,31.021,44.917,34.604,44.852,38.113z"/>
    <g>
			<rect x="29.028" y="37.748" fill="#FFFFFF" width="15.896" height="0.871"/>
		</g>
    <path fill="#FCEE21" d="M2.287,26.103c0.36-1.727,2.022-4.758,5.79-5.424c1.177,2.354-0.631,4.521-1.97,5.156
			C3.872,26.895,2.287,26.103,2.287,26.103z"/>
    <path fill="#FCEE21" d="M22.63,18.082c-1.258-1.402-3.128-3.488-3.56-3.993c-0.432-0.503,0-2.732,1.654-2.732
			c1.654,0,2.015,2.013,2.015,3.091C22.739,15.528,22.63,18.082,22.63,18.082z"/>
    <path fill="#FCEE21" d="M33.884,17.973c0,0,0.001-3.884,0.071-4.819c0.072-0.934,1.439-2.301,2.878-1.078
			c1.438,1.223,0.864,3.235,0.719,3.812c0.576,1.006,1.006,2.085,1.006,2.085H33.884z"/>
    <path fill="#FFFFFF" d="M52.404,13.01c1.259,1.102,2.604,2.098,3.672,3.465c0.123,0.183,0.24,0.374,0.314,0.608
			c0.031,0.123,0.065,0.251,0.039,0.413c-0.021,0.109-0.038,0.225-0.107,0.363c-0.158,0.292-0.447,0.372-0.653,0.429
			c-0.222,0.057-0.437,0.083-0.649,0.106c-0.852,0.08-1.688,0.079-2.526,0.083H42.465H32.438l-5.014-0.001l-5.013-0.215l5.013-0.215
			l5.014-0.001h10.026h10.028c0.831-0.003,1.669-0.003,2.482-0.079c0.377-0.039,0.873-0.113,0.965-0.307
			c0.026-0.048,0.048-0.142,0.064-0.237c0.011-0.048-0.006-0.128-0.028-0.206c-0.059-0.162-0.156-0.333-0.262-0.5
			C54.824,15.36,53.56,14.207,52.404,13.01z"/>
    <path fill="#FCEE21" d="M74.629,27.972c-2.086,0.07-4.964-4.173-4.028-5.468c0.936-1.295,5.805,1.896,6.115,2.878
			C77.147,26.748,75.994,27.924,74.629,27.972z"/>
	</g>
  <path fill="#FFFFFF" d="M11.161,13.788c-0.009-0.384,0.111-0.767,0.271-1.116c0.156-0.355,0.366-0.686,0.636-0.983
		c0.067-0.072,0.172-0.086,0.254-0.038l0.019,0.011c1.724,1.011,3.35,2.193,5.021,3.297c1.66,1.124,3.327,2.236,4.93,3.446
		c0.011,0.008,0.012,0.023,0.005,0.035c-0.009,0.009-0.024,0.011-0.035,0.003c-0.82-0.569-1.678-1.09-2.526-1.622l-2.553-1.583
		c-1.692-1.074-3.448-2.04-5.081-3.216l0.273-0.026c-0.494,0.486-0.952,1.093-1.166,1.801c-0.003,0.012-0.017,0.02-0.03,0.016
		C11.168,13.809,11.161,13.798,11.161,13.788z"/>
</g>
</svg>
