<?xml version="1.0" encoding="utf-8"?><!-- Generator: Adobe Illustrator 15.0.2, SVG Export Plug-In . SVG Version: 6.00 Build 0)  -->
<!DOCTYPE svg PUBLIC "-//W3C//DTD SVG 1.1//EN"
  "http://www.w3.org/Graphics/SVG/1.1/DTD/svg11.dtd">
<svg version="1.1" id="Слой_1" xmlns="http://www.w3.org/2000/svg" x="0px"
     y="0px" width="80px" height="48px" viewBox="0 0 80 48"
     enable-background="new 0 0 80 48" xml:space="preserve">
<g>
	<g>
		<path fill="#050708" d="M14.204,28.992c2.108-0.65,4.467-0.405,6.398,0.665c1.427,0.786,2.611,2.011,3.356,3.471
			c0.618,1.185,0.924,2.521,0.909,3.852c0,0.236-0.008,0.463-0.032,0.697c-0.049,0.454-0.122,0.901-0.236,1.338
			c-0.462,1.794-1.541,3.407-3.016,4.518c-1.386,1.07-3.123,1.637-4.866,1.679h-0.236c-1.744-0.05-3.47-0.616-4.849-1.687
			c-1.557-1.167-2.66-2.912-3.082-4.809c-0.097-0.454-0.162-0.909-0.185-1.372c-0.009-0.241-0.009-0.486,0-0.729
			c0.04-1.224,0.356-2.44,0.915-3.537c1.015-1.944,2.822-3.462,4.923-4.094V28.992z"/>
    <path fill="#323332" d="M9.825,36.995c0-2.983,2.092-5.807,4.898-6.746c-0.447,0.462-0.99,0.811-1.396,1.307
			c-2.068,2.303-2.765,5.66-2.035,8.645c0.154,0.712,0.462,1.377,0.722,2.059c-1.396-1.354-2.239-3.301-2.182-5.264H9.825z"/>
    <path fill="#323332" d="M16.304,33.833c1.801-0.299,3.626,1.207,3.666,3.04c0.138,1.632-1.167,3.181-2.772,3.392
			c-1.801,0.314-3.632-1.208-3.667-3.033c-0.138-1.63,1.168-3.196,2.773-3.389V33.833z"/>
	</g>
  <g>
		<path fill="#050708" d="M63.285,28.992c2.108-0.65,4.468-0.405,6.398,0.665c1.427,0.786,2.611,2.011,3.357,3.471
			c0.617,1.185,0.924,2.521,0.908,3.852c0,0.236-0.008,0.463-0.032,0.697c-0.048,0.454-0.121,0.901-0.235,1.338
			c-0.462,1.794-1.541,3.407-3.017,4.518c-1.386,1.07-3.123,1.637-4.865,1.679h-0.236c-1.743-0.05-3.47-0.616-4.849-1.687
			c-1.557-1.167-2.66-2.912-3.082-4.809c-0.097-0.454-0.162-0.909-0.186-1.372c-0.009-0.241-0.009-0.486,0-0.729
			c0.04-1.224,0.356-2.44,0.916-3.537c1.014-1.944,2.821-3.462,4.922-4.094V28.992z"/>
    <path fill="#323332" d="M58.906,36.995c0-2.983,2.092-5.807,4.898-6.746c-0.446,0.462-0.99,0.811-1.396,1.307
			c-2.068,2.303-2.765,5.66-2.035,8.645c0.154,0.712,0.462,1.377,0.723,2.059c-1.396-1.354-2.239-3.301-2.183-5.264H58.906z"/>
    <path fill="#323332" d="M65.386,33.833c1.8-0.299,3.625,1.207,3.665,3.04c0.138,1.632-1.168,3.181-2.772,3.392
			c-1.801,0.314-3.633-1.208-3.666-3.033c-0.139-1.63,1.167-3.196,2.773-3.389V33.833z"/>
	</g>
  <path fill="#0071BC" d="M77.618,22.804c-0.858-2.576-1.975-3.435-4.809-4.378c-2.833-0.944-15.022-1.545-17.255-1.717
		c-0.773-1.202-3.177-7.04-4.55-9.786c-1.374-2.747-3.863-4.292-6.267-4.121S29.972,2.715,22.847,3.144
		C15.721,3.574,9.97,11.815,6.021,19.199c-3.949,7.382-4.99,12.995-5.441,18.145c0,0,2.753-0.021,5.146-0.012
		c0.618-2.047,1.602-5.572,5.896-5.687c4.829-0.128,6.632,0,9.271,0.065c2.566,0.062,4.127,1.829,6.224,7.483
		c5.776-0.028,21.575-0.146,27.943-0.163c1.216-6.014,2.261-8.634,7.619-10.218c3.853-1.14,9.53-0.387,11.525,3.391
		c0.72,1.361,1.155,3.741,1.421,6.969c0.432,0.013,0.532,0.113,0.532,0.113s1.03-4.55,1.802-7.554
		C78.733,28.728,78.476,25.38,77.618,22.804z M29.102,19.38c0,1.031-0.16,2.704-1.996,2.704c-1.835,0-11.75-0.064-13.489-0.064
		s-2.092-1.32-1.706-3.059c0.386-1.739,3.895-9.465,6.213-10.914c2.318-1.448,4.668-1.803,8.821-1.384
		c1.48,0.129,2.221,1.255,2.221,2.769C29.167,11.429,29.102,18.35,29.102,19.38z M51.702,22.053c-1.803,0-15.259,0.032-16.772,0.032
		c-1.513,0-2.479-1.448-2.479-2.511c0-1.512,0-10.43,0-10.43c0-1.384,1.095-2.641,2.447-2.641c1.353,0,8.113-0.064,9.593-0.064
		c1.481,0,3.574,0.708,4.443,2.607c0.869,1.9,3.542,8.338,4.088,9.98C53.569,20.668,53.505,22.053,51.702,22.053z"/>
  <path fill="#FFFFFF"
        d="M53.026,22.943c2.962-0.966,8.409-2.336,20.296-1.26c2.97,0.269,3.935,1.271,3.189,1.271L53.026,22.943z"/>
  <path fill="#C1272D" d="M26.946,6.664c-4.153-0.418-6.503-0.064-8.821,1.384c-2.318,1.449-5.827,9.175-6.213,10.914
		c-0.386,1.738-0.033,3.059,1.706,3.059s11.654,0.064,13.489,0.064c1.835,0,1.996-1.673,1.996-2.704c0-1.03,0.065-7.952,0.065-9.948
		C29.167,7.919,28.427,6.793,26.946,6.664z"/>
  <path fill="#FFFFFF" d="M26.946,6.664c-4.153-0.418-6.503-0.064-8.821,1.384c-2.318,1.449-5.827,9.175-6.213,10.914
		c-0.386,1.738-0.033,3.059,1.706,3.059s11.654,0.064,13.489,0.064c1.835,0,1.996-1.673,1.996-2.704c0-1.03,0.065-7.952,0.065-9.948
		C29.167,7.919,28.427,6.793,26.946,6.664z"/>
  <path fill="#C1272D" d="M48.934,9.046c-0.869-1.899-2.962-2.607-4.443-2.607c-1.479,0-8.24,0.064-9.593,0.064
		c-1.352,0-2.447,1.256-2.447,2.641c0,0,0,8.917,0,10.43c0,1.063,0.966,2.511,2.479,2.511c1.514,0,14.97-0.032,16.772-0.032
		s1.867-1.384,1.319-3.026C52.476,17.384,49.803,10.946,48.934,9.046z"/>
  <path fill="#FFFFFF" d="M48.934,9.046c-0.869-1.899-2.962-2.607-4.443-2.607c-1.479,0-8.24,0.064-9.593,0.064
		c-1.352,0-2.447,1.256-2.447,2.641c0,0,0,8.917,0,10.43c0,1.063,0.966,2.511,2.479,2.511c1.514,0,14.97-0.032,16.772-0.032
		s1.867-1.384,1.319-3.026C52.476,17.384,49.803,10.946,48.934,9.046z"/>
  <g>
		<path fill="#B5B5B6" d="M4.314,34.64c0,0.711-0.577,1.288-1.287,1.288H1.288C0.577,35.928,0,35.351,0,34.64v-3.412
			c0-0.712,0.577-1.287,1.288-1.287h1.739c0.71,0,1.287,0.575,1.287,1.287V34.64z"/>
    <path fill="#FFFFFF" d="M1.417,34.029v-2.19c0-0.456,0.37-0.827,0.826-0.827H1.6c-0.457,0-0.827,0.371-0.827,0.827v2.19
			c0,0.456,0.37,0.826,0.827,0.826h0.644C1.787,34.855,1.417,34.485,1.417,34.029z"/>
	</g>
  <g>
		<path fill="#B5B5B6" d="M4.861,27.664c0,0.574-0.412,1.04-0.922,1.04H2.694c-0.51,0-0.923-0.466-0.923-1.04v-2.757
			c0-0.574,0.414-1.04,0.923-1.04h1.246c0.51,0,0.922,0.466,0.922,1.04V27.664z"/>
    <path fill="#FFFFFF" d="M3.059,27.07v-1.569c0-0.326,0.235-0.593,0.525-0.593H2.962c-0.291,0-0.525,0.267-0.525,0.593v1.569
			c0,0.327,0.235,0.593,0.525,0.593h0.622C3.294,27.663,3.059,27.397,3.059,27.07z"/>
	</g>
  <g>
		<path fill="#B5B5B6" d="M75.363,36.766c0,0.71,0.577,1.287,1.289,1.287h1.737c0.712,0,1.288-0.577,1.288-1.287v-3.413
			c0-0.711-0.576-1.287-1.288-1.287h-1.737c-0.712,0-1.289,0.576-1.289,1.287V36.766z"/>
    <path fill="#FFFFFF" d="M78.262,36.154v-2.19c0-0.456-0.37-0.826-0.827-0.826h0.645c0.456,0,0.826,0.37,0.826,0.826v2.19
			c0,0.456-0.37,0.826-0.826,0.826h-0.645C77.892,36.98,78.262,36.61,78.262,36.154z"/>
	</g>
  <g>
		<path fill="#B5B5B6" d="M76.909,26.714c0,0.575,0.412,1.041,0.922,1.041h1.246c0.51,0,0.923-0.466,0.923-1.041v-2.755
			c0-0.575-0.413-1.041-0.923-1.041h-1.246c-0.51,0-0.922,0.466-0.922,1.041V26.714z"/>
    <path fill="#FFFFFF" d="M78.712,26.121v-1.569c0-0.328-0.235-0.593-0.525-0.593h0.622c0.291,0,0.525,0.265,0.525,0.593v1.569
			c0,0.327-0.234,0.592-0.525,0.592h-0.622C78.477,26.713,78.712,26.448,78.712,26.121z"/>
	</g>
  <path fill="#FFFFFF" d="M24.985,4.411c-1.832,0.242-3.68,0.528-5.293,1.327C18.078,6.529,16.763,7.8,15.619,9.21
		c-1.16,1.406-2.184,2.939-3.232,4.457c-1.039,1.525-2.055,3.072-3.14,4.578c0.819-1.665,1.713-3.287,2.656-4.886
		c0.941-1.6,1.957-3.161,3.141-4.623c1.186-1.437,2.624-2.8,4.414-3.519C21.232,4.481,23.14,4.349,24.985,4.411z"/>
  <path fill="#FFFFFF" d="M6.596,31.168c0.542-0.7,1.216-1.356,2.096-1.724c0.879-0.35,1.809-0.433,2.703-0.482
		c1.786-0.086,3.554-0.103,5.332-0.114l2.663,0.026c0.868,0.036,1.807-0.009,2.727,0.225c0.911,0.207,1.774,0.594,2.527,1.125
		c0.371,0.273,0.716,0.578,1.017,0.923c0.293,0.341,0.583,0.729,0.651,1.181c-0.401-0.792-1.176-1.293-1.924-1.689
		c-0.76-0.398-1.582-0.653-2.415-0.777c-0.828-0.123-1.68-0.064-2.583-0.045l-2.663,0.026c-1.773-0.009-3.556-0.034-5.321-0.107
		c-0.874-0.018-1.746-0.038-2.561,0.169C8.016,30.079,7.298,30.62,6.596,31.168z"/>
  <path fill="#FFFFFF" d="M54.134,35.507c-0.333-2.854,1.047-5.903,3.448-7.688c1.208-0.884,2.646-1.433,4.101-1.604
		c1.457-0.19,2.92-0.018,4.287,0.375c-1.425-0.012-2.823,0.089-4.152,0.39c-1.325,0.31-2.579,0.84-3.646,1.639
		c-1.079,0.782-1.961,1.823-2.647,2.994C54.859,32.795,54.341,34.098,54.134,35.507z"/>
  <path fill="#323332" d="M74.205,32.204c-1.995-3.777-7.673-4.53-11.525-3.391c-4.886,1.444-6.185,3.758-7.297,8.712H26.465
		c-1.787-4.334-3.279-5.76-5.571-5.814c-2.64-0.065-4.442-0.193-9.271-0.065c-4.295,0.114-5.278,3.64-5.896,5.687
		c0.523,0.002,1.03,0.006,1.486,0.012c1.165-3.359,2.594-4.478,5.119-4.378c1.448,0.058,2.962,0.054,7.425,0.054
		c4.464,0,4.98,4.636,5.581,6.182h0.001v0.002h31.344l0.052-0.287c0.741-4.275,1.65-5.966,3.334-7.293
		c1.541-1.214,3.349-1.863,5.653-1.863c5.279,0,6.746,2.487,7.604,3.947c0.858,1.459,0.688,4.463,1.116,5.579
		c0.548-0.096,0.925-0.12,1.185-0.113C75.36,35.945,74.925,33.565,74.205,32.204z"/>
</g>
</svg>
