<svg xmlns="http://www.w3.org/2000/svg" width="80" height="48">
  <path fill="#050708"
        d="M14.2 31.64a8.3 8.3 0 016.4.66 8.28 8.28 0 01.98 13.88 8.32 8.32 0 01-4.86 1.68h-.24a8.3 8.3 0 01-2.28-16.23z"/>
  <path fill="#323332"
        d="M9.82 39.64c0-2.98 2.1-5.8 4.9-6.75-.44.47-.99.82-1.4 1.31a9.67 9.67 0 00-2.03 8.65c.16.7.46 1.37.72 2.06a7.17 7.17 0 01-2.18-5.27zM16.3 36.48a3.25 3.25 0 01.9 6.43 3.24 3.24 0 01-.9-6.42z"/>
  <path fill="#050708"
        d="M63.28 31.64a8.3 8.3 0 016.4.66 8.3 8.3 0 01-3.88 15.56h-.24a8.3 8.3 0 01-2.28-16.23z"/>
  <path fill="#323332"
        d="M58.9 39.64c0-2.98 2.1-5.8 4.9-6.75-.44.47-.99.82-1.4 1.31a9.67 9.67 0 00-2.03 8.65c.16.7.47 1.37.73 2.06a7.17 7.17 0 01-2.19-5.27zM65.39 36.48a3.25 3.25 0 01.89 6.43 3.24 3.24 0 01-.9-6.42z"/>
  <path fill="#0071bc"
        d="M77.62 25.45c-.86-2.58-1.98-3.44-4.81-4.38-2.83-.94-15.02-1.54-17.26-1.72-.77-1.2-3.17-7.04-4.55-9.78-1.37-2.75-3.86-4.3-6.26-4.12-2.4.17-14.77-.09-21.9.34-7.12.43-12.87 8.67-16.82 16.05A43.99 43.99 0 00.58 40s2.75-.02 5.15-.01c.61-2.05 1.6-5.57 5.9-5.69 4.82-.13 6.62 0 9.26.07 2.57.06 4.13 1.82 6.23 7.48 5.77-.03 21.57-.15 27.94-.16 1.22-6.02 2.26-8.64 7.62-10.22 3.85-1.14 9.53-.39 11.52 3.39.72 1.36 1.16 3.74 1.43 6.97.43.01.53.11.53.11s1.03-4.55 1.8-7.55.52-6.35-.34-8.93zM29.1 22.03c0 1.03-.16 2.7-2 2.7l-13.48-.06c-1.74 0-2.1-1.32-1.7-3.06.38-1.74 3.89-9.47 6.2-10.92 2.32-1.45 4.67-1.8 8.82-1.38 1.48.13 2.23 1.25 2.23 2.77 0 2-.07 8.92-.07 9.95zm22.6 2.67l-16.77.03c-1.51 0-2.48-1.45-2.48-2.51V11.79c0-1.38 1.1-2.64 2.45-2.64s8.11-.07 9.6-.07c1.47 0 3.56.71 4.43 2.61.87 1.9 3.55 8.34 4.1 9.98.54 1.64.47 3.03-1.33 3.03z"/>
  <path fill="#ffffff"
        d="M23.6 7.05c-1.4.05-2.81.26-4.14.81a11.5 11.5 0 00-4.42 3.52A37.45 37.45 0 0011.9 16a73.44 73.44 0 00-2.65 4.9c1.08-1.52 2.1-3.06 3.14-4.59 1.04-1.52 2.07-3.05 3.23-4.45a12.45 12.45 0 014.07-3.48c1.61-.8 3.46-1.08 5.3-1.32-.47-.02-.93-.02-1.4 0zm41.95 16.89c-6.68-.03-10.3.92-12.52 1.65l23.48.01c.75 0-.22-1-3.19-1.27a89.87 89.87 0 00-7.77-.4zm-2.77 4.84a9.32 9.32 0 00-5.2 1.68 8.62 8.62 0 00-3.45 7.7c.21-1.42.73-2.72 1.4-3.9a9.74 9.74 0 012.64-3 9.76 9.76 0 013.65-1.64c1.33-.3 2.73-.4 4.15-.38a11.1 11.1 0 00-3.2-.46zM16.73 31.5c-1.78.02-3.55.03-5.34.12-.89.05-1.82.13-2.7.48a5.3 5.3 0 00-2.1 1.72 5.79 5.79 0 012.26-1.26c.81-.2 1.68-.19 2.56-.17 1.76.07 3.54.1 5.32.1l2.66-.02c.9-.02 1.75-.08 2.58.05.84.12 1.66.38 2.42.78.75.4 1.52.9 1.92 1.68a2.47 2.47 0 00-.65-1.18c-.3-.34-.64-.65-1.02-.92a7.15 7.15 0 00-2.52-1.13c-.92-.23-1.86-.18-2.73-.22l-2.66-.03z"/>
  <path fill="#d7eef4"
        d="M44.49 9.08c-1.48 0-8.24.07-9.6.07-1.34 0-2.44 1.25-2.44 2.64v10.43c0 1.06.97 2.51 2.48 2.51l16.77-.03c1.8 0 1.87-1.39 1.32-3.03-.54-1.64-3.22-8.08-4.09-9.98-.87-1.9-2.96-2.6-4.44-2.6zm-20.35.07c-2.52-.01-4.28.46-6.02 1.54-2.31 1.45-5.82 9.18-6.2 10.92-.4 1.74-.04 3.06 1.7 3.06l13.49.06c1.83 0 2-1.67 2-2.7 0-1.03.06-7.96.06-9.95 0-1.52-.74-2.64-2.22-2.77-1.04-.1-1.97-.16-2.8-.16z"/>
  <path fill="#b5b5b6"
        d="M77.83 25.56c-.51 0-.92.47-.92 1.05v2.75c0 .57.41 1.04.92 1.04h1.25c.5 0 .92-.47.92-1.04V26.6c0-.58-.41-1.05-.92-1.05h-1.25zm-75.14.95c-.5 0-.92.47-.92 1.04v2.76c0 .57.41 1.04.92 1.04h1.25c.5 0 .92-.47.92-1.04v-2.76c0-.57-.41-1.04-.92-1.04H2.69zM1.3 32.6c-.71 0-1.29.57-1.29 1.28v3.42c0 .7.58 1.28 1.29 1.28h1.74c.7 0 1.28-.57 1.28-1.28v-3.42c0-.7-.57-1.28-1.28-1.28H1.29zm75.36 2.12c-.71 0-1.29.58-1.29 1.29v3.41c0 .71.58 1.29 1.3 1.29h1.73c.71 0 1.29-.58 1.29-1.29V36c0-.71-.58-1.29-1.3-1.29h-1.73z"/>
  <path fill="#ffffff"
        d="M78.19 26.6c.29 0 .52.27.52.6v1.57c0 .32-.23.59-.52.59h.62c.29 0 .52-.27.52-.6V27.2c0-.33-.23-.6-.52-.6h-.62zm-75.23.95c-.29 0-.52.27-.52.6v1.56c0 .33.23.6.52.6h.62c-.29 0-.52-.27-.52-.6v-1.56c0-.33.23-.6.52-.6h-.62zm-1.36 6.1a.83.83 0 00-.83.83v2.2c0 .45.37.82.83.82h.64a.83.83 0 01-.82-.83v-2.19c0-.45.37-.82.82-.82H1.6zm75.84 2.13c.45 0 .82.37.82.83v2.19c0 .45-.37.83-.82.83h.64c.46 0 .83-.38.83-.83v-2.2a.83.83 0 00-.83-.82h-.64z"/>
  <path fill="#323332"
        d="M74.2 34.85c-1.99-3.78-7.67-4.53-11.52-3.4-4.89 1.45-6.18 3.77-7.3 8.72H26.46c-1.78-4.33-3.27-5.76-5.57-5.81-2.64-.07-4.44-.2-9.27-.07-4.3.12-5.28 3.64-5.9 5.69l1.5.01c1.16-3.36 2.59-4.48 5.11-4.38 1.45.06 2.96.06 7.43.06 4.46 0 4.98 4.63 5.58 6.18h31.34l.06-.29c.74-4.27 1.64-5.96 3.33-7.29a8.73 8.73 0 015.65-1.86c5.28 0 6.75 2.48 7.6 3.94.86 1.46.7 4.47 1.12 5.58.55-.1.93-.12 1.19-.1-.27-3.24-.7-5.62-1.42-6.98z"/>
</svg>
