<?xml version="1.0" encoding="utf-8"?><!-- Generator: Adobe Illustrator 15.0.2, SVG Export Plug-In . SVG Version: 6.00 Build 0)  -->
<!DOCTYPE svg PUBLIC "-//W3C//DTD SVG 1.1//EN"
  "http://www.w3.org/Graphics/SVG/1.1/DTD/svg11.dtd">
<svg version="1.1" id="Слой_1" xmlns="http://www.w3.org/2000/svg" x="0px"
     y="0px" width="80px" height="48px" viewBox="0 0 80 48"
     enable-background="new 0 0 80 48" xml:space="preserve">
<path fill="#0071BC" d="M5.294,38.132c-4.747,0-6.646-2.968-4.272-5.937C1.259,28.044,1.971,4.07,12.059,3.002
	c2.254-2.373,0.949-2.967,21.718-2.967s19.7,1.186,21.48,3.56c3.086,1.068,5.578,1.306,9.257,17.09
	c6.053,0,12.579-0.831,14.006,12.461c2.254,1.188,2.254,5.578-2.256,5.695C70.448,38.962,5.294,38.132,5.294,38.132z"/>
  <path fill="#29ABE2" d="M62.734,21.672c0,1.487-1.207,2.692-2.691,2.692H42.521c-1.486,0-2.691-1.205-2.691-2.692V7.474
	c0-1.486,1.205-2.692,2.691-2.692h10.521c1.485,0,3.958-0.052,5.776,5.104C60.242,13.92,62.734,21.672,62.734,21.672z"/>
  <path fill="#FFFFFF" d="M76.382,33.109c0,0.609-0.663,1.104-1.481,1.104l0,0c-0.82,0-1.483-0.494-1.483-1.104v-3.885
	c0-0.609,0.663-1.104,1.483-1.104l0,0c0.818,0,1.481,0.494,1.481,1.104V33.109z"/>
  <path fill="#FFFFFF" d="M5.769,30.416c0,0.757-0.691,1.369-1.542,1.369l0,0c-0.853,0-1.543-0.612-1.543-1.369v-2.841
	c0-0.755,0.691-1.368,1.543-1.368l0,0c0.852,0,1.542,0.613,1.542,1.368V30.416z"/>
  <path fill="#FFFFFF" d="M36.625,4.307c-1.458,0.199-2.92,0.306-4.381,0.446l-4.379-0.075l-8.751-0.182
	c-1.454-0.027-2.923-0.07-4.36-0.07c-1.412-0.02-2.737,0.33-3.791,1.2c-1.06,0.849-1.84,2.052-2.457,3.32
	c-0.759,1.21-1.34,2.551-1.907,3.905c0.198-1.458,0.547-2.896,1.053-4.318c0.653-1.342,1.491-2.662,2.718-3.649
	c0.609-0.491,1.321-0.876,2.079-1.104c0.756-0.232,1.547-0.299,2.294-0.304c1.481,0,2.929,0.042,4.391,0.071l8.749,0.181
	l4.373,0.066C33.711,3.971,35.167,4.107,36.625,4.307z"/>
  <g>
	<g>
		<path d="M23.452,26.923c-5.012,0-9.086-4.076-9.086-9.086c0-5.01,4.076-9.086,9.086-9.086c5.01,0,9.086,4.076,9.086,9.086
			C32.54,22.849,28.462,26.923,23.452,26.923z M23.452,10.343c-4.132,0-7.495,3.361-7.495,7.494s3.361,7.495,7.495,7.495
			c4.133,0,7.494-3.362,7.494-7.495S27.585,10.343,23.452,10.343z"/>
	</g>
    <g>
		<g>
			<rect x="17.518" y="16.259" fill="#FFFFFF" width="1.698" height="1.697"/>
      <rect x="29.391" y="17.957" fill="#FFFFFF" width="1.691" height="1.695"/>
      <rect x="17.518" y="19.651" fill="#FFFFFF" width="1.698" height="1.697"/>
      <rect x="22.605" y="17.957" fill="#FFFFFF" width="1.696" height="1.695"/>
      <rect x="20.908" y="19.651" fill="#FFFFFF" width="1.697" height="1.697"/>
      <rect x="24.302" y="19.651" fill="#FFFFFF" width="1.695" height="1.697"/>
      <rect x="25.997" y="17.957" fill="#FFFFFF" width="1.697" height="1.695"/>
      <rect x="19.216" y="17.957" fill="#FFFFFF" width="1.692" height="1.695"/>
      <rect x="20.908" y="16.259" fill="#FFFFFF" width="1.697" height="1.697"/>
      <rect x="27.694" y="19.651" fill="#FFFFFF" width="1.697" height="1.697"/>
      <rect x="27.694" y="16.259" fill="#FFFFFF" width="1.697" height="1.697"/>
      <rect x="24.302" y="16.259" fill="#FFFFFF" width="1.695" height="1.697"/>
      <rect x="15.823" y="17.957" fill="#FFFFFF" width="1.695" height="1.695"/>
      <rect x="29.391" y="19.651" width="1.691" height="1.697"/>
      <rect x="29.391" y="16.259" width="1.691" height="1.697"/>
      <rect x="17.518" y="17.957" width="1.698" height="1.695"/>
      <rect x="20.908" y="17.957" width="1.697" height="1.695"/>
      <rect x="24.302" y="17.957" width="1.695" height="1.695"/>
      <rect x="22.605" y="19.651" width="1.696" height="1.697"/>
      <rect x="25.997" y="19.651" width="1.697" height="1.697"/>
      <rect x="22.605" y="16.259" width="1.696" height="1.697"/>
      <rect x="19.216" y="19.651" width="1.692" height="1.697"/>
      <rect x="19.216" y="16.259" width="1.692" height="1.697"/>
      <rect x="27.694" y="17.957" width="1.697" height="1.695"/>
      <rect x="25.997" y="16.259" width="1.697" height="1.697"/>
      <rect x="15.823" y="16.259" width="1.695" height="1.697"/>
      <rect x="15.823" y="19.651" width="1.695" height="1.697"/>
		</g>
      <g>
			<path
        d="M22.61,15.607h-3.863V14.21h9.404v1.397H24.27v7.735h-1.66V15.607z"/>
		</g>
	</g>
</g>
  <g>
	<path fill="#050708" d="M60.117,29.15c2.447-0.754,5.184-0.471,7.424,0.771c1.654,0.911,3.027,2.332,3.895,4.024
		c0.715,1.375,1.071,2.927,1.055,4.47c0,0.274-0.01,0.537-0.038,0.81c-0.056,0.526-0.142,1.045-0.272,1.553
		c-0.537,2.08-1.787,3.951-3.5,5.24c-1.607,1.241-3.621,1.898-5.645,1.946h-0.271c-2.023-0.057-4.027-0.715-5.627-1.956
		c-1.807-1.354-3.085-3.378-3.574-5.578c-0.112-0.527-0.188-1.056-0.217-1.592c-0.009-0.281-0.009-0.564,0-0.846
		c0.047-1.42,0.414-2.831,1.063-4.104c1.176-2.256,3.272-4.017,5.709-4.75L60.117,29.15L60.117,29.15z"/>
    <path fill="#323332" d="M55.038,38.436c0-3.463,2.428-6.736,5.683-7.828c-0.519,0.537-1.147,0.94-1.619,1.517
		c-2.397,2.672-3.207,6.567-2.36,10.028c0.18,0.826,0.536,1.599,0.838,2.389c-1.618-1.57-2.597-3.829-2.531-6.105H55.038
		L55.038,38.436z"/>
    <path fill="#323332" d="M62.555,34.766c2.09-0.348,4.205,1.401,4.252,3.527c0.16,1.893-1.354,3.689-3.217,3.934
		c-2.089,0.366-4.215-1.4-4.253-3.519c-0.16-1.892,1.354-3.707,3.218-3.933V34.766z"/>
</g>
  <g>
	<path fill="#050708" d="M19.666,29.15c2.446-0.754,5.183-0.471,7.423,0.771c1.656,0.911,3.029,2.332,3.895,4.024
		c0.716,1.375,1.072,2.927,1.054,4.47c0,0.274-0.009,0.537-0.038,0.81c-0.056,0.526-0.141,1.045-0.273,1.553
		c-0.537,2.08-1.788,3.951-3.499,5.24c-1.609,1.241-3.623,1.898-5.645,1.946H22.31c-2.023-0.057-4.027-0.715-5.626-1.956
		c-1.806-1.354-3.085-3.378-3.575-5.578c-0.113-0.527-0.188-1.056-0.216-1.592c-0.009-0.281-0.009-0.564,0-0.846
		c0.047-1.42,0.413-2.831,1.063-4.104c1.176-2.256,3.273-4.017,5.709-4.75L19.666,29.15L19.666,29.15z"/>
    <path fill="#323332" d="M14.586,38.436c0-3.463,2.427-6.736,5.682-7.828c-0.518,0.537-1.148,0.94-1.619,1.517
		c-2.398,2.672-3.208,6.567-2.361,10.028c0.179,0.826,0.536,1.599,0.838,2.389c-1.619-1.57-2.597-3.829-2.531-6.105H14.586
		L14.586,38.436z"/>
    <path fill="#323332" d="M22.103,34.766c2.089-0.348,4.206,1.401,4.252,3.527c0.16,1.893-1.355,3.689-3.217,3.934
		c-2.088,0.366-4.214-1.4-4.252-3.519c-0.16-1.892,1.355-3.707,3.217-3.933V34.766z"/>
</g>
  <path fill="#FFFFFF" d="M65.506,22.633c0.93-0.195,1.868-0.284,2.822-0.261c0.952,0.019,1.919,0.169,2.849,0.502
	c0.921,0.345,1.802,0.897,2.437,1.67c0.644,0.761,1.029,1.695,1.145,2.636c-0.486-0.816-1.018-1.55-1.674-2.127
	c-0.654-0.575-1.409-1.004-2.232-1.298C69.205,23.138,67.361,23.005,65.506,22.633z"/>
</svg>
