<svg version="1.1" xmlns="http://www.w3.org/2000/svg" width="80" height="48">
  <path fill="#922"
        d="m 32.6 0.37 c 7.3 -0.61 15.53 -0.91 21.67 3.74 3.46 2.53 5.66 6.28 7.29 10.16 1.3 2.6 4.91 2.05 7.26 3.14 5.14 1.66 8.92 6.87 8.52 12.33 0.77 2.68 -0.77 3.43 -3.19 3.11 C 56.45 33.47 38.73 33.06 21.05 32.26 14.87 31.86 8.63 31.79 2.54 30.59 2.36 23.98 4.54 17.28 8.88 12.25 13.68 5.96 21.1 2.08 28.84 0.88 30.09 0.66 31.34 0.49 32.6 0.37 z"/>
  <path fill="#ffffff"
        d="m 36.93 2.6 c 1.53 -0.24 3.08 -0.09 4.62 0.06 2.01 0.25 4.02 0.6 5.96 1.2 1.56 0.53 3.04 1.29 4.44 2.17 2.02 1.3 3.9 2.92 5.2 4.99 0.89 1.42 1.46 3.14 1.23 4.84 -0.14 0.92 -0.7 1.77 -1.51 2.21 -1.28 0.73 -2.79 0.85 -4.22 0.94 -1.8 0.03 -3.6 0.01 -5.4 -0.07 -1.8 0 -3.61 0 -5.41 0 -1.65 -0.06 -3.33 -0.11 -4.94 -0.56 -0.66 -0.19 -1.34 -0.5 -1.72 -1.11 -0.68 -1.08 -0.79 -2.4 -0.86 -3.65 0.01 -2.76 -0.41 -5.55 0.08 -8.29 0.16 -0.76 0.39 -1.57 0.96 -2.12 0.44 -0.37 1.02 -0.51 1.58 -0.61 z"/>
  <path fill="#ffffff"
        d="M 13.65 9 C 16.38 6.54 19.58 4.63 23.02 3.38 17.82 5.98 13.13 9.72 9.7 14.43 7.99 16.88 6.5 19.54 5.69 22.44 5.06 24.83 4.68 27.29 3.99 29.66 3.92 27.34 4.29 25.02 4.87 22.77 5.44 20.66 6.17 18.58 7.28 16.69 9.07 13.87 11.16 11.23 13.65 9 z"/>
  <path fill="#ffffff"
        d="m 28.25 3.55 c 0.95 -0.1 2.04 -0.27 2.88 0.29 0.6 0.55 0.72 1.42 0.82 2.19 0.2 1.75 0 3.52 -0.07 5.28 -0.17 1.71 0.12 3.51 -0.58 5.13 -0.29 0.74 -1.06 1.11 -1.78 1.28 -2.05 0.5 -4.17 0.34 -6.26 0.36 -2.01 -0.04 -4.03 0.25 -6.02 -0.1 -0.98 -0.17 -2 -0.63 -2.47 -1.56 -0.51 -1.01 -0.46 -2.21 -0.22 -3.28 0.47 -1.9 1.75 -3.48 3.2 -4.74 2.98 -2.53 6.67 -4.19 10.5 -4.86 z"/>
  <path fill="#ffffff"
        d="m 72.42 22.36 c 0.51 -0.25 1.11 -0.04 1.55 0.26 0.87 0.65 1.43 1.64 1.77 2.66 0.34 1.09 0.49 2.3 0.08 3.4 -0.19 0.49 -0.56 0.97 -1.1 1.07 -0.73 0.12 -1.39 -0.35 -1.86 -0.86 -1.03 -1.19 -1.56 -2.79 -1.52 -4.37 0.06 -0.81 0.29 -1.77 1.08 -2.16 z"/>
  <path fill="#b5b5b6"
        d="m 2.54 30.59 c 2.05 0.47 4.15 0.68 6.24 0.88 2.11 0.19 4.23 0.37 6.35 0.47 -0.96 1.37 -1.56 2.98 -1.75 4.63 -1.68 0.04 -3.36 -0.12 -5.04 -0.15 -2.06 -0.04 -4.12 -0.22 -6.19 -0.09 0.77 0.27 1.58 0.35 2.38 0.53 2.89 0.58 5.84 0.75 8.78 1.01 0.02 0.54 0.05 1.09 0.14 1.62 C 10.28 39.36 7.12 39 4.02 38.38 2.81 38.17 1.71 37.44 0.98 36.46 0.17 35.36 -0.11 33.88 0.25 32.56 0.56 31.52 1.51 30.81 2.54 30.59 z"/>
  <path fill="#b5b5b6"
        d="m 64.63 33.1 c 4.23 -0.05 8.46 -0.14 12.68 -0.44 1.16 0.16 2.25 0.96 2.54 2.13 0.5 1.76 -0.61 3.68 -2.25 4.34 -1.17 0.42 -2.36 0.78 -3.59 0.94 -2.84 0.39 -5.72 0.39 -8.58 0.29 0.14 -0.54 0.23 -1.09 0.29 -1.65 2.59 0.04 5.19 0.03 7.75 -0.34 1.29 -0.17 2.55 -0.56 3.76 -1.04 -0.44 0.02 -0.87 0.07 -1.31 0.15 -3.36 0.55 -6.78 0.35 -10.17 0.37 0.01 -1.64 -0.36 -3.29 -1.12 -4.75 z"/>
  <path fill="#b5b5b6"
        d="m 32.35 32.73 c 4.73 0.15 9.45 0.25 14.18 0.32 -0.69 1.35 -1.09 2.84 -1.13 4.36 -3.91 -0.09 -7.82 -0.12 -11.73 -0.14 -0.08 -1.59 -0.53 -3.16 -1.31 -4.54 z"/>
  <path fill="#c9c7c8"
        d="m 2.15 36.33 c 2.06 -0.14 4.12 0.05 6.19 0.09 1.68 0.03 3.36 0.19 5.04 0.15 -0.05 0.43 -0.07 0.86 -0.07 1.29 C 10.37 37.61 7.42 37.43 4.53 36.85 3.74 36.68 2.92 36.6 2.15 36.33 z"/>
  <path fill="#c9c7c8"
        d="m 33.67 37.27 c 3.91 0.02 7.82 0.05 11.73 0.14 -0.01 0.3 -0.01 0.6 0 0.9 -2.8 -0.04 -5.61 -0.13 -8.41 -0.15 -1.11 0.01 -2.23 -0.12 -3.32 0.08 0.02 -0.32 0.02 -0.65 -0 -0.97 z"/>
  <path fill="#c9c7c8"
        d="m 75.92 37.48 c 0.43 -0.08 0.87 -0.13 1.31 -0.15 -1.21 0.49 -2.47 0.87 -3.76 1.04 -2.57 0.37 -5.17 0.38 -7.75 0.34 0.02 -0.28 0.03 -0.57 0.04 -0.86 3.39 -0.02 6.81 0.18 10.17 -0.37 z"/>
  <path fill="#b5b5b6"
        d="m 33.67 38.24 c 1.1 -0.2 2.22 -0.08 3.32 -0.08 2.8 0.01 5.61 0.1 8.41 0.15 0.03 0.57 0.11 1.13 0.23 1.69 -4.05 -0.09 -8.11 -0.16 -12.16 -0.18 0.11 -0.52 0.15 -1.05 0.2 -1.57 z"/>
  <path fill="#050708"
        d="m 21.35 27.78 c 2.07 -0.45 4.28 -0.23 6.23 0.63 2 0.87 3.69 2.42 4.77 4.32 0.79 1.38 1.23 2.95 1.31 4.54 0.02 0.32 0.02 0.65 0 0.97 -0.04 0.53 -0.09 1.06 -0.2 1.57 -0.48 2.41 -1.87 4.62 -3.82 6.1 -1.72 1.33 -3.88 2.03 -6.04 2.09 l -0.24 0 c -2.2 -0.05 -4.4 -0.79 -6.13 -2.16 -2 -1.55 -3.37 -3.86 -3.79 -6.35 -0.09 -0.54 -0.12 -1.08 -0.14 -1.62 0 -0.43 0.02 -0.86 0.07 -1.29 0.2 -1.66 0.79 -3.27 1.75 -4.63 1.46 -2.1 3.72 -3.64 6.22 -4.15 z"/>
  <path fill="#323332"
        d="m 17.44 32.04 c 1.09 -1.22 2.51 -2.12 4.05 -2.65 -1.74 1.18 -3.15 2.85 -3.96 4.8 -1.11 2.63 -1.24 5.65 -0.4 8.37 0.17 0.58 0.44 1.13 0.64 1.71 -1.32 -1.2 -2.16 -2.9 -2.5 -4.64 -0.54 -2.69 0.33 -5.58 2.18 -7.59 z"/>
  <path fill="#323332"
        d="m 23.16 33.97 c 2.09 -0.31 4.2 1.34 4.45 3.44 0.31 1.97 -1.1 4 -3.03 4.42 -1.6 0.43 -3.41 -0.33 -4.27 -1.73 -0.59 -0.9 -0.8 -2.05 -0.53 -3.1 0.38 -1.58 1.77 -2.83 3.38 -3.03 z"/>
  <path fill="#050708"
        d="m 52.6 28 c 2.6 -0.8 5.51 -0.5 7.89 0.82 1.76 0.97 3.22 2.48 4.14 4.28 0.76 1.46 1.14 3.11 1.12 4.75 -0 0.29 -0.01 0.57 -0.04 0.86 -0.06 0.56 -0.15 1.11 -0.29 1.65 -0.57 2.21 -1.9 4.2 -3.72 5.57 -1.71 1.32 -3.85 2.02 -6 2.07 l -0.29 0 c -2.15 -0.06 -4.28 -0.76 -5.98 -2.08 -1.92 -1.44 -3.28 -3.59 -3.8 -5.93 -0.12 -0.56 -0.2 -1.12 -0.23 -1.69 -0.01 -0.3 -0.01 -0.6 -0 -0.9 0.05 -1.51 0.44 -3.01 1.13 -4.36 1.25 -2.4 3.48 -4.27 6.07 -5.05 z"/>
  <path fill="#323332"
        d="m 47.2 37.87 c 0 -3.68 2.58 -7.16 6.04 -8.32 -0.55 0.57 -1.22 1 -1.72 1.61 -2.55 2.84 -3.41 6.98 -2.51 10.66 0.19 0.88 0.57 1.7 0.89 2.54 -1.72 -1.67 -2.76 -4.07 -2.69 -6.49 z"/>
  <path fill="#323332"
        d="m 55.19 33.97 c 2.22 -0.37 4.47 1.49 4.52 3.75 0.17 2.01 -1.44 3.92 -3.42 4.18 -2.22 0.39 -4.48 -1.49 -4.52 -3.74 -0.17 -2.01 1.44 -3.94 3.42 -4.18 z"/>
</svg>
