<?xml version="1.0" encoding="utf-8"?><!-- Generator: Adobe Illustrator 15.0.2, SVG Export Plug-In . SVG Version: 6.00 Build 0)  -->
<!DOCTYPE svg PUBLIC "-//W3C//DTD SVG 1.1//EN"
  "http://www.w3.org/Graphics/SVG/1.1/DTD/svg11.dtd">
<svg version="1.1" id="Слой_1" xmlns="http://www.w3.org/2000/svg"
     xmlns:xlink="http://www.w3.org/1999/xlink" x="0px" y="0px" width="741px"
     height="243px" viewBox="0 0 741 243" enable-background="new 0 0 741 243"
     xml:space="preserve">
<g>
	<defs>
		<rect id="SVGID_1_" y="2.384" width="741" height="238.232"/>
	</defs>
  <clipPath id="SVGID_2_">
		<use xlink:href="#SVGID_1_" overflow="visible"/>
	</clipPath>
  <path opacity="0.28" clip-path="url(#SVGID_2_)" fill="#808080" d="M329.916,133.669c-3.219-4.015-11.984,2.419-19.887,9.133
		c-7.388,6.276-37.448,69.972-45.283,99.448H324.5c0,0,4.22-16.009,6.5-23.5c2.543-8.355-0.5-38-0.5-38S338,143.75,329.916,133.669z
		"/>
  <path opacity="0.28" clip-path="url(#SVGID_2_)" fill="#808080" d="M243.46,174.849c1.5-5,19.5-46.5,23.156-58.965
		c4.156-10.466,22.344-46.034,29.46-62.321s1.384-30.713-10.116-38.213s-27.5,18-33.489,25.576s-65.011,116.423-71.194,123.259
		s-11.816-10.336-4.808-25.138c7.009-14.801,5.991-35.198,11.991-46.198s54-25.5,57.463-51.196
		c3.464-25.696-13.963-29.304-21.852-29.299c-7.888,0.005-41.944,22.592-41.944,22.592s6.833-6.597,3.957-14.003
		c-9.671-24.908-28.931,0.488-28.931,0.488s-1.193-1.082-6.19,0.125c-4.996,1.207-105.003,70.793-115.1,81.34
		c-10.096,10.547-15.903,27.453-18.112,54.992c-0.526,6.572-5.249,76.236-6.785,84.362H240
		C240.023,239.63,243.527,175.793,243.46,174.849z"/>
  <path opacity="0.28" clip-path="url(#SVGID_2_)" fill="#808080" d="M724.96,122.85c-3.667-12-19-41.333-34.696-55.704
		s-23.637-27.297-32.304-32.964s-14-19.333-24.357-22.43s-13.31,10.43-14.395,20.38c-10.086-0.717-61.582-29.283-70.165-29.027
		c-8.251,0.256-11.75,10.411-12.691,17.216c-10.608-3.528-30.059-11.138-47.704-14.846c-17.646-3.708-18.021,11.041-17.926,18.256
		c-2.905-3.452-2.096-10.215-17.063-11.61c-19.302-3.062-23.032,8.729-25.032,22.729s25,43.333,33,51.667
		s14.334,19.333,19.189,27.408c1.521,6.075,28.685,48.326,30.969,61.21c5.321,30.015-5.307,64.642-4.784,67.115h233.938
		c-0.646-1.714-1.3-65.492-1.955-67.49C733.354,157.593,727.602,131.492,724.96,122.85z"/>
  <path opacity="0.28" clip-path="url(#SVGID_2_)" fill="#808080" d="M399.038,129.149c-1.637,2.633,8.556,20.042,11.462,49.101
		c1,10-3.5,19-1.5,31c2.581,15.486,7.023,22.507,8.285,32H480c-5.841-13.428-19.55-87.966-24.873-96.734
		C443.793,125.849,402.127,124.184,399.038,129.149z"/>
  <path clip-path="url(#SVGID_2_)" fill="#EEBC84" d="M514.184,238.566c-0.787-4.333-18.125-29.548-23.245-40.976
		c-1.971-10.243-6.304-26.002-18.123-50.823c-11.82-24.82-28.367-29.942-39.793-30.336c-11.427-0.396-17.729-1.183-17.729,0.789
		c0,1.97,7.88,28.758,9.456,37.427c1.575,8.669,2.757,24.821,1.181,31.125c-1.575,6.303,0.395,14.183,3.153,18.123
		c2.756,3.938,11.031,22.852,11.031,22.852l5.276,15.102h70.246C514.943,240.87,514.398,239.751,514.184,238.566z"/>
  <path clip-path="url(#SVGID_2_)" fill="#EEBC84" d="M734.42,238.566c0.789-9.061-2.757-22.063-0.788-35.854
		c1.969-13.789-6.696-28.761-10.242-36.641c-3.547-7.88-8.274-29.154-12.608-42.943c-1.575-12.213-5.516-23.639-14.972-38.611
		s-14.184-20.881-17.729-23.639c-3.546-2.759-15.366-15.366-18.912-18.123c-3.546-2.758-20.881-26.003-31.125-32.307
		c-9.062-1.182-11.179,11.475-11.77,19.009c-15.364-8.272-24.426-8.471-38.117-16.104c-2.176-1.213-13.84-6.943-20.537-9.308
		s-9.249-1.528-13.101,5.221c-1.474,2.581-1.969,8.963-1.969,8.963s-11.524-2.955-24.526-7.831
		c-30.336-15.759-37.969,0.641-33.241,11.771C472.964,9.711,467.3,10.055,464.541,9.661c-2.758-0.393-13.789-1.182-17.729,14.973
		c-3.941,16.153,19.698,40.187,28.76,50.824c9.063,10.638,10.245,14.971,17.729,27.185c0.788,9.851,25.61,46.49,27.974,56.734
		s5.516,34.276,7.091,46.883c-3.925,5.887-5.405,27.509-6.471,35.59H734.09C734.22,240.682,734.332,239.573,734.42,238.566z"/>
  <path clip-path="url(#SVGID_2_)" fill="#E7AF77" d="M543.732,166.86c-2.955-12.409-9.16-6.501-11.523-29.844
		c-2.364-23.343-14.479-21.866-22.458-31.026c-7.979-9.159-1.773-20.685-11.524-34.867c-9.751-14.185-19.206-7.979-22.456-13.888
		c-3.251-5.91-3.251-10.047-11.524-15.661c-6.798-4.613-12.987-14.608-14.983-23.6c-0.961,1.814-1.803,4.005-2.45,6.658
		c-3.941,16.153,19.698,40.187,28.76,50.824c9.063,10.638,10.245,14.971,17.729,27.185c0.788,9.851,25.61,46.49,27.974,56.734
		s5.516,34.276,7.091,46.883c-3.925,5.887-5.405,27.509-6.471,35.59h39.313C549.379,215.547,545.737,175.283,543.732,166.86z"/>
  <path clip-path="url(#SVGID_2_)" fill="#E7AF77" d="M734.42,238.566c0.789-9.061-2.757-22.063-0.788-35.854
		c1.826-12.79-5.494-26.594-9.395-34.815c-4.726,20.525-8.891,25.087-16.277,29.451c-11,6.5-18.5-4-27.5-0.5
		c-14.919,5.802-27.468,22.276-47,14c-29.5-12.5-40.019,0.479-46.5,6c-5.871,5.001-10.382,14.855-11.525,25H734.09
		C734.22,240.682,734.332,239.573,734.42,238.566z"/>
  <path clip-path="url(#SVGID_2_)" fill="#EEBC84" d="M241.613,242.55c0,0,16.073-38.007,21.481-42.813
		c-0.801-19.029,12.618-66.698,34.65-67.298c6.009-6.41,9.415-8.812,16.224-8.812c0.401,8.413,3.605,24.835-2.403,47.668
		c3.055,11.691,4.006,22.834,4.407,25.64c0.271,1.901,2.866,5.625,2.408,12.105c-0.605,8.572-9.77,25.697-13.375,33.51
		C289.183,242.55,241.613,242.55,241.613,242.55z"/>
  <path clip-path="url(#SVGID_2_)" fill="#EEBC84" d="M276.215,181.21c-0.301-9.915,3.806-20.029,7.812-28.041
		c5.257-10.515,9.344-16.663,13.027-20.688c-21.62,1.567-34.751,48.429-33.959,67.256c-5.408,4.807-21.766,42.813-21.766,42.813
		s22.429,0,42.195,0c28.992-15.323,5.634-35.227,0.226-41.011C276.952,194.269,276.304,184.164,276.215,181.21z"/>
  <path clip-path="url(#SVGID_2_)" fill="#E7AF77" d="M272.666,202.984c-1.202-5.81-1.56-16.268-1.159-19.471
		c1-7.991,4.528-19.653,10.416-31.648c4.041-8.229,9.646-15.005,13.392-19.16c-15.832,2.971-26.826,30.188-30.708,50.934
		c-0.107,0.579-1.912,15.599-2.01,16.166C263.949,198.303,270.227,196.05,272.666,202.984z"/>
  <path clip-path="url(#SVGID_2_)" fill="#E7AF77" d="M262.631,199.676c-8.984,8.533-21.201,42.783-21.201,42.783s2.738,0,5.942,0
		c0.174,0.175,0.685-6.518,6.209-14.181c6.21-8.612,18.025-16.682,18.093-22.923C271.738,199.378,266.174,197.685,262.631,199.676z"/>
  <path opacity="0.43" clip-path="url(#SVGID_2_)" fill="#D3915A" d="M318.376,207.622c-5.108,18.178-17.802,10.741-33.349-4.881
		c19.303,23.959-6.348,38.156-8.412,39.957c9.821,0,22.838-0.299,28.24-0.299C319.503,215.809,318.376,207.622,318.376,207.622z"/>
  <path clip-path="url(#SVGID_2_)" fill="#EEBC84" d="M284.877,23.53c-2.404-7.812-10.321-13.354-16.674-9.915
		c-5.408,2.93-6.366,4.128-8.713,6.311c-3.435,3.193-3.556,6.158-13.67,12.469c-5.065,3.157-7.35,5.735-11.051,10.132
		c-7.827,9.296-13.034,17.108-26.054,28.323c-10.652,9.177-13.239,26.864-18.627,38.056c-3.906,8.112-9.281,22.826-13.62,30.142
		c-3.73,6.295-12.291,10.295-14.021,5.108c-3.905-11.717,11.417-19.528,16.224-56.482c1.163-8.939,12.09-15.043,16.824-19.529
		c5.708-5.407,10.915-12.106,14.121-15.021c3.305-3.005,11.417-4.607,18.928-11.417c6.405-5.807,9.313-11.416,8.563-17.727
		c-0.41-3.442-2.294-6.436-2.854-7.51c-6.037-11.559-18.026-8.713-32.147-1.202c-12.256,6.519-24.786,10.214-24.786,10.214
		s5.157-3.607,5.408-9.764c0.301-7.36-6.165-11.531-9.614-11.867c-4.203-0.41-3.959-2.875-16.473,5.609
		c-2.897,1.963-6.494,3.972-9.789,5.854c-0.787,0.45-1.575,0.904-2.363,1.365c-2.772,1.618-5.284,4.129-7.978,5.798
		c-1.315,0.816-5.639,3.5-6.91,4.307c-3.307,2.097-5.938,2.849-8.813,4.607c-6.71,4.106-15.223,9.412-15.223,9.412
		s3.183-6.418,2.805-9.163c-1.202-8.712-10.015-12.165-14.021-11.065c-4.761,1.311-10.431,6.386-16.774,14.071
		c-4.803,5.815-10.094,15.746-11.868,17.876c-6.099,7.318-11.591,11.6-16.374,19.678c-6.76,11.417-11.665,20.262-18.777,32.298
		c-7.811,13.218-3.004,13.97-10.515,46.417c-5.328,23.018-16.524,49.423-18.327,59.637c-1.751,9.924-0.901,31.848-0.901,31.848
		l216.716-0.302c0.602-6.009,4.707-38.757,5.909-42.361c1.201-3.604,3.004-26.138,3.905-32.146s1.803-9.614,3.906-13.52
		c2.103-3.906,17.124-34.55,21.03-48.671c7.211-11.416,16.523-27.64,18.327-31.847c13.67-25.536,17.274-34.399,16.224-43.412
		C286.529,27.569,285.167,24.473,284.877,23.53z"/>
  <path clip-path="url(#SVGID_2_)" fill="#D79260" d="M256.357,26.644c-2.595,4.587,9.587,14.689,18.261,9.606
		c6.345-3.664,8.546-7.499,9.95-9.519c2.77-3.981-9.138-17.124-17.912-11.164C261.339,19.179,258.991,21.992,256.357,26.644z"/>
  <path clip-path="url(#SVGID_2_)" fill="#E7AF77" d="M223.438,199.736c1.201-3.604,3.004-26.138,3.905-32.146
		s1.803-9.614,3.906-13.52c2.103-3.906,17.124-34.55,21.03-48.671c7.211-11.416,16.523-27.64,18.327-31.847
		c14.194-21.937,15.302-36.482,14.785-42.979c-0.165-2.08-0.212-4.748-0.375-6.208c-3.969,11.126-14.322,23.208-19.218,34.364
		c-10.415,23.736-24.345,21.517-25.036,31.048c-2.203,30.345-18.227,35.551-21.431,54.779c-3.273,19.641-4.207,27.74-5.608,37.556
		c-1.402,9.813-4.207,2.001-3.807,12.415c0.271,7.012,0.539,17.098,0.687,22.949l10.73-0.015
		C221.935,211.454,222.235,203.341,223.438,199.736z"/>
  <path clip-path="url(#SVGID_2_)" fill="#D79260" d="M284.727,26.684c-0.901,5.108-11.116,31.546-16.824,39.958
		c-5.708,8.414-12.318,21.332-24.035,26.14c3.905,8.712,2.383,22.157-3.005,33.347c-3.905,8.112-8.713,16.224-14.421,22.533
		c-2.403,6.91-9.013,27.94-11.116,37.254c-2.103,9.313-8.813,56.683-8.813,56.683h22.532c-12.618-12.317-6.81-39.258-5.607-42.862
		c1.201-3.604,3.004-26.138,3.905-32.146s1.803-9.614,3.906-13.52c2.103-3.906,17.124-34.55,21.03-48.671
		c7.211-11.416,16.523-27.64,18.327-31.847C290.435,42.908,284.727,26.684,284.727,26.684z"/>
  <path clip-path="url(#SVGID_2_)" fill="#D79260" d="M215.861,29.397c2.713,0.951,8.295,1.016,15.639-5.544
		c3.19-2.854,3.577-6.202,2.073-8.505c-3.031-4.646-8.936-8.768-15.796-6.389c-3.216,1.111-11.789,5.238-11.968,9.348
		C205.65,21.951,209.063,27.014,215.861,29.397z"/>
  <path clip-path="url(#SVGID_2_)" fill="#F3CC97" d="M176.96,53.349c3.554,2.558,11.785-5.241,14.181-6.986
		c8.862-6.459,11.867-4.656,13.369-10.516c1.149-4.482-7.057-14.312-14.121-11.565c-5.407,2.104-7.06,6.459-8.262,10.664
		c-1.155,4.046-2.32,4.329-4.356,7.662C176.118,45.311,173.204,50.644,176.96,53.349z"/>
  <path clip-path="url(#SVGID_2_)" fill="#D79260" d="M155.938,10.523c-2.231,1.76-2.735,7.821,1.216,10.908
		c4.36,3.408,7.15,4.341,11.802,2.163c4.204-1.971,11.427-7.348,12.713-9.653c1.286-2.305-6.393-9.219-10.332-10.382
		C168.438,2.704,161.956,5.78,155.938,10.523z"/>
  <path clip-path="url(#SVGID_2_)" fill="#D79260" d="M92.352,20.533c-1.891,0.908-11.089,11.103-10.57,13.842
		c0.642,3.384,6.888,6.307,10.891,4.769c3.253-1.249,10.59-11.507,10.59-13.661C103.262,23.429,95.555,18.995,92.352,20.533z"/>
  <path clip-path="url(#SVGID_2_)" fill="#E7AF77" d="M172.663,192.827c-12.018-19.229,17.025-30.045,2.003-39.058
		c-14.017-8.41-33.198,25.134-41.461,31.846c-9.614,7.812-23.839,9.31-27.439,6.61c-6.409-4.807-14.221-7.211-12.418-16.424
		c1.086-5.548,10.815-26.038,7.812-27.441c-4.147-1.936-12.619,16.826-16.824,24.036c-6.219,10.66-17.827,24.034-27.04,25.838
		c-8.651,1.691-13.22-9.214-17.226-11.218c-12.292-6.146-13.619,6.009-19.428,10.016c-5.475,3.775-11.729-0.603-12.862-6.175
		c-2.904,8.457-5.326,15.509-6.065,19.694c-1.751,9.924-0.901,31.848-0.901,31.848l216.716-0.302
		c0.602-6.009,4.707-38.757,5.909-42.361c1.064-3.192,2.599-21.219,3.562-29.479C217.729,184.355,184.54,211.829,172.663,192.827z"/>
  <path opacity="0.37" clip-path="url(#SVGID_2_)" fill="#D3915A" d="M180.876,205.044c-22.834-1.602-23.985,16.384-43.063,16.625
		c-15.823,0.2-17.007-9.683-35.853-13.82c-32.848-7.21-36.053,27.24-51.275,22.433C6.064,216.19,0.813,242.399,0.813,242.399
		l206.561-0.288C216.844,218.633,199.661,206.362,180.876,205.044z"/>
  <path clip-path="url(#SVGID_2_)" fill="#E7AF77" d="M228.244,30.59c-4.356,3.756-9.765,5.857-17.727,4.808
		c-1.802,5.708-9.163,14.87-16.975,21.18c-2.69,2.174-12.768,11.418-16.523,24.937c-3.755,13.52-3.906,20.28-12.618,37.104
		c-3.711,7.164-7.666,22.687-3.306,27.339c2.051,2.188,7.952,2.487,12.281-3.131c-4.122,3.831-9.585,5.359-10.929,1.328
		c-3.905-11.717,11.417-19.528,16.224-56.482c1.163-8.939,12.09-15.043,16.824-19.529c5.708-5.407,10.915-12.106,14.121-15.021
		c3.305-3.005,11.417-4.607,18.928-11.417c6.405-5.807,9.313-11.416,8.563-17.727c-0.329-2.767-1.603-5.227-2.385-6.65
		C234.344,21.333,232.94,26.542,228.244,30.59z"/>
  <path clip-path="url(#SVGID_2_)" fill="#D79260" d="M228.244,36.599c-8.713,7.66-12.468,4.355-16.824,7.961
		c-2.702,2.236-8.863,11.267-11.718,13.07c-2.793,1.763-13.045,10.291-15.736,20.37c3.824-4.009,8.744-7.216,11.53-9.856
		c5.708-5.407,10.915-12.106,14.121-15.021c3.305-3.005,11.417-4.607,18.928-11.417c6.313-5.724,9.222-11.258,8.585-17.458
		C235.546,27.959,231.669,33.587,228.244,36.599z"/>
  <path clip-path="url(#SVGID_2_)" fill="#D79260" d="M100.558,41.106c-6.81,6.108-8.611,15.924-14.12,21.03
		c-5.507,5.107-16.633,20.949-20.529,26.339c-9.414,13.019-4.306,29.644-10.816,38.456c-3.946,5.343-2.815,15.957-4.479,23.738
		c1.846-1.895,3.504-3.749,3.978-5.012c1.07-2.852,3.774-12.983,4.206-16.223c0.601-4.507,4.106-19.529,6.009-24.036
		s5.055-13.739,8.713-19.228c10.816-16.224,15.021-20.83,18.026-25.537s6.71-11.217,10.015-15.323
		c1.222-1.519,2.676-3.145,4.081-4.658c0.457-0.947,3.074-6.505,2.729-9.012c-0.305-2.204-1.099-4.069-2.177-5.613
		C107.52,31.857,104.951,37.167,100.558,41.106z"/>
  <path clip-path="url(#SVGID_2_)" fill="#F3CC97" d="M93.722,64.9c1.903-3.345,8.719-7.347,14.329-4.62
		c5.609,2.727,5.193,6.558,5.667,11.541c0.416,4.378-4.53,11.805-7.249,16.462c-12.009,20.566-13.886,29.015-25.009,28.566
		c-19.375-0.78-2.74-31.744,5.293-45.082C87.997,69.7,92.283,67.425,93.722,64.9z"/>
  <path clip-path="url(#SVGID_2_)" fill="#F3CC97" d="M35.173,107.629c1.002-2.662,5.514-6.38,9.93-5.04
		c4.415,1.338,4.557,4.184,5.482,7.771c0.813,3.147-1.277,9.476-3.38,12.866c-2.245,3.622-2.102,11.844-10.245,10.622
		c-10-1.5-10.394-9.712-6.079-20.39C31.55,111.804,34.416,109.643,35.173,107.629z"/>
  <path clip-path="url(#SVGID_2_)" fill="#F3CC97" d="M140.96,56.349c5.739-3.493,18.534-4.449,26.5,7
		c4.667,6.708-1.971,20.425-3.833,24c-4.167,8-6.667,15-16.667,41c-3.454,8.979-13.232,24.725-22.667,23.333
		c-10.166-1.5-12.513-17.819-11.333-23.833c5-25.5,6-28,12-43.5C131.906,66.405,137.126,58.682,140.96,56.349z"/>
  <path clip-path="url(#SVGID_2_)" fill="#F3CC97" d="M166.453,149.963c6.209-1.001,12.019-3.204,16.225,3.606
		c0.399,0.645,4.69,8.683-1.401,10.615c-8.212,2.604-17.426,24.634-3.606,31.646c13.82,7.012,33.049-5.81,31.446-22.032
		c-0.303-3.068-8.813-5.407-2.003-7.81c8.131-2.869,10.415-32.046,14.221-41.06c3.806-9.012,17.626-20.429,12.818-26.84
		c-13.421-18.896-30.105-13.971-36.063-10.343c-3.098,7.615-5.226,15.777-8.201,21.959c-3.905,8.112-9.281,22.826-13.619,30.144
		c-3.293,5.553-10.341,9.312-13.141,6.555C162.119,148.298,161.668,150.735,166.453,149.963z"/>
  <path clip-path="url(#SVGID_2_)" fill="#D79260" d="M173.064,24.782c-11.417,4.007-14.822,11.616-29.243,17.826
		c-7.165,3.085-10.816,12.418-13.22,16.624s-7.811,9.013-11.816,14.222c-2.895,3.764-9.614,18.425-10.615,26.037
		c-1.002,7.611-8.613,30.644-13.22,35.049c-3.729,3.567-4.047,15.525-5.73,22.188c4.476-6.326,8.737-14.138,11.489-17.53
		c4.506-5.559,5.815-21.055,8.261-28.391c3.005-9.013,6.05-18.766,7.512-23.734c3.004-10.215,7.811-15.923,14.571-26.739
		c7.224-11.559,9.914-11.566,15.923-15.322c4.536-2.835,20.815-13.498,30.449-19.56c-0.063,0.021-0.105,0.03-0.105,0.03
		s5.157-3.607,5.408-9.764c0.007-0.173-0.007-0.338-0.007-0.508C181.461,18.558,179.021,22.691,173.064,24.782z"/>
  <path opacity="0.85" clip-path="url(#SVGID_2_)" fill="#D3915A" d="M317.146,213.821c-1.192,1.803-3.206,3.006-5.303,3.61
		c-2.114,0.626-4.376,0.699-6.548,0.315c-2.168-0.406-4.258-1.286-6.009-2.615c-1.768-1.304-3.165-3.053-4.098-4.973
		c1.331,1.672,2.887,3.104,4.63,4.201c1.745,1.092,3.682,1.846,5.693,2.204c2.007,0.38,4.09,0.364,6.103-0.037
		C313.612,216.098,315.599,215.308,317.146,213.821z"/>
  <g opacity="0.85" clip-path="url(#SVGID_2_)">
		<path fill="#D3915A" d="M55.092,114.114c-0.364-2.125-1.339-4.023-2.607-5.646c-1.288-1.614-2.881-2.975-4.659-4.011
			c-1.769-1.054-3.732-1.784-5.77-2.105c-2.035-0.304-4.167-0.19-6.192,0.545c1.818-1.163,4.092-1.648,6.295-1.476
			c2.215,0.146,4.366,0.888,6.276,2.001c1.898,1.133,3.586,2.649,4.806,4.499C54.474,109.749,55.2,111.956,55.092,114.114z"/>
    <path fill="#D3915A" d="M190.514,22.537c0.97-0.399,2.083-0.369,3.125-0.195c1.047,0.2,2.053,0.575,2.999,1.048
			c1.901,0.941,3.585,2.246,5.097,3.707c1.489,1.484,2.822,3.144,3.804,5.024c0.491,0.937,0.889,1.937,1.099,2.984
			c0.181,1.035,0.208,2.189-0.319,3.109c0.263-1.009,0.1-2.026-0.25-2.957c-0.327-0.939-0.81-1.822-1.342-2.668
			c-1.087-1.684-2.394-3.231-3.833-4.637c-1.43-1.413-3-2.693-4.705-3.745c-0.857-0.515-1.749-0.979-2.695-1.3
			C192.552,22.561,191.544,22.406,190.514,22.537z"/>
    <path fill="#D3915A" d="M245.923,41.653c0.9-0.665,2.056-0.927,3.177-1.019c1.134-0.068,2.27,0.054,3.371,0.291
			c2.211,0.469,4.296,1.369,6.245,2.473c1.933,1.132,3.753,2.487,5.271,4.162c0.758,0.833,1.437,1.754,1.938,2.776
			c0.468,1.018,0.81,2.196,0.52,3.288c0.01-1.112-0.427-2.124-1.032-2.997c-0.586-0.889-1.319-1.677-2.096-2.413
			c-1.57-1.454-3.336-2.707-5.201-3.776c-1.858-1.08-3.826-1.982-5.874-2.608c-1.026-0.301-2.076-0.537-3.142-0.609
			C248.033,41.119,246.948,41.232,245.923,41.653z"/>
    <path fill="#D3915A" d="M69.112,55.228c1.234-0.096,2.459,0.212,3.616,0.583c1.167,0.375,2.278,0.896,3.347,1.494
			c1.057,0.62,2.074,1.325,2.966,2.188c0.878,0.849,1.71,1.88,1.988,3.092c-0.729-0.977-1.646-1.686-2.589-2.372
			c-0.954-0.667-1.942-1.292-2.964-1.865c-1.01-0.594-2.053-1.139-3.104-1.675C71.313,56.154,70.263,55.625,69.112,55.228z"/>
    <path fill="#D3915A" d="M247.491,45.419c1.215-0.236,2.467-0.07,3.659,0.163c1.202,0.241,2.365,0.631,3.495,1.104
			c1.121,0.495,2.213,1.077,3.197,1.833c0.97,0.743,1.915,1.671,2.329,2.846c-0.835-0.89-1.828-1.487-2.843-2.063
			c-1.024-0.551-2.078-1.06-3.158-1.513c-1.072-0.474-2.17-0.896-3.275-1.308C249.783,46.088,248.679,45.682,247.491,45.419z"/>
    <path fill="#D3915A" d="M200.372,36.294c-1.236-0.065-2.41-0.531-3.51-1.05c-1.106-0.525-2.14-1.188-3.121-1.922
			c-0.967-0.75-1.883-1.582-2.654-2.556c-0.76-0.956-1.45-2.086-1.567-3.326c0.595,1.064,1.411,1.888,2.256,2.689
			c0.859,0.787,1.758,1.537,2.695,2.239c0.924,0.721,1.887,1.396,2.857,2.064C198.313,35.087,199.284,35.75,200.372,36.294z"/>
    <path fill="#D3915A" d="M30.706,117.417c0.327,0.831,0.849,1.532,1.453,2.148c0.591,0.629,1.252,1.186,1.936,1.706
			c1.382,1.024,2.875,1.901,4.449,2.575c1.566,0.691,3.219,1.181,4.91,1.398c1.689,0.199,3.436,0.115,5.128-0.468
			c-1.482,1.01-3.362,1.464-5.193,1.402c-1.844-0.035-3.647-0.516-5.323-1.233c-1.669-0.738-3.23-1.719-4.569-2.958
			C32.192,120.766,30.93,119.236,30.706,117.417z"/>
    <path fill="#D3915A" d="M37.616,117.266c0.543-0.046,1.098,0.157,1.546,0.39c0.466,0.23,0.855,0.521,1.235,0.757
			c0.37,0.255,0.732,0.463,1.129,0.664c0.4,0.198,0.84,0.363,1.348,0.594c-0.479,0.27-1.033,0.37-1.589,0.314
			c-0.56-0.046-1.095-0.281-1.547-0.568c-0.444-0.308-0.814-0.652-1.138-1.015C38.262,118.04,37.987,117.693,37.616,117.266z"/>
    <path fill="#D3915A" d="M36.415,109.906c2.04,0.626,4.072,0.515,6.222,1.148c1.051,0.322,2.112,0.85,2.908,1.671
			c0.81,0.803,1.321,1.836,1.535,2.89c-0.671-0.848-1.346-1.615-2.147-2.18c-0.797-0.564-1.684-0.954-2.644-1.231
			c-0.953-0.302-1.978-0.496-3.002-0.811C38.269,111.087,37.204,110.663,36.415,109.906z"/>
    <path fill="#D3915A" d="M99.967,55.988c0.892-0.553,1.996-0.704,3.052-0.703c1.065,0.029,2.118,0.233,3.129,0.547
			c2.029,0.618,3.903,1.633,5.633,2.827c1.711,1.222,3.296,2.643,4.571,4.338c0.637,0.845,1.191,1.765,1.57,2.767
			c0.347,0.993,0.562,2.127,0.191,3.119c0.094-1.037-0.233-2.016-0.729-2.877c-0.476-0.874-1.096-1.666-1.759-2.415
			c-1.346-1.483-2.889-2.798-4.536-3.949c-1.641-1.162-3.398-2.171-5.252-2.929c-0.931-0.369-1.887-0.683-2.872-0.843
			C101.981,55.68,100.962,55.69,99.967,55.988z"/>
    <path fill="#D3915A" d="M136.903,22.507c1.224,0.189,2.346,0.769,3.389,1.395c1.05,0.633,2.012,1.393,2.915,2.219
			c0.888,0.843,1.718,1.762,2.389,2.806c0.661,1.028,1.236,2.222,1.23,3.468c-0.487-1.12-1.218-2.02-1.979-2.901
			c-0.776-0.868-1.596-1.703-2.459-2.494c-0.849-0.81-1.739-1.577-2.64-2.338C138.834,23.912,137.933,23.157,136.903,22.507z"/>
    <path fill="#D3915A" d="M97.663,65.154c1.228-0.161,2.467,0.08,3.643,0.391c1.185,0.313,2.322,0.771,3.421,1.314
			c1.088,0.561,2.142,1.21,3.078,2.024c0.922,0.802,1.809,1.788,2.15,2.984c-0.779-0.938-1.733-1.599-2.711-2.231
			c-0.988-0.615-2.009-1.188-3.06-1.706c-1.04-0.539-2.11-1.026-3.188-1.506C99.91,65.961,98.833,65.49,97.663,65.154z"/>
    <path fill="#D3915A" d="M91.96,66.809c0.295,0.843,0.789,1.562,1.37,2.202c0.567,0.649,1.207,1.232,1.87,1.777
			c1.342,1.077,2.801,2.009,4.349,2.741c1.539,0.749,3.172,1.304,4.853,1.585c1.682,0.261,3.43,0.243,5.143-0.274
			c-1.52,0.951-3.415,1.335-5.242,1.205c-1.841-0.104-3.626-0.653-5.273-1.433c-1.639-0.804-3.163-1.842-4.454-3.13
			C93.319,70.212,92.115,68.636,91.96,66.809z"/>
    <path fill="#D3915A" d="M144.421,53.981c1.328-0.905,2.98-1.251,4.587-1.342c1.621-0.058,3.236,0.157,4.813,0.499
			c3.159,0.697,6.141,2.006,8.936,3.592c2.772,1.623,5.396,3.551,7.59,5.93c1.087,1.19,2.086,2.48,2.838,3.924
			c0.706,1.437,1.219,3.1,0.863,4.681c0.075-1.601-0.534-3.098-1.377-4.392c-0.818-1.318-1.856-2.495-2.984-3.567
			c-2.266-2.141-4.821-3.978-7.529-5.534c-2.703-1.567-5.573-2.861-8.563-3.742c-1.494-0.436-3.033-0.739-4.587-0.805
			C147.457,53.124,145.874,53.32,144.421,53.981z"/>
    <path fill="#D3915A" d="M146.976,63.039c0.327,0.83,0.848,1.53,1.454,2.147c0.591,0.628,1.25,1.186,1.935,1.706
			c1.381,1.024,2.876,1.899,4.449,2.575c1.566,0.69,3.219,1.181,4.91,1.397c1.689,0.199,3.436,0.115,5.129-0.466
			c-1.483,1.008-3.363,1.462-5.194,1.401c-1.843-0.035-3.647-0.517-5.323-1.232c-1.668-0.741-3.23-1.722-4.57-2.959
			C148.462,66.387,147.2,64.856,146.976,63.039z"/>
    <path fill="#D3915A" d="M139.615,65.742c0.142,1.322,0.632,2.55,1.324,3.639c0.666,1.104,1.499,2.105,2.423,3.005
			c1.854,1.795,3.983,3.308,6.287,4.466c2.291,1.18,4.766,2.009,7.314,2.346c2.542,0.326,5.2,0.039,7.588-1.138
			c-1.058,0.811-2.318,1.349-3.625,1.706c-1.316,0.32-2.687,0.417-4.044,0.354c-2.725-0.135-5.364-0.984-7.779-2.197
			c-2.401-1.24-4.624-2.862-6.41-4.905c-0.887-1.023-1.678-2.137-2.271-3.358C139.874,68.425,139.483,67.076,139.615,65.742z"/>
    <path fill="#D3915A" d="M208.114,84.242c1.289-0.883,2.898-1.221,4.463-1.312c1.577-0.057,3.15,0.149,4.686,0.48
			c3.077,0.677,5.979,1.95,8.699,3.492c2.7,1.582,5.252,3.458,7.387,5.775c1.057,1.161,2.028,2.417,2.759,3.822
			c0.686,1.401,1.183,3.021,0.833,4.559c0.07-1.557-0.524-3.013-1.346-4.27c-0.797-1.279-1.809-2.424-2.906-3.465
			c-2.206-2.08-4.691-3.867-7.326-5.38c-2.628-1.525-5.419-2.782-8.326-3.642c-1.453-0.427-2.949-0.724-4.46-0.787
			C211.067,83.414,209.529,83.603,208.114,84.242z"/>
    <path fill="#D3915A" d="M227.136,96.727c-3.021-1.349-5.788-3.063-8.729-4.339c-2.924-1.331-5.982-2.229-9.227-2.828
			c1.642-0.166,3.32-0.096,4.957,0.224c1.641,0.304,3.234,0.839,4.757,1.507C221.944,92.66,224.638,94.593,227.136,96.727z"/>
    <path fill="#D3915A" d="M205.11,93.983c0.621,1.146,1.398,2.172,2.31,3.067c0.881,0.922,1.865,1.736,2.908,2.463
			c2.087,1.45,4.355,2.636,6.738,3.515c2.374,0.903,4.862,1.491,7.391,1.815c2.532,0.312,5.11,0.278,7.692-0.045
			c-1.236,0.414-2.526,0.661-3.827,0.843c-1.305,0.141-2.625,0.18-3.943,0.123c-2.64-0.113-5.253-0.697-7.734-1.612
			c-2.47-0.942-4.832-2.214-6.874-3.905C207.749,98.574,205.903,96.499,205.11,93.983z"/>
    <path fill="#D3915A" d="M185.835,163.431c2.018-1.348,4.458-2.139,6.95-2.222c2.49-0.103,5.022,0.477,7.24,1.674
			c2.208,1.206,4.094,3.057,5.215,5.312c1.153,2.239,1.475,4.816,1.117,7.208c-0.112-2.421-0.745-4.764-1.939-6.757
			c-1.196-1.989-2.935-3.615-4.967-4.709C195.378,161.709,190.299,161.563,185.835,163.431z"/>
    <path fill="#D3915A" d="M108.796,166.27c1.205-2.176,3.095-4.056,5.434-5.15c2.322-1.123,5.019-1.458,7.573-1.015
			c2.553,0.454,4.965,1.671,6.805,3.469c1.862,1.777,3.102,4.121,3.631,6.551c-0.979-2.289-2.428-4.313-4.26-5.854
			c-1.836-1.535-4.05-2.586-6.384-2.983c-2.328-0.425-4.769-0.179-6.991,0.689C112.379,162.852,110.389,164.356,108.796,166.27z"/>
    <path fill="#D3915A" d="M46.999,172.987c0.71-2.366,2.576-4.338,4.784-5.53c2.21-1.226,4.763-1.784,7.29-1.722
			c2.526,0.081,5.062,0.818,7.151,2.252c2.109,1.405,3.677,3.508,4.519,5.798c-1.269-2.091-2.987-3.829-5.019-5.004
			c-2.032-1.17-4.353-1.788-6.687-1.847c-2.336-0.078-4.696,0.382-6.832,1.356C50.087,169.275,48.149,170.813,46.999,172.987z"/>
	</g>
  <path clip-path="url(#SVGID_2_)" fill="#F3CC97" d="M692.487,91.191c-4.781,6.493,4.087,16.032,7.041,15.504
		c-1.595,8.971-6.244,34.948,11.377,33.776c1.822-0.121,3.234-0.735,4.311-1.728c-1.482-5.521-2.98-10.99-4.435-15.614
		c-1.478-11.453-5.034-22.213-13.27-35.855C695.728,87.857,694.001,89.136,692.487,91.191z"/>
  <path clip-path="url(#SVGID_2_)" fill="#F3CC97" d="M636.712,41.575c-7.44-5.006-16.841-10.143-23.483-13.558
		c2.177,8.042,5.337,17.9,9.072,20.354c5.797,3.809,22.451,10.797,25.723,16.751c3.271,5.953,2.821,44.419,17.052,44.312
		c9.503-0.071,14.559-7.734,15.229-16.63c-4.015-8.616-8.581-20.201-12.467-31.58C662.321,45.071,641.982,45.121,636.712,41.575z"/>
  <path clip-path="url(#SVGID_2_)" fill="#F3CC97" d="M615.137,58.587c-3.572-0.001-7.233,0.13-8.938,2.077
		c-2.97,3.394-11.031,2.546-12.304-1.909c-1.273-4.455-10.821-20.154-15.7-14.851S575.438,70.847,587.742,77
		c12.305,6.151,19.729,22.699,19.942,29.912c0.212,7.214,15.273,36.701,25.881,44.55c8.411,6.224,22.545-2.754,27.832-10.442
		c-11.513-13.583-31.324-52.16-37.145-64.578C620.786,69.045,618.33,63.318,615.137,58.587z"/>
  <path clip-path="url(#SVGID_2_)" fill="#F3CC97" d="M575.646,119.19c-13.396-22.063-29.154-54.37-31.913-57.522
		c-2.605-2.977-31.853-23.932-40.787-30.505c1.381,3.667,3.339,7.975,6.032,13.077c4.573,8.663-5.728,22.275-2.545,30.55
		c3.182,8.273,36.487,40.945,37.973,50.066c1.486,9.122,3.606,33.519,32.246,22.699c8.673-3.276,12.75-6.358,14.096-9.363
		C587.083,135.562,582.425,130.354,575.646,119.19z"/>
  <path clip-path="url(#SVGID_2_)" fill="#D3915A" d="M450.361,18.015c-1.586,5.681,7.239,13.297,11.967,15.217
		c4.855,1.972,18.321-4.875,17.73-10.194c-0.236-2.116-2.513-6.204-5.171-8.717c-2.66-2.512-8.126-5.023-11.081-4.58
		S451.423,14.212,450.361,18.015z"/>
  <path clip-path="url(#SVGID_2_)" fill="#E7AF77" d="M575.646,34.187c9.604,8.767,20.007,7.816,31.026,15.66
		c8.717,6.206,11.672,13.987,17.581,26.595c4.583,9.779,17.845,35.784,28.897,53.03c-0.472-7.562-1.8-22-4.52-28.799
		c-0.491-1.228-2.659-16.548-7.388-20.685c-9.593-8.394-9.455-10.934-10.637-20.389c-0.661-5.277-14.063-12.603-15.366-13.297
		c-4.432-2.363-18.602-7.766-25.116-13.002c-12.911-10.375-6.213-13.733,3.108-13.306c-4.75-1.681-9.532-3.55-15.075-6.64
		c-2.176-1.213-13.84-6.943-20.537-9.308s-9.249-1.528-13.101,5.221c-1.474,2.581-1.969,8.963-1.969,8.963s-0.643-0.165-1.782-0.478
		c0.419,0.214,0.855,0.466,1.339,0.772C546.627,21.403,568.751,27.894,575.646,34.187z"/>
  <path clip-path="url(#SVGID_2_)" fill="#D3915A" d="M545.323,13.413c2.955,1.773,13.297,6.951,18.616,7.092
		c5.613,0.147,10.489-5.17,9.456-7.683c-1.035-2.512-18.082-8.71-20.39-8.864C548.573,3.663,541.187,10.931,545.323,13.413z"/>
  <path clip-path="url(#SVGID_2_)" fill="#E7AF77" d="M643.903,62.554c8.33,2.956,21.029,6.623,25.936,4.379
		c-0.682-1.899-1.352-3.807-2.001-5.709c-5.517-16.153-25.855-16.104-31.126-19.649c-1.563-1.052-3.214-2.108-4.906-3.155
		C638.034,44.072,646.71,51.089,643.903,62.554z"/>
  <path clip-path="url(#SVGID_2_)" fill="#E7AF77" d="M639.736,42.905c-7.526-8.369-19.263-19.748-19.688-28.269
		c-2.54,4.117-3.425,10.365-3.774,14.822c-2.458-1.321-4.741-2.424-6.922-3.397c6.358,3.142,18.309,9.424,27.359,15.514
		C637.449,42.071,638.489,42.496,639.736,42.905z"/>
  <path clip-path="url(#SVGID_2_)" fill="#D3915A" d="M648.335,70.533l5.951,1.766c1.974,0.548,3.97,1.104,5.943,1.139
		c1.981,0.096,3.81-0.724,5.317-2.073c1.517-1.332,2.876-2.913,4.292-4.431c-1.11,1.755-2.256,3.498-3.763,5.004
		c-0.747,0.755-1.628,1.422-2.638,1.881c-1.014,0.452-2.14,0.635-3.224,0.619c-2.182-0.065-4.213-0.694-6.17-1.399
		C652.084,72.327,650.193,71.464,648.335,70.533z"/>
  <path clip-path="url(#SVGID_2_)" fill="#D3915A" d="M691.181,95.649c0.504,1.841,1.214,3.591,2.14,5.2
		c0.935,1.6,2.097,3.061,3.499,4.238c1.387,1.19,3.021,2.088,4.786,2.574c1.767,0.474,3.668,0.522,5.532,0.103
		c-1.737,0.793-3.771,1.041-5.706,0.658c-1.943-0.362-3.757-1.305-5.259-2.573c-1.496-1.283-2.703-2.88-3.539-4.637
		C691.78,99.461,691.303,97.553,691.181,95.649z"/>
  <path clip-path="url(#SVGID_2_)" fill="#D3915A" d="M663.996,56.348c-1.999,1.493-4.301,2.578-6.756,3.18
		c-1.23,0.282-2.502,0.441-3.772,0.375c-1.267-0.056-2.534-0.333-3.654-0.895c2.473,0.342,4.853,0.108,7.197-0.453
		C659.36,58.011,661.631,57.142,663.996,56.348z"/>
  <path clip-path="url(#SVGID_2_)" fill="#D3915A" d="M648.335,46.006c-1.028,0.33-2.089,0.517-3.125,0.698
		c-1.031,0.192-2.053,0.356-2.959,0.73c-0.917,0.346-1.705,0.928-2.389,1.67c-0.688,0.742-1.262,1.623-1.869,2.516
		c0.225-1.055,0.62-2.083,1.259-3.002c0.62-0.928,1.563-1.695,2.63-2.112c1.071-0.415,2.177-0.536,3.246-0.575
		C646.202,45.894,647.258,45.925,648.335,46.006z"/>
  <path clip-path="url(#SVGID_2_)" fill="#D3915A" d="M611.399,60.486c-2.953,1.353-6.379,1.845-9.66,1.206
		c-1.634-0.331-3.222-0.946-4.609-1.868c-1.397-0.904-2.576-2.111-3.46-3.476c2.361,2.236,5.182,3.78,8.265,4.363
		C605.012,61.335,608.212,61.083,611.399,60.486z"/>
  <path clip-path="url(#SVGID_2_)" fill="#D3915A" d="M618.786,67.578c-1.594,0.587-3.198,1.123-4.824,1.589
		c-1.624,0.474-3.262,0.906-4.967,1.182c-0.854,0.121-1.729,0.197-2.606,0.162c-0.877-0.046-1.744-0.173-2.577-0.386
		c-1.671-0.407-3.25-1.017-4.822-1.661l4.975,0.896c1.642,0.266,3.251,0.277,4.883,0.001c1.633-0.243,3.274-0.631,4.931-0.948
		C615.431,68.074,617.101,67.79,618.786,67.578z"/>
  <path clip-path="url(#SVGID_2_)" fill="#D3915A" d="M594.261,43.939c-2.032-0.57-4.207-0.512-6.004,0.397
		c-1.793,0.899-3.176,2.486-3.961,4.328c-0.816,1.837-1.055,3.911-0.845,5.94c0.104,1.018,0.335,2.029,0.681,3.007
		c0.311,0.994,0.771,1.937,1.264,2.874c-1.354-1.629-2.313-3.627-2.705-5.77c-0.409-2.136-0.19-4.419,0.689-6.452
		c0.881-2.017,2.481-3.802,4.564-4.627c1.031-0.409,2.142-0.595,3.229-0.54C592.259,43.184,593.314,43.46,594.261,43.939z"/>
  <path clip-path="url(#SVGID_2_)" fill="#D3915A" d="M585.396,19.117c-1.912,0.82-3.454,2.037-4.749,3.523
		c-1.303,1.481-2.334,3.174-3.229,5.047c0.049-1.046,0.341-2.075,0.771-3.037c0.426-0.967,1.012-1.863,1.707-2.669
		c0.709-0.793,1.533-1.499,2.474-2.009C583.302,19.458,584.349,19.128,585.396,19.117z"/>
  <path clip-path="url(#SVGID_2_)" fill="#D3915A" d="M530.436,30.05c-0.523-1.193-0.86-2.478-0.998-3.788
		c-0.146-1.31-0.112-2.652,0.182-3.976c0.313-1.286,0.914-2.698,2.211-3.451c0.634-0.369,1.382-0.481,2.059-0.394
		c0.68,0.105,1.309,0.334,1.866,0.675c-1.254-0.306-2.597-0.313-3.505,0.376c-0.907,0.68-1.388,1.843-1.657,3.021
		c-0.285,1.19-0.364,2.448-0.379,3.707C530.218,27.483,530.285,28.757,530.436,30.05z"/>
  <path clip-path="url(#SVGID_2_)" fill="#D3915A" d="M543.732,69.054c-0.167,1.136-0.711,2.206-1.422,3.132
		c-0.737,0.911-1.654,1.665-2.643,2.291c-1.994,1.243-4.293,1.904-6.602,2.177c-2.315,0.241-4.68,0.091-6.917-0.543
		c-1.115-0.318-2.202-0.732-3.23-1.258c-1.011-0.557-1.981-1.186-2.825-1.957c1.942,1.193,4.054,2.024,6.236,2.467
		c2.184,0.435,4.425,0.548,6.626,0.298c2.2-0.236,4.369-0.833,6.33-1.848c0.977-0.511,1.889-1.154,2.658-1.949
		C542.738,71.089,543.347,70.129,543.732,69.054z"/>
  <path clip-path="url(#SVGID_2_)" fill="#D3915A" d="M537.527,58.712c-0.506,1.039-1.244,1.956-2.064,2.771
		c-0.821,0.82-1.754,1.525-2.752,2.13c-1.007,0.584-2.09,1.074-3.251,1.317c-1.143,0.247-2.427,0.248-3.457-0.309
		c1.146,0.146,2.22-0.088,3.247-0.443c1.024-0.369,2.01-0.859,2.952-1.426c0.951-0.554,1.86-1.188,2.75-1.855
		C535.837,60.22,536.69,59.501,537.527,58.712z"/>
  <path clip-path="url(#SVGID_2_)" fill="#D3915A" d="M528.663,49.847c-1.593,0.197-3.13,0.564-4.567,1.139
		c-1.432,0.588-2.763,1.381-3.938,2.375c-2.38,1.975-4.112,4.632-5.68,7.421c0.832-3.087,2.505-6.053,5.039-8.188
		c1.271-1.05,2.744-1.873,4.321-2.341C525.411,49.769,527.071,49.657,528.663,49.847z"/>
  <path clip-path="url(#SVGID_2_)" fill="#D3915A" d="M497.045,27.982c-0.936-0.158-1.877-0.126-2.805-0.025
		c-0.929,0.087-1.846,0.253-2.744,0.469c-1.791,0.446-3.522,1.129-5.026,2.146c-1.517,0.997-2.779,2.35-3.672,3.943
		c-0.89,1.597-1.42,3.41-1.709,5.287c-0.1-1.893,0.178-3.861,1.014-5.641c0.81-1.789,2.176-3.328,3.811-4.42
		c1.645-1.088,3.519-1.771,5.428-2.078C493.238,27.375,495.239,27.32,497.045,27.982z"/>
  <path clip-path="url(#SVGID_2_)" fill="#D3915A" d="M484.64,14.097c0,2.839,15.809,8.568,22.014,8.422
		c6.204-0.148,11.819-4.285,11.523-8.57c-0.295-4.284-13.479-8.038-17.582-9.308C494.39,2.721,484.64,7.892,484.64,14.097z"/>
  <path clip-path="url(#SVGID_2_)" fill="#E7AF77" d="M501.576,30.149c6.753,5.047,39.397,28.366,42.156,31.519
		s18.517,35.459,31.913,57.522c10.754,17.713,16.174,20.441,20.748,21.645c-4.755-11.019-8.902-35.315-14.248-48.437
		c-6.5-15.956-15.365-12.41-22.161-20.093s-12.706-23.049-17.826-28.958c-5.121-5.909-15.564-5.023-19.701-10.343
		c-4.137-5.317-11.229-6.204-19.206-7.092c-6.564-0.729-14.717-7.458-18.887-14.758c-1.332,3.403-1.085,7.476,0.419,11.017
		c-0.913-0.963-1.785-1.842-2.627-2.657C490.903,29.307,492.665,23.49,501.576,30.149z"/>
  <path clip-path="url(#SVGID_2_)" fill="#D3915A" d="M425.707,158.6c4.866,1.2,10.887,0.802,14.753-2.251
		c2.281-1.802,4.867-5.555,3.803-16.813c-1.121-11.844-3.449-18.261-10.698-21.063s-17.592-1.601-18.2-0.55
		C414.756,118.973,425.707,158.6,425.707,158.6z"/>
  <path clip-path="url(#SVGID_2_)" fill="#8C6239" d="M605.679,24.196c5.836,2.309,11.454,5.095,17.011,8
		c2.77,1.47,5.504,3.009,8.198,4.623c1.352,0.798,2.683,1.634,4.001,2.491c0.66,0.428,1.317,0.859,1.963,1.311
		c0.333,0.234,0.615,0.426,0.908,0.582c0.309,0.168,0.64,0.322,0.982,0.465c2.776,1.137,5.871,1.894,8.842,2.891
		c2.987,0.986,5.945,2.118,8.741,3.587c2.786,1.468,5.436,3.286,7.58,5.643c1.068,1.177,2.011,2.47,2.821,3.846
		c0.808,1.367,1.429,2.886,1.95,4.348c4.468,11.655,9.057,23.3,14.554,34.433c0.685,1.39,1.395,2.764,2.148,4.104
		c0.369,0.656,0.788,1.345,1.166,2.057c0.381,0.704,0.726,1.421,1.065,2.138c1.345,2.873,2.501,5.799,3.598,8.742
		c2.155,5.899,3.967,11.899,5.683,17.916l-0.189,0.066c-2.342-5.812-4.515-11.672-6.948-17.41c-1.198-2.872-2.456-5.721-3.87-8.461
		c-0.72-1.389-1.443-2.654-2.28-4.025c-0.805-1.372-1.555-2.764-2.277-4.166c-2.849-5.629-5.229-11.439-7.505-17.282
		c-2.275-5.844-4.32-11.771-6.18-17.755c-0.854-2.972-2.181-5.782-4.259-8.08c-2.024-2.32-4.579-4.163-7.353-5.534
		c-2.775-1.384-5.751-2.318-8.759-3.096c-1.505-0.392-3.021-0.746-4.547-1.114c-1.523-0.378-3.06-0.729-4.599-1.299
		c-0.384-0.146-0.769-0.308-1.152-0.501c-0.404-0.199-0.775-0.439-1.089-0.644l-1.959-1.262l-3.956-2.475
		c-2.652-1.629-5.337-3.213-8.033-4.781c-5.391-3.139-10.836-6.205-16.339-9.172L605.679,24.196z"/>
  <path clip-path="url(#SVGID_2_)" fill="#D3915A" d="M555.71,77.849c-4.75-9.25-9-21.5-19-26.5
		c-6.061-3.03-20.996-18.212-37.593-22.841c0.759,0.443,1.572,0.979,2.459,1.641c6.753,5.047,39.397,28.366,42.156,31.519
		s18.517,35.459,31.913,57.522c7.403,12.194,12.278,17.286,16.09,19.667c-9.583-9.703-13.777-29.909-18.525-38.758
		C567.71,89.849,558.708,83.687,555.71,77.849z"/>
  <path clip-path="url(#SVGID_2_)" fill="#D3915A" d="M639.46,89.349c-14.166-10.166-16.775-36.315-31.999-42.999
		c-12.603-5.533-21.108-14.606-43.661-18.861c4.9,2.14,9.362,4.432,11.846,6.698c9.604,8.767,20.007,7.816,31.026,15.66
		c8.717,6.206,11.672,13.987,17.581,26.595c4.583,9.779,17.845,35.784,28.897,53.03C642.841,113.095,647.167,94.88,639.46,89.349z"/>
  <path clip-path="url(#SVGID_2_)" fill="#8C6239" d="M661.852,141.711c-1.43-1.482-2.746-3.079-4.011-4.705
		c-1.269-1.626-2.496-3.284-3.661-4.983c-2.336-3.396-4.598-6.841-6.744-10.354c-4.296-7.025-8.339-14.2-12.105-21.515
		c-3.733-7.333-7.237-14.776-10.731-22.223c-1.732-3.729-3.436-7.471-5.26-11.143c-1.804-3.675-3.867-7.236-6.451-10.351
		c-2.591-3.123-5.789-5.616-9.281-7.647c-3.487-2.035-7.281-3.454-11.152-4.784c-3.865-1.329-7.858-2.641-11.559-4.725
		c-1.851-1.026-3.602-2.253-5.21-3.637c-0.841-0.739-1.482-1.332-2.303-1.896c-0.797-0.571-1.651-1.088-2.512-1.599
		c-3.472-2.023-7.231-3.648-10.981-5.268c-3.762-1.608-7.582-3.104-11.396-4.659c-1.909-0.782-3.807-1.576-5.679-2.556
		c-0.455-0.238-0.964-0.554-1.362-0.823c-0.417-0.269-0.843-0.519-1.279-0.74c-0.871-0.446-1.808-0.757-2.788-1.035
		c-3.966-1.044-7.91-2.362-11.711-3.916l0.067-0.188c1.964,0.605,3.93,1.195,5.91,1.719c1.981,0.533,3.971,0.944,5.988,1.406
		c1.008,0.234,2.047,0.521,3.03,0.966c0.491,0.219,0.966,0.468,1.426,0.734c0.468,0.283,0.844,0.49,1.31,0.709
		c1.812,0.843,3.751,1.534,5.659,2.267c7.672,2.896,15.521,5.469,22.872,9.534c0.916,0.519,1.813,1.083,2.688,1.706
		c0.441,0.316,0.858,0.63,1.297,1.003l1.154,1.016c1.505,1.298,3.134,2.439,4.854,3.445c3.444,2.018,7.283,3.361,11.154,4.761
		c3.875,1.381,7.779,2.974,11.339,5.196c3.563,2.171,6.789,5.006,9.319,8.323c2.572,3.305,4.425,7.035,6.229,10.728
		c1.774,3.717,3.412,7.484,5.214,11.172c1.8,3.688,3.724,7.318,5.679,10.929c1.949,3.614,3.938,7.207,5.937,10.791
		c3.963,7.188,7.88,14.396,11.969,21.505c2.053,3.549,4.099,7.102,6.286,10.568c2.186,3.466,4.4,6.916,6.949,10.136L661.852,141.711
		z"/>
  <path clip-path="url(#SVGID_2_)" fill="#A67C52" d="M562.955,167.22c0.103,2.257,0.919,4.385,1.836,6.404
		c0.919,2.029,2.05,3.954,3.326,5.76c2.564,3.59,5.815,6.731,9.719,8.661c0.968,0.492,1.978,0.896,3.012,1.221
		c1.027,0.319,2.129,0.55,3.206,0.785c2.169,0.456,4.372,0.729,6.578,0.793c2.202,0.041,4.424-0.138,6.536-0.763
		c1.057-0.304,2.086-0.725,3.019-1.316c0.915-0.6,1.784-1.353,2.273-2.379c-0.334,1.094-1.138,2.002-2.036,2.711
		c-0.907,0.716-1.938,1.267-3.01,1.697c-2.161,0.836-4.479,1.194-6.777,1.257c-2.306,0.078-4.603-0.165-6.859-0.557
		c-2.242-0.385-4.543-0.996-6.637-2.051c-4.199-2.1-7.586-5.507-10.04-9.375c-1.236-1.937-2.253-4.004-3.024-6.155
		c-0.372-1.081-0.686-2.182-0.909-3.3C562.945,169.499,562.798,168.346,562.955,167.22z"/>
  <path clip-path="url(#SVGID_2_)" fill="#A67C52" d="M626.383,175.601c0.688,1.71,1.893,3.127,3.145,4.435
		c1.255,1.314,2.646,2.49,4.116,3.536c2.944,2.071,6.296,3.612,9.823,4.043c0.878,0.118,1.765,0.156,2.649,0.127
		c0.865-0.031,1.798-0.156,2.681-0.262c1.791-0.236,3.563-0.62,5.277-1.168c1.706-0.563,3.369-1.301,4.827-2.353
		c1.431-1.03,2.803-2.426,3.076-4.274c0.033,0.931-0.333,1.85-0.837,2.637c-0.503,0.797-1.148,1.499-1.857,2.12
		c-1.438,1.228-3.126,2.129-4.879,2.798c-1.754,0.686-3.587,1.116-5.433,1.426c-1.819,0.304-3.771,0.465-5.662,0.214
		c-3.801-0.482-7.328-2.19-10.264-4.506c-1.475-1.157-2.816-2.474-3.991-3.922c-0.579-0.731-1.117-1.494-1.592-2.295
		C626.991,177.358,626.566,176.51,626.383,175.601z"/>
  <path clip-path="url(#SVGID_2_)" fill="#A67C52" d="M698.358,179.115c1.33,0.395,2.729,0.348,4.085,0.222
		c1.362-0.115,2.71-0.377,4.013-0.767c2.596-0.776,5.074-2.023,6.978-3.903c0.978-0.921,1.714-2.02,2.414-3.205
		c0.7-1.165,1.299-2.391,1.786-3.655c0.479-1.266,0.811-2.597,0.866-3.947c0.063-1.325-0.118-2.787-1.08-3.813
		c0.564,0.416,0.935,1.062,1.163,1.727c0.234,0.67,0.346,1.379,0.38,2.088c0.045,1.422-0.226,2.833-0.639,4.183
		c-0.407,1.356-1.016,2.638-1.695,3.871c-0.672,1.215-1.491,2.44-2.523,3.438c-2.063,2.013-4.719,3.3-7.46,3.937
		c-1.374,0.315-2.774,0.498-4.178,0.522C701.078,179.779,699.628,179.722,698.358,179.115z"/>
  <path clip-path="url(#SVGID_2_)" fill="#F3CC97" d="M446.452,141.339c1.696,5.729,3.396,29.276,2.122,35.217
		s5.516,21.215,17.395,9.971c9.681-9.162,1.794-40.674-3.842-55.677c-8.775-10.873-18.227-12.885-26.395-14.037
		C444.443,124.121,444.955,136.282,446.452,141.339z"/>
  <path clip-path="url(#SVGID_2_)" fill="#D3915A" d="M628.424,11.84c-3.825-1.809-9.255,3.863-8.126,6.943
		c1.626,4.433,14.774,12.411,17.139,13.593c2.363,1.183,7.535,1.625,8.126-2.216C646.153,26.319,636.55,15.681,628.424,11.84z"/>
  <path opacity="0.85" clip-path="url(#SVGID_2_)" fill="#D3915A" d="M426.21,195.349c0.359,2.543,1.771,4.785,3.689,6.325
		c1.922,1.545,4.313,2.478,6.754,2.603c2.444,0.153,4.901-0.55,7-1.865c1.058-0.65,2.023-1.46,2.893-2.37
		c0.899-0.887,1.668-1.902,2.414-2.942c-1.111,2.301-2.73,4.422-4.879,5.952c-2.122,1.554-4.818,2.372-7.482,2.224
		c-2.657-0.158-5.26-1.218-7.199-3.021c-0.97-0.896-1.783-1.959-2.355-3.138C426.497,197.927,426.179,196.632,426.21,195.349z"/>
  <path clip-path="url(#SVGID_2_)" fill="#8C6239" d="M284.819,23.546c-1.292-4.138-4.153-7.885-8.07-9.823
		c-1.945-0.954-4.203-1.361-6.328-0.871c-1.067,0.225-2.04,0.719-2.987,1.267c-0.954,0.529-1.898,1.079-2.815,1.669
		c-1.863,1.148-3.463,2.638-5.039,4.155c-1.615,1.47-2.789,3.339-4.251,4.975c-2.91,3.303-6.606,5.766-10.298,8.076
		c-1.83,1.188-3.569,2.516-5.146,4.023c-1.581,1.502-3.012,3.156-4.422,4.822c-2.83,3.331-5.534,6.765-8.306,10.148
		c-5.497,6.804-11.592,13.129-18.237,18.821c-3.326,2.834-5.851,6.484-7.862,10.345c-2.018,3.871-3.562,7.97-5.005,12.09
		c-1.446,4.123-2.759,8.297-4.387,12.363c-0.795,2.043-1.801,3.993-2.686,5.985c-0.894,1.992-1.75,4.003-2.598,6.018
		c-1.696,4.027-3.356,8.073-5.125,12.073c-0.885,2-1.794,3.989-2.774,5.947c-1.004,1.936-1.966,3.936-3.396,5.633
		c-1.411,1.691-3.118,3.147-5.062,4.202c-0.973,0.522-2.013,0.944-3.115,1.143c-1.084,0.191-2.311,0.147-3.283-0.52
		c-1.002-0.655-1.384-1.85-1.636-2.888c-0.268-1.077-0.381-2.191-0.344-3.3c0.078-2.227,0.76-4.366,1.582-6.394
		c1.694-4.055,3.819-7.878,5.622-11.854c1.836-3.96,3.455-8.019,4.798-12.169c1.344-4.151,2.432-8.384,3.283-12.661
		c0.428-2.141,0.799-4.291,1.12-6.449l0.46-3.249c0.189-1.104,0.526-2.169,0.974-3.185c1.846-4.087,5.161-7.194,8.494-9.991
		c1.686-1.404,3.43-2.729,5.124-4.097c1.712-1.346,3.243-2.883,4.769-4.445c3.04-3.13,5.868-6.458,8.813-9.701
		c0.741-0.806,1.489-1.609,2.285-2.376c0.781-0.789,1.734-1.444,2.696-1.973c1.938-1.071,3.949-1.924,5.906-2.885
		c3.925-1.877,7.673-4.151,10.867-7.091c3.181-2.921,6.124-6.287,7.573-10.359c0.72-2.02,1.016-4.184,0.84-6.32
		c-0.146-2.148-0.865-4.188-1.837-6.119c-1.02-1.911-1.985-3.89-3.44-5.456c-1.42-1.593-3.247-2.811-5.279-3.449
		c-2.032-0.649-4.217-0.752-6.354-0.533c-2.143,0.217-4.257,0.736-6.318,1.404c-4.129,1.347-8.059,3.26-11.905,5.314
		c-7.781,4.053-15.927,7.339-24.299,9.967l-1.959,0.615l1.649-1.259c3.39-2.583,5.74-6.878,5.186-11.194
		c-0.423-4.303-3.729-8.03-7.755-9.434c-0.508-0.167-1.012-0.291-1.54-0.339c-0.568-0.059-1.135-0.166-1.68-0.29
		c-1.09-0.271-2.099-0.465-3.135-0.258c-2.072,0.413-4.025,1.546-5.917,2.634c-1.896,1.123-3.737,2.339-5.571,3.581
		c-1.851,1.244-3.763,2.381-5.681,3.496l-5.763,3.311c-1.926,1.057-3.606,2.444-5.354,3.825c-0.87,0.688-1.76,1.369-2.699,1.992
		l-2.826,1.769c-1.894,1.165-3.733,2.354-5.655,3.512c-1.943,1.138-4.018,1.983-5.965,2.975c-1.926,0.999-3.781,2.256-5.676,3.392
		l-11.292,7.007l-1.237,0.769l0.635-1.314c0.622-1.286,1.193-2.616,1.691-3.958c0.485-1.339,0.938-2.721,1.073-4.084
		c-0.01-2.697-1.235-5.498-3.108-7.544c-1.887-2.065-4.469-3.532-7.212-4.053c-2.78-0.687-5.422,0.739-7.789,2.282
		c-2.362,1.602-4.496,3.555-6.513,5.607c-2.014,2.06-3.916,4.24-5.738,6.479c-3.565,4.511-6.475,9.542-9.522,14.479
		c-0.769,1.214-1.528,2.518-2.525,3.616c-0.945,1.113-1.91,2.2-2.892,3.274c-1.96,2.149-3.98,4.231-5.908,6.379
		c-1.932,2.146-3.753,4.379-5.358,6.762c-1.6,2.375-2.992,4.935-4.478,7.42l-17.401,30.108c-1.345,2.537-2.417,5.195-3.006,7.99
		c-0.604,2.79-0.865,5.682-1.208,8.56c-0.642,5.772-1.522,11.53-2.644,17.232c-1.125,5.698-2.378,11.377-3.902,16.987
		c-1.518,5.613-3.235,11.163-5.039,16.681c-1.803,5.519-3.7,11.003-5.583,16.487c-1.86,5.485-3.803,10.962-5.266,16.532
		c-0.745,2.771-1.059,5.614-1.278,8.498c-0.216,2.876-0.319,5.768-0.379,8.66c-0.107,5.784-0.038,11.582,0.159,17.364l-0.548-0.528
		l108.357-0.191l108.358-0.018l-0.455,0.412c1.357-11.811,2.893-23.57,4.666-35.317c0.229-1.469,0.467-2.936,0.733-4.401
		c0.137-0.732,0.273-1.462,0.457-2.203c0.092-0.384,0.227-0.732,0.3-1.066c0.084-0.35,0.155-0.71,0.224-1.069
		c0.514-2.896,0.843-5.852,1.187-8.793l1.886-17.701c0.319-2.954,0.748-5.906,1.356-8.825c0.604-2.919,1.528-5.812,2.947-8.456
		c2.739-5.248,5.284-10.615,7.811-15.98c2.51-5.374,4.951-10.78,7.261-16.241c2.282-5.467,4.536-10.971,6.175-16.655l0.009-0.031
		l0.017-0.024c3.274-5.175,6.438-10.422,9.534-15.704c1.546-2.645,3.074-5.298,4.569-7.971c1.478-2.677,2.997-5.35,4.264-8.119
		l0.005-0.007l0.001-0.005c2.124-3.955,4.231-7.918,6.278-11.911c2.043-3.995,4.04-8.015,5.83-12.13
		c1.763-4.113,3.396-8.336,4.066-12.773c0.329-2.214,0.366-4.471,0.089-6.693C286.43,27.755,285.574,25.664,284.819,23.546z
		 M284.935,23.512c0.756,2.099,1.626,4.202,1.943,6.446c0.287,2.232,0.258,4.505-0.066,6.732c-0.66,4.467-2.285,8.707-4.038,12.833
		c-1.778,4.128-3.764,8.158-5.794,12.163c-2.036,4.003-4.13,7.974-6.241,11.936l0.005-0.012c-1.271,2.808-2.777,5.475-4.25,8.162
		c-1.488,2.68-3.009,5.343-4.547,7.992c-3.081,5.298-6.228,10.556-9.488,15.747l0.025-0.056c-1.632,5.729-3.872,11.244-6.139,16.729
		c-2.295,5.476-4.721,10.896-7.216,16.284c-2.51,5.38-5.034,10.749-7.769,16.03c-1.382,2.598-2.274,5.418-2.861,8.307
		c-0.594,2.893-1.009,5.821-1.316,8.768l-1.823,17.71c-0.334,2.95-0.651,5.899-1.163,8.849c-0.066,0.369-0.139,0.738-0.228,1.11
		c-0.087,0.392-0.221,0.737-0.298,1.075c-0.171,0.7-0.307,1.431-0.438,2.155c-0.26,1.454-0.492,2.918-0.715,4.382
		c-1.727,11.727-3.223,23.515-4.533,35.29l-0.046,0.41l-0.409,0.001l-108.357,0.282l-108.358,0.11H0.282l-0.018-0.529
		c-0.194-5.811-0.259-11.613-0.147-17.427c0.062-2.905,0.169-5.814,0.389-8.72c0.222-2.894,0.55-5.845,1.314-8.681
		c1.49-5.653,3.438-11.119,5.304-16.612c1.889-5.486,3.787-10.962,5.592-16.469c1.803-5.505,3.52-11.038,5.035-16.623
		c1.521-5.58,2.773-11.236,3.899-16.914c1.12-5.682,1.999-11.397,2.645-17.151c0.345-2.875,0.606-5.778,1.23-8.661
		c0.609-2.887,1.731-5.657,3.104-8.238l17.445-30.133c1.489-2.489,2.874-5.033,4.519-7.469c1.639-2.427,3.496-4.694,5.446-6.857
		c1.948-2.166,3.971-4.245,5.922-6.38c0.976-1.065,1.938-2.146,2.868-3.243c0.961-1.051,1.672-2.274,2.452-3.502
		c3.048-4.922,5.966-9.967,9.604-14.564c1.844-2.255,3.76-4.448,5.804-6.533c2.046-2.077,4.214-4.063,6.658-5.716
		c1.226-0.817,2.526-1.55,3.935-2.069c0.703-0.26,1.454-0.467,2.238-0.504c0.769-0.043,1.527,0.03,2.269,0.164
		c2.955,0.57,5.672,2.123,7.693,4.334c1.998,2.229,3.314,5.098,3.32,8.196c-0.157,1.53-0.63,2.929-1.128,4.308
		c-0.514,1.377-1.09,2.714-1.731,4.038l-0.603-0.546l11.304-6.997c1.906-1.138,3.728-2.374,5.735-3.416
		c2.002-1.015,4.045-1.845,5.932-2.947c1.872-1.126,3.757-2.338,5.638-3.492l2.812-1.753c0.906-0.601,1.779-1.268,2.647-1.95
		c1.724-1.361,3.482-2.807,5.451-3.884l5.767-3.304c1.913-1.109,3.813-2.236,5.642-3.462c1.834-1.24,3.693-2.465,5.611-3.599
		c1.932-1.098,3.88-2.259,6.178-2.722c1.16-0.238,2.387,0.002,3.435,0.269c0.533,0.123,1.058,0.224,1.591,0.279
		c0.576,0.051,1.155,0.193,1.697,0.376c4.305,1.506,7.785,5.444,8.251,10.064c0.259,2.256-0.169,4.627-1.188,6.655
		c-1.02,2.046-2.486,3.816-4.317,5.215l-0.309-0.644c8.31-2.598,16.449-5.869,24.18-9.886c3.86-2.057,7.828-3.985,12.021-5.349
		c2.095-0.675,4.252-1.203,6.46-1.426c2.201-0.22,4.479-0.117,6.622,0.571c2.143,0.673,4.081,1.971,5.563,3.642
		c0.749,0.83,1.396,1.744,1.961,2.702c0.545,0.972,1.063,1.907,1.572,2.901c0.989,1.962,1.748,4.13,1.896,6.359
		c0.181,2.223-0.132,4.485-0.883,6.581c-1.514,4.227-4.534,7.651-7.751,10.603c-3.255,2.99-7.068,5.294-11.022,7.179
		c-8.781,2.577-13.302,10.714-19.571,16.772c-1.527,1.56-3.095,3.124-4.826,4.479c-1.708,1.374-3.451,2.689-5.129,4.08
		c-3.319,2.771-6.585,5.839-8.377,9.791c-0.436,0.98-0.764,2.016-0.945,3.065l-0.468,3.241c-0.326,2.166-0.704,4.322-1.138,6.469
		c-0.865,4.293-1.966,8.541-3.326,12.704c-1.355,4.165-2.992,8.237-4.841,12.205c-1.817,3.983-3.956,7.812-5.642,11.827
		c-0.821,2.007-1.49,4.104-1.57,6.265c-0.039,1.077,0.069,2.157,0.327,3.204c0.253,1.044,0.601,2.105,1.491,2.691
		c0.858,0.595,1.992,0.65,3.032,0.471c1.054-0.186,2.066-0.592,3.017-1.101c1.903-1.026,3.587-2.457,4.978-4.114
		c1.401-1.655,2.363-3.635,3.369-5.566c0.981-1.948,1.893-3.934,2.782-5.931c1.774-3.991,3.444-8.031,5.148-12.055
		c0.853-2.013,1.709-4.025,2.605-6.02c0.892-2.002,1.895-3.942,2.688-5.976c1.626-4.052,2.942-8.223,4.394-12.348
		c1.447-4.125,2.999-8.23,5.028-12.115c2.022-3.875,4.566-7.55,7.921-10.401c6.642-5.68,12.73-11.989,18.228-18.783
		c2.773-3.377,5.481-6.812,8.316-10.142c1.414-1.667,2.849-3.323,4.439-4.834c1.586-1.513,3.336-2.848,5.173-4.038
		c3.696-2.309,7.376-4.759,10.272-8.039c1.453-1.621,2.632-3.497,4.266-4.982c1.57-1.51,3.191-3.015,5.063-4.165
		c0.92-0.594,1.867-1.143,2.823-1.674c0.942-0.542,1.943-1.05,3.025-1.277c2.161-0.495,4.452-0.076,6.415,0.887
		C280.762,15.568,283.636,19.344,284.935,23.512z"/>
  <path clip-path="url(#SVGID_2_)" fill="#8C6239" d="M80.701,165.433c1.72-0.863,3.118-2.233,4.411-3.642
		c1.289-1.426,2.457-2.958,3.575-4.521c2.23-3.136,4.253-6.414,6.271-9.695c2-3.271,4.04-6.611,6.349-9.646
		c0.973-1.626,1.643-3.433,2.22-5.255c0.571-1.828,1.034-3.692,1.456-5.566c0.848-3.749,1.512-7.542,2.324-11.319
		c0.411-1.884,0.858-3.782,1.488-5.619l1.78-5.495c1.174-3.668,2.326-7.343,3.453-11.024l1.664-5.529
		c0.529-1.848,1.102-3.716,1.809-5.527c2.78-7.318,7.429-13.626,11.492-20.12c2.055-3.229,4.066-6.58,6.561-9.593
		c1.243-1.508,2.631-2.938,4.216-4.134c1.581-1.205,3.313-2.133,4.964-3.092c11.001-6.698,21.427-13.72,32.539-20.346
		c2.133-1.272,2.511-1.1,0.363,0.286c-10.793,6.963-21.379,14.236-32.3,21.1c-1.678,0.972-3.355,1.874-4.843,3.008
		c-1.494,1.126-2.812,2.479-4.019,3.939c-2.428,2.932-4.4,6.207-6.479,9.473c-4.157,6.493-8.813,12.694-11.598,19.828
		c-0.709,1.774-1.28,3.589-1.827,5.44l-1.71,5.524c-1.157,3.678-2.339,7.346-3.542,11.008c-1.171,3.686-2.58,7.258-3.337,11.021
		c-0.837,3.75-1.532,7.544-2.413,11.305c-0.444,1.879-0.93,3.752-1.527,5.596c-0.604,1.839-1.3,3.667-2.325,5.343
		c-2.385,3.077-4.399,6.308-6.452,9.585c-2.051,3.261-4.111,6.524-6.381,9.646c-1.139,1.557-2.326,3.082-3.638,4.502
		c-1.314,1.402-2.739,2.771-4.489,3.628L80.701,165.433z"/>
  <path clip-path="url(#SVGID_2_)" fill="#8C6239" d="M105.304,41.111c-2.586,2.797-4.298,4.883-6.354,8.094
		c-1.717,2.587-3.317,5.252-4.93,7.911c-0.808,1.33-1.613,2.659-2.45,3.978c-0.845,1.317-1.751,2.587-2.665,3.848
		c-3.7,5.005-7.339,10.036-10.824,15.184c-1.723,2.573-3.526,5.148-5.119,7.763c-1.537,2.664-2.792,5.503-3.979,8.364
		c-1.182,2.867-2.248,5.778-3.403,8.684c-1.188,2.824-1.936,5.842-2.731,8.836c-0.777,3.001-1.483,6.023-2.147,9.053
		c-0.335,1.514-0.657,3.029-0.942,4.547c-0.143,0.761-0.275,1.512-0.378,2.273c-0.12,0.803-0.28,1.565-0.445,2.334
		c-0.695,3.056-1.508,6.061-2.373,9.059c-0.44,1.499-0.882,2.989-1.413,4.479c-0.582,1.537-1.392,2.851-2.152,4.219
		c-1.554,2.704-3.162,5.366-4.768,8.031l-2.425,3.984c-0.781,1.337-1.641,2.656-2.271,4.053l-0.115-0.035
		c2.666-5.654,5.945-10.946,8.846-16.438c0.706-1.369,1.487-2.749,1.986-4.133c0.488-1.448,0.904-2.949,1.314-4.441
		c0.807-2.992,1.564-6.008,2.196-9.03c0.158-0.752,0.313-1.514,0.418-2.249c0.102-0.78,0.235-1.562,0.375-2.33
		c0.282-1.54,0.599-3.067,0.928-4.591c0.673-3.046,1.416-6.073,2.217-9.088c0.837-3,1.627-6.038,2.887-8.941
		c1.179-2.86,2.287-5.777,3.512-8.646c1.223-2.87,2.515-5.724,4.114-8.435c1.67-2.681,3.465-5.186,5.227-7.764
		c3.538-5.12,7.241-10.135,10.983-15.098c0.928-1.245,1.846-2.496,2.696-3.785c0.847-1.298,1.67-2.617,2.493-3.936
		c1.647-2.638,3.284-5.286,5.041-7.86c2.104-3.192,3.854-5.252,6.471-8.011C106.793,39.232,106.94,39.341,105.304,41.111z"/>
  <path clip-path="url(#SVGID_2_)" fill="#F2CF9F" d="M92.146,19.173c-1.772,0.887-10.4,10.843-9.914,13.52
		c0.601,3.305,6.459,6.16,10.215,4.658c3.051-1.221,11.116-10.966,11.116-13.069C103.563,22.275,95.15,17.671,92.146,19.173z"/>
  <path clip-path="url(#SVGID_2_)" fill="#FFE5CF" d="M102.16,23.179l-3.143-1.985c0,0-11.712,12.855-11.454,13.822
		c0.257,0.97,3.026,2.005,5.184-0.019C94.903,32.972,102.16,23.179,102.16,23.179z"/>
  <path clip-path="url(#SVGID_2_)" fill="#F2CF9F" d="M157.341,9.56c-2.162,1.697-2.649,7.547,1.182,10.528
		c4.226,3.291,6.93,4.193,11.437,2.089c4.073-1.9,11.072-7.088,12.318-9.313c1.245-2.227-6.197-8.9-10.016-10.025
		C169.454,2.013,163.172,4.98,157.341,9.56z"/>
  <path clip-path="url(#SVGID_2_)" fill="#FFE5CF" d="M157.862,13.94c0.753,1.59,11.286,5.013,18.14-0.76
		c-1.253,3.011-4.929,8.277-11.951,7.195C157.4,19.35,157.862,13.94,157.862,13.94z"/>
  <path clip-path="url(#SVGID_2_)" fill="#F2CF9F" d="M257.59,24.664c-2.507,4.43,9.261,14.189,17.639,9.278
		c6.13-3.539,8.256-7.243,9.612-9.194c2.676-3.846-8.827-16.54-17.303-10.783C262.401,17.454,260.134,20.17,257.59,24.664z"/>
  <path clip-path="url(#SVGID_2_)" fill="#FFE5CF" d="M262.604,25.837c0.754,1.589,11.287,5.013,18.14-0.761
		c-1.253,3.011-4.929,8.276-11.951,7.194C262.143,31.247,262.604,25.837,262.604,25.837z"/>
  <path clip-path="url(#SVGID_2_)" fill="#F2CF9F" d="M216.678,27.286c2.553,0.901,7.809,0.964,14.721-5.257
		c3.005-2.705,3.368-5.88,1.953-8.063c-2.854-4.405-8.412-8.312-14.872-6.058c-3.025,1.055-11.097,4.967-11.266,8.862
		C207.063,20.225,210.278,25.027,216.678,27.286z"/>
  <path clip-path="url(#SVGID_2_)" fill="#FFE5CF" d="M211.22,16.27c1.824-1.3,6.008,6.01,18.627,2.203
		C218.33,26.385,209.099,17.779,211.22,16.27z"/>
  <path clip-path="url(#SVGID_2_)" fill="#8C6239" d="M599.65,141.742c-1.79-0.397-3.645-0.605-5.432-1.248
		c-1.786-0.62-3.453-1.59-4.93-2.76c-2.956-2.35-5.43-5.194-7.69-8.148c-2.26-2.962-4.313-6.061-6.268-9.211
		c-1.958-3.146-3.808-6.35-5.593-9.589c-3.547-6.491-6.828-13.115-10.253-19.657c-3.44-6.534-6.967-13.024-10.6-19.449l-2.761-4.791
		l-1.418-2.358c-0.474-0.769-0.966-1.576-1.472-2.218c-0.471-0.542-1.261-1.153-1.947-1.711l-2.174-1.681l-4.418-3.312
		l-17.889-13.033l-8.896-6.596l-4.424-3.336l-2.208-1.683c-0.729-0.569-1.435-1.079-2.194-1.563c-1.509-0.954-3.102-1.714-4.83-2.18
		c-1.711-0.477-3.636-0.757-5.382-1.614c-1.751-0.823-3.22-2.062-4.537-3.376c-1.318-1.324-2.508-2.75-3.62-4.229l0.154-0.128
		c2.487,2.68,5.129,5.421,8.414,6.809c1.63,0.698,3.424,0.862,5.287,1.269c1.864,0.396,3.695,1.132,5.328,2.114
		c0.814,0.48,1.625,1.028,2.368,1.57l2.251,1.601l4.526,3.187c3.024,2.115,6.012,4.285,9.018,6.43
		c5.984,4.328,11.9,8.751,17.766,13.256c1.464,1.13,2.932,2.256,4.373,3.424l2.15,1.776c0.717,0.636,1.406,1.154,2.13,2.023
		c1.154,1.638,1.951,3.245,2.836,4.895l2.532,4.937c3.334,6.595,6.663,13.184,10.206,19.66c3.554,6.47,7.343,12.811,11.126,19.138
		c3.787,6.324,7.417,12.742,11.663,18.706c2.14,2.958,4.374,5.883,7.109,8.258c1.371,1.172,2.854,2.217,4.513,2.938
		c1.65,0.74,3.476,1.092,5.236,1.688L599.65,141.742z"/>
  <path opacity="0.85" clip-path="url(#SVGID_2_)" fill="#D3915A" d="M734.42,238.566c0.144-1.649,0.142-3.434,0.057-5.326
		c-12.106-12.912-33.593-13.363-43.517-6.892c-6.131,3.998-14.961,10.553-24.294,15.5h67.424
		C734.22,240.682,734.332,239.573,734.42,238.566z"/>
  <path clip-path="url(#SVGID_2_)" fill="#D3915A" d="M514.184,238.566c-0.787-4.333-18.125-29.548-23.245-40.976
		c-1.971-10.243-6.304-26.002-18.123-50.823c-4.692-9.854-10.13-16.594-15.696-21.176c4.88,11.007,9.165,27.479,15.105,37.132
		c7.092,11.525,9.159,22.458,9.159,31.913c8.274,15.365,21.571,32.799,23.639,41.073c0.42,1.681,1.587,3.813,3.209,6.139h7.405
		C514.943,240.87,514.398,239.751,514.184,238.566z"/>
  <path clip-path="url(#SVGID_2_)" fill="#D3915A" d="M531.617,162.724c-1.593-6.025-29.845-59.688-32.208-66.78
		c-2.364-7.092-7.387-21.865-17.729-26.299c-10.344-4.432-23.049-25.706-27.481-30.14c-3.068-3.068-6.136-9.535-7.438-14.599
		c-3.615,16.149,19.801,39.972,28.812,50.551c9.063,10.638,10.245,14.971,17.729,27.185c0.788,9.851,25.61,46.49,27.974,56.734
		s5.516,34.276,7.091,46.883c-3.925,5.887-5.405,27.509-6.471,35.59h22.161C543.89,224.97,541.243,199.138,531.617,162.724z"/>
  <path clip-path="url(#SVGID_2_)" fill="#E7AF77" d="M514.184,238.566c-0.787-4.333-18.125-29.548-23.245-40.976
		c-1.971-10.243-6.304-26.002-18.123-50.823c-4.692-9.854-10.13-16.594-15.696-21.176c4.88,11.007,9.165,27.479,15.105,37.132
		c7.092,11.525,9.159,22.458,9.159,31.913c8.274,15.365,21.571,32.799,23.639,41.073c0.42,1.681,1.587,3.813,3.209,6.139h7.405
		C514.943,240.87,514.398,239.751,514.184,238.566z"/>
  <path clip-path="url(#SVGID_2_)" fill="#FF00FF" d="M518.234,9.996c-0.009-0.004-0.018-0.009-0.026-0.013
		c-0.008-0.003-0.016-0.005-0.023-0.008L518.234,9.996z"/>
  <path clip-path="url(#SVGID_2_)" fill="#FF00FF" d="M616.61,28.833c-0.312-0.167-0.627-0.324-0.94-0.487
		c-0.031,0.352-0.077,0.704-0.104,1.057L616.61,28.833z"/>
  <path clip-path="url(#SVGID_2_)" fill="#FF00FF" d="M542.675,17.746c-0.186-0.049-0.37-0.105-0.557-0.154
		c-0.02,0.201-0.05,0.399-0.067,0.601L542.675,17.746z"/>
  <path clip-path="url(#SVGID_2_)" fill="#FF00FF" d="M627.639,11.109c0.045,0.028,0.087,0.062,0.132,0.091
		c0.058,0.007,0.115,0.008,0.173,0.017L627.639,11.109z"/>
  <path clip-path="url(#SVGID_2_)" fill="#FF00FF" d="M711.782,123c-0.004-0.031-0.009-0.061-0.013-0.09
		c-0.009-0.029-0.017-0.057-0.025-0.084L711.782,123z"/>
  <path clip-path="url(#SVGID_2_)" fill="#8C6239" d="M440.207,226.71l-0.001-0.003c-2.004-4.567-4.05-9.115-6.18-13.627
		c-1.069-2.253-2.153-4.5-3.327-6.705c-0.574-1.101-1.237-2.192-1.928-3.212c-0.642-1.054-1.161-2.186-1.591-3.347
		c-1.668-4.648-2.232-9.802-0.95-14.617c0.482-2.473,0.575-4.981,0.617-7.478c0.028-2.498-0.048-4.995-0.183-7.487
		c-0.284-4.984-0.765-9.959-1.577-14.892c-0.874-4.933-2.183-9.748-3.409-14.583l-3.821-14.464
		c-0.639-4.304-5.072-11.685,2.431-9.956c2.477,0.039,4.968,0.188,7.458,0.308c2.481,0.148,5.008,0.178,7.45,0.379
		c4.91,0.442,9.73,1.808,14.108,4.056c4.386,2.238,8.308,5.329,11.673,8.923c3.374,3.597,6.212,7.682,8.623,11.993
		c1.215,2.158,2.29,4.371,3.336,6.637c1.05,2.256,2.078,4.522,3.08,6.799c2.002,4.556,3.911,9.15,5.69,13.792
		c3.542,9.283,6.564,18.784,8.418,28.521l0.019,0.096l0.039,0.087c1.706,3.753,3.727,7.28,5.759,10.802
		c2.044,3.511,4.148,6.979,6.258,10.441c2.108,3.461,4.231,6.911,6.297,10.385c1.031,1.736,2.059,3.476,3.017,5.234
		c0.476,0.878,0.942,1.766,1.335,2.647c0.19,0.432,0.378,0.897,0.451,1.246c0.09,0.478,0.265,1.114,0.471,1.61
		c0.227,0.545,0.498,1.062,0.804,1.553h2.171c-0.551-0.678-1.01-1.428-1.325-2.212c-0.174-0.444-0.275-0.785-0.376-1.304
		c-0.143-0.643-0.354-1.115-0.564-1.612c-0.43-0.97-0.907-1.878-1.394-2.781c-0.978-1.802-2.005-3.556-3.045-5.302
		c-2.09-3.484-4.227-6.928-6.348-10.379c-2.121-3.45-4.234-6.902-6.28-10.387c-2.019-3.465-4.03-6.955-5.686-10.552
		c0.008,0.038,0.017,0.076,0.024,0.114l-0.057-0.182c0.01,0.022,0.022,0.045,0.032,0.067c-1.919-9.821-4.997-19.356-8.583-28.646
		c-1.801-4.667-3.75-9.272-5.808-13.827c-1.026-2.277-2.078-4.543-3.152-6.799c-1.063-2.252-2.188-4.519-3.439-6.695
		c-2.49-4.365-5.421-8.51-8.906-12.161c-3.477-3.649-7.531-6.79-12.058-9.049c-4.517-2.271-9.479-3.627-14.504-4.037
		c-2.53-0.187-4.995-0.19-7.491-0.319c-2.491-0.098-4.981-0.227-7.491-0.245c-1.258,0.009-2.512-0.01-3.814,0.27
		c-0.326,0.082-0.66,0.176-0.992,0.396c-0.164,0.108-0.329,0.265-0.44,0.474c-0.054,0.094-0.104,0.274-0.115,0.355l-0.012,0.116
		c-0.011,0.114,0.001,0.119,0.001,0.184c0.083,0.693,0.237,1.271,0.379,1.892c0.592,2.434,1.252,4.835,1.904,7.244l3.942,14.43
		c1.265,4.817,2.613,9.63,3.521,14.514c0.83,4.905,1.321,9.872,1.619,14.841c0.143,2.486,0.226,4.976,0.205,7.464
		c-0.034,2.483-0.121,4.984-0.588,7.413c-0.64,2.412-0.82,4.971-0.61,7.464c0.206,2.499,0.741,4.971,1.616,7.321
		c0.439,1.175,0.967,2.318,1.626,3.393c0.71,1.043,1.345,2.084,1.929,3.192c1.177,2.193,2.267,4.436,3.342,6.684
		c2.141,4.5,4.2,9.04,6.216,13.599l5.234,15.064h0.27L440.207,226.71z"/>
  <path clip-path="url(#SVGID_2_)" fill="#FF00FF" d="M485.05,21.918c-0.393-0.412-0.791-0.817-1.19-1.222
		c0.171,0.55,0.362,1.092,0.586,1.618L485.05,21.918z"/>
  <path clip-path="url(#SVGID_2_)" fill="#FF00FF" d="M491.751,197.435c-0.008-0.038-0.017-0.076-0.024-0.114
		c-0.01-0.022-0.022-0.045-0.032-0.067L491.751,197.435z"/>
  <path clip-path="url(#SVGID_2_)" fill="#FF00FF" d="M492.8,102.682c0.005,0.046,0.014,0.09,0.02,0.136
		c0.018,0.028,0.034,0.059,0.053,0.088L492.8,102.682z"/>
  <path clip-path="url(#SVGID_2_)" fill="#FF00FF" d="M527.669,205.794c-0.061,0.096-0.112,0.192-0.17,0.288
		c0.012,0.094,0.024,0.187,0.036,0.28L527.669,205.794z"/>
  <path clip-path="url(#SVGID_2_)" fill="#F7D1AE" d="M425.389,155.928c4.728,1.182,10.576,0.789,14.331-2.216
		c2.217-1.773,4.729-5.467,3.694-16.548c-1.089-11.658-3.351-17.975-10.392-20.733c-7.042-2.758-17.089-1.575-17.681-0.541
		C414.751,116.923,425.389,155.928,425.389,155.928z"/>
  <path clip-path="url(#SVGID_2_)" fill="#FFE5CF" d="M415.342,115.89c-0.591,1.033,10.047,40.038,10.047,40.038
		c1.54,0.385,3.198,0.599,4.864,0.614c-0.988-9.706-5.353-29.867-8.661-41.796C418.212,114.84,415.633,115.382,415.342,115.89z"/>
  <path clip-path="url(#SVGID_2_)" fill="#8C6239" d="M241.567,242.53c3.069-7.393,6.212-14.758,9.587-22.021
		c1.685-3.633,3.409-7.249,5.24-10.816c0.915-1.784,1.868-3.55,2.885-5.285c0.511-0.867,1.036-1.727,1.604-2.566
		c0.576-0.835,1.154-1.668,1.945-2.403l-0.134,0.315c-0.138-3.407,0.128-6.797,0.538-10.157c0.422-3.36,1.009-6.697,1.745-9.999
		c1.495-6.598,3.455-13.097,6.026-19.358c2.587-6.24,5.7-12.328,9.895-17.668c2.104-2.651,4.504-5.104,7.315-7.022
		c2.795-1.913,6.103-3.205,9.527-3.272l-0.115,0.052c1.098-1.162,2.212-2.311,3.386-3.4c1.166-1.096,2.396-2.14,3.751-3.012
		c1.351-0.877,2.845-1.554,4.414-1.946c1.567-0.402,3.187-0.539,4.792-0.545l0.191-0.002l0.012,0.195
		c0.245,3.979,0.752,7.961,0.997,11.961c0.268,4,0.36,8.016,0.235,12.026c-0.246,8.024-1.421,16.02-3.426,23.799v-0.216
		c1.615,6.039,2.718,12.2,3.571,18.381l0.591,4.641l0.282,2.312c0.047,0.411,0.107,0.69,0.227,1.05
		c0.115,0.351,0.253,0.709,0.393,1.07c0.57,1.445,1.113,2.957,1.448,4.518c0.338,1.56,0.499,3.162,0.471,4.757
		c-0.043,3.232-1.002,6.294-1.995,9.254c-1.027,2.964-2.231,5.851-3.494,8.706c-2.527,5.708-5.354,11.276-8.028,16.876l-0.135,0.281
		l-0.303-0.002l-31.696-0.174c-10.565-0.04-21.131-0.137-31.696-0.257l-0.074-0.001L241.567,242.53z M241.691,242.499
		c10.54-0.119,21.079-0.216,31.618-0.256l31.696-0.174l-0.437,0.279c2.626-5.67,5.47-11.197,7.962-16.89
		c1.25-2.841,2.438-5.709,3.446-8.632c0.978-2.92,1.889-5.906,1.923-8.931c0.035-1.519-0.11-3.035-0.425-4.52
		c-0.313-1.489-0.816-2.922-1.382-4.373c-0.138-0.366-0.278-0.734-0.404-1.124c-0.13-0.38-0.228-0.865-0.262-1.229l-0.272-2.325
		l-0.565-4.628c-0.809-6.159-1.911-12.279-3.437-18.294l-0.028-0.111l0.028-0.105c2.071-7.7,3.322-15.627,3.651-23.604
		c0.172-3.988,0.107-7.985-0.131-11.974c-0.214-3.991-0.69-7.962-0.908-11.973l0.203,0.193c-1.583-0.006-3.171,0.117-4.702,0.5
		c-1.532,0.371-2.99,1.017-4.323,1.868c-2.674,1.708-4.902,4.034-7.079,6.352l-0.047,0.05l-0.067,0.002
		c-3.351,0.085-6.58,1.364-9.32,3.263c-2.766,1.892-5.092,4.365-7.139,7.012c-4.075,5.341-7.085,11.423-9.57,17.652
		c-2.462,6.25-4.428,12.699-5.87,19.262c-0.723,3.28-1.342,6.585-1.771,9.913c-0.424,3.325-0.703,6.682-0.585,10.017l0.007,0.188
		l-0.141,0.128c-0.683,0.624-1.271,1.44-1.829,2.247c-0.558,0.815-1.081,1.661-1.59,2.516c-1.017,1.712-1.968,3.467-2.908,5.229
		c-1.87,3.529-3.639,7.117-5.368,10.723C248.242,227.95,244.896,235.193,241.691,242.499z"/>
  <path clip-path="url(#SVGID_2_)" fill="#D79260" d="M299.664,167.791c2.721,4.89,7.289,6.519,10.497,7.105
		c1.087,0.198,2.108,0.232,2.252,0.265c-0.53-2.451-0.85-3.906-0.85-3.906s2.867-35.623,2.69-43.532
		c-7.077-0.196-9.989-1.435-16.349,4.644C296.646,145.682,295.385,160.101,299.664,167.791z"/>
  <path clip-path="url(#SVGID_2_)" fill="#F2CF9F" d="M301.15,164.086c2.844,5.039,7.394,6.472,10.442,7.102
		c5.969-22.774,2.776-39.162,2.376-47.561c-6.734,0-10.144,2.357-16.028,8.607C297.874,145.83,296.88,156.515,301.15,164.086z"/>
  <path clip-path="url(#SVGID_2_)" fill="#EEBC84" d="M311.636,171.009c5.484-21.065,3.142-36.637,2.459-45.46
		c-0.006-0.081-0.015-0.172-0.021-0.252c-0.044-0.588-0.08-1.143-0.105-1.67c-0.601,0-1.167,0.025-1.719,0.064
		c-0.101,0.008-0.203,0.016-0.302,0.023c-0.547,0.047-1.076,0.109-1.583,0.197c-0.009,0.002-0.018,0.002-0.026,0.006
		c2.028,25.346-0.034,31.405-0.525,38.414c-0.276,3.929-0.659,6.18-0.912,8.126c0.963,0.335,1.88,0.562,2.691,0.729
		C311.608,171.126,311.62,171.068,311.636,171.009z"/>
  <path clip-path="url(#SVGID_2_)" fill="#FFE5CF" d="M306.559,148.662c0.718-2.359,0.188-14.287-0.085-23.517
		c-1.734,0.841-3.379,2.067-5.181,3.729C301.323,141.568,301.982,163.72,306.559,148.662z"/>
  <path clip-path="url(#SVGID_2_)" fill="#8C6239" d="M734.37,238.563c0.365-4.965-0.317-9.924-0.75-14.869
		c-0.472-4.948-0.835-9.925-0.64-14.904c0.043-1.245,0.137-2.487,0.252-3.728c0.109-1.24,0.317-2.475,0.435-3.702
		c0.227-2.467,0.127-4.956-0.196-7.411c-0.653-4.92-2.18-9.685-4.038-14.279c-1.85-4.611-4.138-9.021-6.234-13.543
		c-1.015-2.288-1.79-4.66-2.543-7.032c-0.745-2.376-1.436-4.767-2.109-7.161c-2.693-9.576-5.078-19.238-8.042-28.718l-0.008-0.023
		l-0.004-0.025c-0.76-5.875-2.147-11.663-4.19-17.217c-2.036-5.561-4.675-10.886-7.647-16.01c-1.483-2.566-3.063-5.072-4.671-7.569
		c-1.605-2.497-3.231-4.98-4.9-7.432c-1.672-2.45-3.381-4.874-5.193-7.209c-1.823-2.317-3.723-4.614-5.993-6.424
		c-2.349-1.916-4.4-4.053-6.529-6.135l-6.302-6.303c-2.123-2.081-4.183-4.199-6.486-6.072c-2.193-2.125-4.026-4.429-5.978-6.683
		c-3.842-4.534-7.672-9.072-11.687-13.439c-2.007-2.183-4.06-4.324-6.201-6.366c-2.147-2.028-4.373-4.004-6.851-5.564l0.136,0.048
		c-1.995-0.297-4.063,0.226-5.588,1.544c-1.539,1.299-2.583,3.128-3.356,5.02c-0.772,1.907-1.288,3.921-1.675,5.955
		c-0.385,2.036-0.632,4.101-0.799,6.172l-0.038,0.471l-0.415-0.225c-3.266-1.766-6.622-3.36-10.06-4.766
		c-3.434-1.414-6.947-2.63-10.466-3.85c-3.518-1.22-7.033-2.483-10.447-3.997c-1.708-0.754-3.392-1.564-5.045-2.431l-2.457-1.332
		c-0.816-0.435-1.647-0.854-2.479-1.27c-3.329-1.657-6.693-3.249-10.091-4.762c-1.699-0.754-3.408-1.488-5.134-2.175
		c-1.727-0.679-3.467-1.343-5.258-1.775c-1.771-0.431-3.707-0.544-5.301,0.364c-1.585,0.896-2.718,2.432-3.72,3.968
		c-0.481,0.784-1.012,1.57-1.359,2.399c-0.346,0.846-0.583,1.743-0.786,2.645c-0.396,1.807-0.649,3.653-0.815,5.497l-0.018,0.192
		l-0.183-0.049c-4.153-1.107-8.269-2.334-12.365-3.628c-4.093-1.301-8.158-2.691-12.183-4.194l-0.01-0.004l-0.01-0.005
		c-3.625-1.873-7.369-3.538-11.26-4.756c-3.877-1.197-7.959-2.002-12.002-1.598c-2.007,0.211-3.994,0.763-5.718,1.801
		c-1.726,1.026-3.138,2.556-4.015,4.36c-1.772,3.636-1.513,8.032,0.054,11.715l0.514,1.21l-0.907-0.953
		c-2.046-2.149-4.182-4.215-6.465-6.102c-2.285-1.874-4.722-3.6-7.411-4.796c-1.342-0.597-2.749-1.033-4.196-1.255
		c-0.722-0.118-1.463-0.171-2.207-0.278c-0.723-0.092-1.456-0.132-2.186-0.118c-2.921,0.044-5.824,1.007-8.125,2.804
		c-2.32,1.783-4.008,4.285-5.189,6.964c-0.594,1.345-1.069,2.742-1.455,4.165c-0.409,1.419-0.655,2.854-0.674,4.319
		c-0.057,2.928,0.604,5.842,1.575,8.617c0.979,2.781,2.282,5.448,3.738,8.023c2.928,5.149,6.455,9.946,10.168,14.574
		c3.718,4.631,7.676,9.064,11.621,13.522c3.95,4.452,7.737,9.118,10.864,14.225c1.574,2.542,3.021,5.147,4.496,7.728
		c1.472,2.582,2.973,5.145,4.525,7.675l0.053,0.086l0.013,0.116c0.243,2.177,1.139,4.351,2.014,6.451
		c0.903,2.108,1.912,4.179,2.955,6.232c2.093,4.105,4.33,8.144,6.588,12.17c4.501,8.064,9.231,16.006,13.384,24.3
		c1.015,2.086,2.01,4.187,2.742,6.435c0.646,2.296,1.023,4.548,1.463,6.83c0.831,4.555,1.544,9.123,2.228,13.695
		c1.355,9.146,2.566,18.309,3.719,27.479l0.021,0.176l-0.1,0.153c-0.773,1.193-1.278,2.62-1.72,4.038
		c-0.436,1.429-0.784,2.893-1.095,4.364c-0.616,2.947-1.079,5.935-1.488,8.929c-0.406,2.995-0.751,6.001-1.077,9.011
		c-0.331,3.011-0.619,6.022-1.004,9.044l-0.489-0.559l53.049,0.07l53.048,0.139l106.098,0.229l-0.057,0.05
		C734.157,240.75,734.271,239.657,734.37,238.563z M734.47,238.57c-0.094,1.097-0.204,2.191-0.323,3.284l-0.006,0.051h-0.051
		l-106.098,0.229l-53.048,0.139l-53.049,0.07h-0.562l0.072-0.559c0.382-2.989,0.673-6.01,1.006-9.021
		c0.328-3.014,0.675-6.027,1.085-9.036c0.413-3.009,0.88-6.014,1.505-8.997c0.315-1.491,0.67-2.979,1.119-4.447
		c0.46-1.465,0.965-2.934,1.842-4.292l-0.077,0.328c-1.146-9.165-2.352-18.324-3.701-27.458c-0.68-4.566-1.391-9.129-2.215-13.665
		c-0.431-2.251-0.827-4.564-1.432-6.718c-0.697-2.148-1.682-4.239-2.687-6.304c-4.118-8.237-8.847-16.19-13.347-24.261
		c-2.259-4.032-4.498-8.08-6.6-12.208c-1.047-2.065-2.063-4.15-2.978-6.289c-0.885-2.15-1.803-4.306-2.08-6.738l0.065,0.201
		c-3.148-5.062-5.931-10.349-9.011-15.404c-3.087-5.056-6.805-9.688-10.731-14.143c-7.833-8.924-15.839-17.889-21.775-28.304
		c-1.461-2.606-2.771-5.313-3.759-8.149c-0.978-2.83-1.649-5.818-1.58-8.854c0.023-1.513,0.291-3.033,0.712-4.471
		c0.398-1.446,0.89-2.871,1.502-4.247c1.221-2.74,2.971-5.325,5.396-7.176c2.406-1.865,5.442-2.856,8.468-2.891
		c0.757-0.013,1.514,0.03,2.267,0.128c0.728,0.106,1.473,0.162,2.219,0.285c1.494,0.233,2.952,0.69,4.325,1.305
		c2.755,1.235,5.216,2.992,7.519,4.889c2.3,1.91,4.441,3.995,6.492,6.159l-0.393,0.257c-1.6-3.795-1.865-8.315-0.014-12.099
		c0.916-1.876,2.397-3.472,4.193-4.531c1.793-1.073,3.844-1.633,5.896-1.844c4.134-0.402,8.254,0.429,12.159,1.645
		c3.917,1.237,7.673,2.92,11.307,4.81l-0.019-0.009c8.035,3,16.212,5.652,24.504,7.84l-0.199,0.143
		c0.162-1.863,0.41-3.714,0.805-5.545c0.203-0.914,0.438-1.825,0.795-2.704c0.373-0.891,0.894-1.658,1.38-2.459
		c1.012-1.556,2.153-3.14,3.839-4.104c0.84-0.471,1.802-0.711,2.756-0.744c0.957-0.029,1.9,0.116,2.816,0.325
		c1.832,0.437,3.584,1.1,5.321,1.775c1.735,0.685,3.45,1.415,5.156,2.166c3.409,1.505,6.782,3.088,10.124,4.737
		c0.835,0.415,1.668,0.831,2.495,1.268l2.457,1.321c1.647,0.856,3.322,1.656,5.023,2.4c3.399,1.494,6.901,2.739,10.422,3.947
		c3.52,1.207,7.05,2.417,10.507,3.826c3.46,1.402,6.843,2.996,10.133,4.76l-0.452,0.247c0.162-2.089,0.405-4.175,0.789-6.241
		c0.387-2.064,0.903-4.116,1.693-6.083c0.793-1.95,1.865-3.872,3.529-5.29c0.83-0.699,1.813-1.238,2.87-1.525
		c1.058-0.29,2.169-0.326,3.238-0.188l0.074,0.009l0.063,0.039c2.562,1.604,4.809,3.593,6.982,5.631
		c2.165,2.052,4.233,4.197,6.255,6.382c4.041,4.371,7.892,8.907,11.745,13.427c1.939,2.231,3.833,4.578,5.917,6.583
		c2.314,1.871,4.415,4.016,6.539,6.085l6.32,6.285c2.12,2.066,4.211,4.21,6.469,6.052c2.377,1.915,4.28,4.253,6.115,6.603
		c1.82,2.366,3.526,4.81,5.192,7.275c1.664,2.467,3.283,4.962,4.879,7.471c1.599,2.505,3.177,5.034,4.656,7.619
		c2.966,5.165,5.601,10.54,7.628,16.153c2.035,5.609,3.409,11.455,4.147,17.37l-0.012-0.051c2.932,9.521,5.27,19.191,7.924,28.771
		c0.664,2.395,1.344,4.784,2.077,7.156c0.741,2.368,1.506,4.734,2.499,6.999c2.067,4.505,4.349,8.945,6.185,13.577
		c1.848,4.618,3.363,9.412,4.002,14.368c0.315,2.474,0.406,4.983,0.168,7.47c-0.124,1.247-0.335,2.467-0.449,3.703
		c-0.12,1.234-0.219,2.473-0.266,3.713c-0.215,4.963,0.128,9.933,0.58,14.881C734.191,228.624,734.855,233.593,734.47,238.57z"/>
  <path clip-path="url(#SVGID_2_)" fill="#F7D1AE" d="M449.028,16.015c-1.586,5.681,7.239,13.297,11.967,15.217
		c4.855,1.972,18.321-4.875,17.73-10.194c-0.236-2.116-2.513-6.204-5.171-8.717c-2.66-2.512-8.126-5.023-11.081-4.58
		S450.09,12.212,449.028,16.015z"/>
  <path clip-path="url(#SVGID_2_)" fill="#FFE5CF" d="M456.271,21.916c0.754,1.589,11.287,5.013,18.141-0.761
		c-1.254,3.011-4.929,8.276-11.951,7.194C455.81,27.325,456.271,21.916,456.271,21.916z"/>
  <path clip-path="url(#SVGID_2_)" fill="#F7D1AE" d="M483.306,12.764c0,2.839,15.809,8.568,22.014,8.422
		c6.204-0.148,11.819-4.285,11.523-8.57c-0.295-4.284-13.479-8.038-17.582-9.308C493.056,1.388,483.306,6.559,483.306,12.764z"/>
  <path clip-path="url(#SVGID_2_)" fill="#FFE5CF" d="M488.418,9.57c2.497-0.83,6.522,6.999,22.94,6.158
		C495.642,20.693,485.515,10.533,488.418,9.57z"/>
  <g clip-path="url(#SVGID_2_)">
		<path fill="#F7D1AE" d="M544.386,11.891c2.955,1.773,13.297,6.951,18.616,7.092c5.613,0.147,10.489-5.17,9.456-7.683
			c-1.035-2.512-18.082-8.71-20.39-8.864C547.636,2.141,540.249,9.41,544.386,11.891z"/>
    <path fill="#FFE5CF" d="M555.521,12.721c0.841,1.339,9.68,3.019,14.187-3.143c-0.52,2.899-2.598,8.172-8.305,8.141
			C555.998,17.688,555.521,12.721,555.521,12.721z"/>
	</g>
  <g clip-path="url(#SVGID_2_)">
		<path fill="#EADBC5" d="M627.998,9.609c-3.785-1.921-9.39,3.614-8.345,6.734c1.506,4.491,14.467,12.862,16.805,14.114
			c2.336,1.252,7.51,1.842,8.211-1.994C645.369,24.627,636.039,13.689,627.998,9.609z"/>
    <path fill="#DBB793" d="M621.192,11.917c-1.253,1.422-1.973,3.132-1.539,4.426c1.506,4.491,14.467,12.862,16.805,14.114
			c1.426,0.764,3.906,1.274,5.782,0.69C632.017,28.167,624.032,17.467,621.192,11.917z"/>
	</g>
</g>
</svg>
