<svg viewBox="0 0 1920 1080" xmlns="http://www.w3.org/2000/svg">
  <radialGradient id="a" cx="960" cy="540" r="1000" gradientUnits="userSpaceOnUse">
    <stop offset="0" stop-color="#fed400"/>
    <stop offset="1" stop-color="#ffbf00"/>
  </radialGradient>
  <path fill="url(#a)" d="M0 0h1920v1080H0z"/>
  <g fill="#ffbf00">
    <path d="M1953.6 1094.8v47.21l-40.91 23.61-40.88-23.61v-47.21l40.88-23.61 40.91 23.61zm0-141.65v47.21l-40.91 23.61-40.88-23.61v-47.21l40.88-23.61 40.91 23.61zm0-141.68v47.22l-40.91 23.63-40.88-23.63v-47.22l40.88-23.61 40.91 23.61zm0-141.65v47.22l-40.91 23.6-40.88-23.6v-47.22l40.88-23.61 40.91 23.61zm0-141.65v47.21l-40.91 23.61-40.88-23.61v-47.21l40.88-23.61 40.91 23.61zm0-141.65v47.21l-40.91 23.61-40.88-23.61v-47.21l40.88-23.61 40.91 23.61zm0-283.33v47.22l-40.91 23.61-40.88-23.61v-47.22l40.88-23.61 40.91 23.61zm0-141.65V8.76l-40.91 23.61-40.88-23.61v-47.22l40.88-23.61 40.91 23.61zM1912.6 1024v47.22l-40.88 23.61-40.91-23.61V1024l40.91-23.61 40.88 23.61zm0-141.65v47.22l-40.88 23.61-40.91-23.61v-47.22l40.91-23.63 40.88 23.63zm0-283.33v47.22l-40.88 23.61-40.91-23.61v-47.22l40.91-23.61 40.88 23.61zm0-283.3v47.22l-40.88 23.61-40.91-23.61v-47.22l40.91-23.61 40.88 23.61zm0-283.32v47.21l-40.88 23.61-40.91-23.61V32.4l40.91-23.61 40.88 23.61z"/>
    <path d="M1871.8 1094.8v47.21l-40.91 23.61-40.89-23.61v-47.21l40.89-23.61 40.91 23.61zm0-141.65v47.21l-40.91 23.61-40.89-23.61v-47.21l40.89-23.61 40.91 23.61zm0-283.33v47.22l-40.91 23.6-40.89-23.6v-47.22l40.89-23.61 40.91 23.61zm0-141.65v47.21l-40.91 23.61-40.89-23.61v-47.21l40.89-23.61 40.91 23.61zm0-141.65v47.21l-40.91 23.61-40.89-23.61v-47.21l40.89-23.61 40.91 23.61zm0-141.68v47.24l-40.91 23.61-40.89-23.61v-47.24l40.89-23.61 40.91 23.61zm0-141.65v47.22l-40.91 23.61-40.89-23.61v-47.22l40.89-23.61 40.91 23.61zm0-141.65V8.76l-40.91 23.61L1790 8.76v-47.22l40.89-23.61 40.91 23.61z"/>
    <path d="M1830.9 1024v47.22l-40.89 23.61-40.9-23.61V1024l40.9-23.61 40.89 23.61zm0-141.65v47.22l-40.89 23.61-40.9-23.61v-47.22l40.9-23.63 40.89 23.63zm0-141.68v47.22l-40.89 23.61-40.9-23.61v-47.22l40.9-23.6 40.89 23.6zm0-141.65v47.22l-40.89 23.61-40.9-23.61v-47.22l40.9-23.61 40.89 23.61zm0-141.65v47.22l-40.89 23.61-40.9-23.61v-47.22l40.9-23.61 40.89 23.61zm0-141.65v47.22l-40.89 23.61-40.9-23.61v-47.22l40.9-23.61 40.89 23.61zm0-141.67v47.21l-40.89 23.61-40.9-23.61v-47.21l40.9-23.61 40.89 23.61z"/>
    <path d="M1790 1094.8v47.21l-40.9 23.61-40.88-23.61v-47.21l40.88-23.61 40.9 23.61zm0-141.65v47.21l-40.9 23.61-40.88-23.61v-47.21l40.88-23.61 40.9 23.61zm0-141.68v47.22l-40.9 23.63-40.88-23.63v-47.22l40.88-23.61 40.9 23.61zm0-141.65v47.22l-40.9 23.6-40.88-23.6v-47.22l40.88-23.61 40.9 23.61zm0-283.3v47.21l-40.9 23.61-40.88-23.61v-47.21l40.88-23.61 40.9 23.61zm0-141.68v47.24l-40.9 23.61-40.88-23.61v-47.24l40.88-23.61 40.9 23.61z"/>
    <path d="M1749.1 882.33v47.22l-40.88 23.61-40.91-23.61v-47.22l40.91-23.63 40.88 23.63zm0-283.33v47.22l-40.88 23.61-40.91-23.61V599l40.91-23.61L1749.1 599zm0-141.65v47.22l-40.88 23.61-40.91-23.61v-47.22l40.91-23.61 40.88 23.61zm0-283.32v47.21l-40.88 23.61-40.91-23.61v-47.21l40.91-23.61 40.88 23.61zm0-141.65v47.21l-40.88 23.61-40.91-23.61V32.38l40.91-23.61 40.88 23.61zm-40.88 1062.4v47.21l-40.91 23.61-40.89-23.61v-47.21l40.89-23.61 40.91 23.61zM1708.2 953.16v47.21l-40.91 23.61-40.89-23.61v-47.21l40.89-23.61 40.91 23.61zm0-141.68v47.22l-40.91 23.63-40.89-23.63v-47.22l40.89-23.61 40.91 23.61zm0-283.3v47.21L1667.29 599l-40.89-23.61v-47.21l40.89-23.61 40.91 23.61z"/>
    <path d="M1667.3 1024v47.22l-40.89 23.61-40.9-23.61V1024l40.9-23.61 40.89 23.61zm0-141.65v47.22l-40.89 23.61-40.9-23.61v-47.22l40.9-23.63 40.89 23.63zm0-141.68v47.22l-40.89 23.61-40.9-23.61v-47.22l40.9-23.6 40.89 23.6zm0-141.65v47.22l-40.89 23.61-40.9-23.61v-47.22l40.9-23.61 40.89 23.61zm0-141.65v47.22l-40.89 23.61-40.9-23.61v-47.22l40.9-23.61 40.89 23.61zm0-283.32v47.21l-40.89 23.61-40.9-23.61v-47.21l40.9-23.61 40.89 23.61z"/>
    <path d="M1626.4 1094.8v47.21l-40.9 23.61-40.88-23.61v-47.21l40.88-23.61 40.9 23.61zm0-141.65v47.21l-40.9 23.61-40.88-23.61v-47.21l40.88-23.61 40.9 23.61zm0-141.68v47.22l-40.9 23.63-40.88-23.63v-47.22l40.88-23.61 40.9 23.61zm0-141.65v47.22l-40.9 23.6-40.88-23.6v-47.22l40.88-23.61 40.9 23.61z"/>
    <path d="M1585.5 1024v47.22l-40.88 23.61-40.89-23.61V1024l40.89-23.61 40.88 23.61zm0-424.98v47.22l-40.88 23.61-40.89-23.61v-47.22l40.89-23.61 40.88 23.61zm0-141.65v47.22l-40.88 23.61-40.89-23.61v-47.22l40.89-23.61 40.88 23.61zm0-141.65v47.22l-40.88 23.61-40.89-23.61v-47.22l40.89-23.61 40.88 23.61z"/>
    <path d="M1544.6 1094.8v47.21l-40.89 23.61h-.02l-40.88-23.61v-47.21l40.9-23.61 40.89 23.61zm0-283.33v47.22l-40.89 23.63h-.02l-40.88-23.63v-47.22l40.9-23.61 40.89 23.61zm0-141.65v47.22l-40.89 23.6h-.02l-40.88-23.6v-47.22l40.9-23.61 40.89 23.61z"/>
    <path d="M1503.7 1024v47.22l-40.9 23.61-40.89-23.61V1024l40.89-23.61 40.88 23.61h.02zm0-141.65v47.22l-40.9 23.61-40.89-23.61v-47.22l40.89-23.63 40.88 23.63h.02z"/>
    <path d="M1462.8 1094.8v47.21l-40.89 23.61h-.02l-40.88-23.61v-47.21l40.9-23.61 40.89 23.61zm0-141.65v47.21l-40.89 23.61h-.02l-40.88-23.61v-47.21l40.9-23.61 40.89 23.61z"/>
    <path d="M1421.9 1024v47.22l-40.9 23.61-40.89-23.61V1024l40.89-23.61 40.88 23.61h.02zm0-141.65v47.22l-40.9 23.61-40.89-23.61v-47.22l40.89-23.63 40.88 23.63h.02z"/>
    <path d="M1381 1094.8v47.21l-40.89 23.61-40.91-23.61v-47.21l40.91-23.61 40.89 23.61zm0-141.65v47.21l-40.89 23.61-40.91-23.61v-47.21l40.91-23.61 40.89 23.61zm0-141.68v47.22l-40.89 23.63-40.91-23.63v-47.22l40.91-23.61 40.89 23.61z"/>
    <path d="M1299.2 1094.8v47.21l-40.88 23.61-40.91-23.61v-47.21l40.91-23.61 40.88 23.61z"/>
    <path d="M1258.4 1024v47.22l-40.91 23.61-40.88-23.61V1024l40.88-23.61 40.91 23.61zM1176.6 1024v47.22l-40.91 23.61-40.88-23.61V1024l40.88-23.61 40.91 23.61zM726.77-38.4V8.82l-40.91 23.61-40.88-23.61V-38.4l40.88-23.61 40.91 23.61zm-81.79 141.65v47.22l-40.91 23.61-40.88-23.61v-47.22l40.88-23.61 40.91 23.61zm0-141.65V8.82l-40.91 23.61-40.88-23.61V-38.4l40.88-23.61 40.91 23.61zm-40.91 70.83v47.21l-40.88 23.61-40.91-23.61V32.43l40.91-23.61 40.88 23.61z"/>
    <path d="M563.15 103.2v47.22l-40.91 23.61-40.88-23.61V103.2l40.88-23.61 40.91 23.61zm0-141.65V8.77l-40.91 23.61-40.88-23.61v-47.22l40.88-23.61 40.91 23.61zM522.24 315.7v47.22l-40.88 23.61-40.91-23.61V315.7l40.91-23.61 40.88 23.61z"/>
    <path d="M522.24 174.03v47.21l-40.88 23.61-40.91-23.61v-47.21l40.91-23.61 40.88 23.61zM481.36-38.45V8.77l-40.91 23.61-40.89-23.61v-47.22l40.89-23.61 40.91 23.61zm-40.91 70.83v47.21l-40.89 23.61-40.9-23.61V32.38l40.9-23.61 40.89 23.61zm-40.89 212.47v47.24l-40.9 23.61-40.88-23.61v-47.24l40.88-23.61 40.9 23.61z"/>
    <path d="M399.56 103.2v47.22l-40.9 23.61-40.88-23.61V103.2l40.88-23.61 40.9 23.61zm0-141.65V8.77l-40.9 23.61-40.88-23.61v-47.22l40.88-23.61 40.9 23.61zm-40.9 920.78v47.22l-40.88 23.61-40.89-23.61v-47.22l40.89-23.63 40.88 23.63zm0-424.98v47.22l-40.88 23.61-40.89-23.61v-47.22l40.89-23.61 40.88 23.61zm0-141.65v47.22l-40.88 23.61-40.89-23.61V315.7l40.89-23.61 40.88 23.61z"/>
    <path d="M358.66 174.03v47.21l-40.88 23.61-40.89-23.61v-47.21l40.89-23.61 40.88 23.61zm-40.88 212.5v47.21l-40.89 23.61h-.02l-40.88-23.61v-47.21l40.9-23.61 40.89 23.61zm0-424.98V8.77l-40.89 23.61h-.02L235.99 8.77v-47.22l40.9-23.61 40.89 23.61zM276.89 599v47.22l-40.9 23.61-40.89-23.61V599l40.89-23.61L276.87 599h.02zm0-283.3v47.22l-40.9 23.61-40.89-23.61V315.7l40.89-23.61 40.88 23.61h.02zm0-141.67v47.21l-40.9 23.61-40.89-23.61v-47.21l40.89-23.61 40.88 23.61h.02z"/>
    <path d="M276.89 32.38v47.21l-40.9 23.61-40.89-23.61V32.38l40.89-23.61 40.88 23.61h.02zm-40.9 920.78v47.21l-40.89 23.61-40.91-23.61v-47.21l40.91-23.61 40.89 23.61zm0-283.33v47.22l-40.89 23.6-40.91-23.6v-47.22l40.91-23.61 40.89 23.61zm0-283.3v47.21l-40.89 23.61-40.91-23.61v-47.21l40.91-23.61 40.89 23.61zm0-141.68v47.24L195.1 315.7l-40.91-23.61v-47.24l40.91-23.61 40.89 23.61z"/>
    <path d="M235.99 103.2v47.22l-40.89 23.61-40.91-23.61V103.2l40.91-23.61 40.89 23.61zm0-141.65V8.77L195.1 32.38 154.19 8.77v-47.22l40.91-23.61 40.89 23.61zM195.1 882.33v47.22l-40.91 23.61-40.88-23.61v-47.22l40.88-23.63 40.91 23.63zm0-141.68v47.22l-40.91 23.61-40.88-23.61v-47.22l40.88-23.6 40.91 23.6zm0-141.65v47.22l-40.91 23.61-40.88-23.61V599l40.88-23.61L195.1 599zm0-141.65v47.22l-40.91 23.61-40.88-23.61v-47.22l40.88-23.61 40.91 23.61zm0-141.65v47.22l-40.91 23.61-40.88-23.61V315.7l40.88-23.61 40.91 23.61z"/>
    <path d="M195.1 174.03v47.21l-40.91 23.61-40.88-23.61v-47.21l40.88-23.61 40.91 23.61zm-40.91 920.78v47.21l-40.88 23.61-40.9-23.61v-47.21l40.9-23.61 40.88 23.61zm0-566.63v47.21L113.31 599l-40.9-23.61v-47.21l40.9-23.61 40.88 23.61zm0-141.65v47.21l-40.88 23.61-40.9-23.61v-47.21l40.9-23.61 40.88 23.61z"/>
    <path d="M154.19 244.85v47.24l-40.88 23.61-40.9-23.61v-47.24l40.9-23.61 40.88 23.61zm0-141.65v47.22l-40.88 23.61-40.9-23.61V103.2l40.9-23.61 40.88 23.61zm0-141.65V8.77l-40.88 23.61-40.9-23.61v-47.22l40.9-23.61 40.88 23.61zm-40.88 1062.4v47.22l-40.9 23.61-40.89-23.61v-47.22l40.89-23.61 40.9 23.61zm0-141.65v47.22l-40.9 23.61-40.89-23.61V882.3l40.89-23.63 40.9 23.63zm0-141.68v47.22l-40.9 23.61-40.89-23.61v-47.22l40.89-23.6 40.9 23.6zm0-141.65v47.22l-40.9 23.61-40.89-23.61v-47.22l40.89-23.61 40.9 23.61zm0-141.65v47.22l-40.9 23.61-40.89-23.61v-47.22l40.89-23.61 40.9 23.61z"/>
    <path d="M113.31 315.7v47.22l-40.9 23.61-40.89-23.61V315.7l40.89-23.61 40.9 23.61zm0-141.67v47.21l-40.9 23.61-40.89-23.61v-47.21l40.89-23.61 40.9 23.61zm0-141.65v47.21l-40.9 23.61-40.89-23.61V32.38L72.41 8.77l40.9 23.61zm-40.9 1062.4v47.21l-40.89 23.61-40.9-23.61v-47.21l40.9-23.61 40.89 23.61zm0-141.65v47.21l-40.89 23.61-40.9-23.61v-47.21l40.9-23.61 40.89 23.61zm0-141.68v47.22L31.52 882.3l-40.9-23.63v-47.22l40.9-23.61 40.89 23.61zm0-141.65v47.22l-40.89 23.6-40.9-23.6V669.8l40.9-23.61 40.89 23.61zm0-141.65v47.21l-40.89 23.61-40.9-23.61v-47.21l40.9-23.61 40.89 23.61z"/>
    <path d="M72.41 386.53v47.21l-40.89 23.61-40.9-23.61v-47.21l40.9-23.61 40.89 23.61zm0-141.68v47.24L31.52 315.7l-40.9-23.61v-47.24l40.9-23.61 40.89 23.61zm0-141.65v47.22l-40.89 23.61-40.9-23.61V103.2l40.9-23.61 40.89 23.61zm-40.89 920.78v47.22l-40.9 23.61-40.89-23.61v-47.22l40.89-23.61 40.9 23.61zm0-141.65v47.22l-40.9 23.61-40.89-23.61v-47.22l40.89-23.63 40.9 23.63zm0-141.68v47.22l-40.9 23.61-40.89-23.61v-47.22l40.89-23.6 40.9 23.6zm0-141.65v47.22l-40.9 23.61-40.89-23.61V599l40.89-23.61L31.52 599zm0-141.65v47.22l-40.9 23.61-40.89-23.61v-47.22l40.89-23.61 40.9 23.61z"/>
    <path d="M31.52 315.7v47.22l-40.9 23.61-40.89-23.61V315.7l40.89-23.61 40.9 23.61zm0-141.67v47.21l-40.9 23.61-40.89-23.61v-47.21l40.89-23.61 40.9 23.61zm0-141.65v47.21l-40.9 23.61-40.89-23.61V32.38L-9.38 8.77l40.9 23.61zm1635.8 708.27v47.22l-40.89 23.61-40.9-23.61v-47.22l40.9-23.6 40.89 23.6zm-40.71 354.16v47.22l-40.88 23.6-40.91-23.6v-47.22l40.91-23.61 40.88 23.61zM195.21 882.2v47.22l-40.88 23.61-40.91-23.61V882.2l40.91-23.61 40.88 23.61zm0-425.23v47.22l-40.88 23.61-40.91-23.61v-47.22l40.91-23.61 40.88 23.61zm204.4-212.5v47.22l-40.88 23.6-40.91-23.6v-47.22l40.91-23.61 40.88 23.61zM154.26 102.89v47.22l-40.89 23.61-40.9-23.61v-47.22l40.9-23.61 40.89 23.61zm449.8-70.79v47.22l-40.89 23.61-40.9-23.61V32.1l40.9-23.61 40.89 23.61z"/>
  </g>
  <g fill="#ffd500">
    <path d="M1954.7 9.42v-48.53l-42-24.26-40.88 23.61-40.91-23.61-41.45 23.94-.57.32V9.42L1829.73 33v45.94l-40.31 23.28-.57.32v47.22l-39.77 23-40.88-23.61-40.91 23.61-40.88-23.61-42 24.26v48.49l42 24.26 40.88-23.61 39.77 23v47.24l40.88 23.6v45.91l-40.31 23.28-.57.33v47.22l-39.77 23-40.88-23.61L1585.5 456l-40.89-23.61-41.45 23.94-.56.33v48.53l42 24.26 40.89-23.61 39.77 23v45.91l-39.77 23-40.89-23.6-41.44 23.85-.56.33v47.22l-40.91 23.6v48.55l41.72 24.09h.63l40.57-23.43 39.76 22.95v45.91l-39.75 22.95-40.89-23.61-42 24.26V858l-39.76 23-39.76-23v-47.18l-42-24.26-42 24.26v48.53l40.8 23.65v45.91l-40.9 23.59v48.5l40.91 23.6v45.91l-39.78 23-39.74-23v-47.22l-42-24.26-40.88 23.61-40.9-23.61-42 24.26v48.53l42 24.27 40.9-23.61 39.75 23v45.91l-40.36 23.26-.56.33v48.53l42 24.26 40.91-23.61 40.88 23.61 40.91-23.61 40.89 23.61 40.9-23.61 40.89 23.61 40.9-23.61 40.88 23.61 40.89-23.61 40.91 23.61 40.88-23.61 40.91 23.61 40.88-23.61 40.9 23.61 40.89-23.61 40.91 23.61 41.45-23.94.56-.32v-47.22l40.91-23.61v-48.53l-40.91-23.61v-45.91l40.91-23.6V952.5l-40.91-23.61V883l40.34-23.3.57-.33v-48.55l-40.91-23.6v-45.91l40.91-23.61v-48.53l-40.91-23.6v-45.91l40.91-23.61v-48.53l-40.91-23.61V458l40.91-23.61v-48.52l-40.91-23.61v-45.91l40.91-23.6V244.2l-40.91-23.61v-45.91l40.91-23.61v-48.53l-40.91-23.6V33zm-2.27-47.22V8.11l-39.77 23-19.88-11.47-19.87-11.53V-37.8l39.75-23zM1911.52 33v45.94l-39.74 23-19.89-11.48-19.88-11.52V33l19.88-11.48 19.89-11.47 19.87 11.47zm0 141.65v45.91l-39.74 22.95-19.89-11.48-19.88-11.44v-45.91l19.88-11.48 19.89-11.47 19.87 11.47zm0 141.68v45.9l-39.74 23-19.89-11.48-19.88-11.49v-45.9l19.88-11.48 19.89-11.47 19.87 11.47zm0 141.65v45.9l-39.74 23-19.89-11.48-19.88-11.49V458l19.88-11.48 19.89-11.48 19.87 11.48zm0 141.65v45.91l-39.74 22.95-19.89-11.49-19.88-11.43v-45.91l19.88-11.48 19.89-11.47 19.87 11.47zm0 141.65v45.91l-39.74 22.95-19.89-11.48-19.88-11.44v-45.91l19.88-11.48 19.89-11.47 19.87 11.47zm0 141.67v45.91l-39.74 23-19.89-11.48-19.88-11.49V883l39.77-23 19.87 11.49zm0 141.66v45.9l-39.74 23-19.89-11.51-19.88-11.46v-45.9l19.88-11.48 19.89-11.48 19.87 11.48zm-80.65 139.68-19.86-11.45-19.87-11.47v-45.91l19.87-11.46 19.88-11.48 19.89 11.48 19.88 11.47v45.91l-19.88 11.47zm-81.79 0-19.87-11.48-19.88-11.47v-45.91l39.75-23 19.93 11.57 19.89 11.47v45.91l-19.89 11.46zm-81.79 0-19.88-11.48-19.87-11.47v-45.91l39.75-23 39.77 23v45.91l-19.89 11.47zm-81.79 0-19.88-11.48-19.87-11.47v-45.91l19.87-11.47 19.88-11.48 19.89 11.48 19.88 11.47v45.91l-19.88 11.47zm-285.12-23v-45.91l39.77-23 19.86 11.62 19.87 11.47v45.91l-39.75 23-19.88-11.48zm40.91-70.83v-45.9l39.75-23 39.77 23v45.89l-19.89 11.55-19.91 11.49-19.85-11.49zM1423.08 883l39.75-23 29.48 17 10.29 6v45.89l-39.77 23-19.88-11.48-19.87-11.48zm121.53-23 39.76 23v45.91l-40.36 23.26-.57.33v47.22l-39.76 23-39.76-23v-45.91l40.91-23.61V883zm60.78-59.35 19.88 11.48V858l-39.77 23-39.75-23v-45.9l39.75-23zm-18.75-13.44v-45.9l19.88-11.48 19.89-11.47 39.74 22.95v45.91l-39.74 22.95-19.89-11.48zm0-141.65v-45.9l39.77-22.95 19.87 11.47 19.87 11.48v45.91l-39.74 22.95-19.89-11.52zm40.9-70.83v-45.9l39.75-23 19.88 11.48 19.89 11.47v45.91l-19.89 11.48-19.88 11.47-19.88-11.47zm100.53-128.21 19.87 11.48v45.9l-39.74 23-39.78-22.96V458l39.77-23zm22.14-84.27v-45.9l19.89-11.48 19.91-11.46 19.88 11.47 19.87 11.48v45.9l-39.74 23-19.89-11.48zm0-141.67v-45.9l39.77-23 19.88 11.47 19.87 11.48v45.91l-19.87 11.47-19.85 11.53-19.88-11.48zm120.43 24.92v45.93l-19.88 11.47-19.89 11.48-19.86-11.47-19.87-11.47v-45.93l19.87-11.51 19.88-11.48 19.87 11.48zm0 141.67v45.91l-19.88 11.47-19.89 11.45-19.86-11.44-19.87-11.47v-45.91l39.75-22.95 19.89 11.47zm0 141.65v45.91l-19.88 11.48-19.89 11.47-19.86-11.46-19.87-11.48v-45.91l39.75-23 19.89 11.48zm0 141.65v45.91l-19.88 11.48-19.89 11.47-19.86-11.46-19.87-11.48v-45.91l19.87-11.48 19.88-11.48 19.87 11.48zm0 141.66V858l-39.77 23-19.86-11.47-19.89-11.53v-45.9l39.75-23 19.89 11.48zm0 141.67v45.91l-19.88 11.47-19.89 11.48-19.86-11.47-19.87-11.47v-45.91l39.75-22.95 19.89 11.48zm-80.63 139.69L1770.1 1082l-19.89-11.48v-45.9l19.89-11.48 19.88-11.48 19.88 11.48 19.87 11.48v45.9l-19.87 11.48zm-81.78 0-39.78-23v-45.91l39.78-23 39.74 23v45.91zm-326 47.87v-45.91l19.89-11.47 19.88-11.48 19.88 11.48 19.87 11.47v45.91l-39.76 23-10.08-5.82zm80.66-139.69 39.77 23v45.89l-19.95 11.44-19.88 11.47-19.88-11.47-19.87-11.48v-45.9l18.11-10.47zm1.13 139.69v-45.91l19.89-11.47 19.88-11.48 19.82 11.5 19.87 11.47v45.91l-39.76 23-10.08-5.82zm80.65-47.88-19.93-11.48-19.87-11.48v-45.9l39.74-23 39.76 22.96v45.9l-19.88 11.52zm1.14-93.77v-45.9l39.75-22.95 19.89 11.48 19.88 11.47v45.91l-19.88 11.47-19.89 11.48-19.88-11.48zm121.54-352.19 39.77 23v47.18l40.88 23.61v45.91l-39.74 22.95-39.78-22.95V740l-40.88-23.61v-45.91zm162.44-47.87v45.91L1809.86 657l-19.85 11.52L1770.1 657l-19.89-11.47v-45.87l19.89-11.48 19.91-11.47 19.88 11.47zm0 141.65v45.91l-39.78 22.96-19.89-11.48-19.89-11.47v-45.91l19.89-11.48 19.89-11.47 19.88 11.47zm0 141.67v45.91l-39.74 23-39.78-22.96V883l39.74-23 19.88 11.49zm-80.65 139.69-39.75-22.95v-45.9l39.75-22.95 19.87 11.48 19.89 11.47v45.91l-19.89 11.47zm-42-22.95-39.77 22.95-19.88-11.48-19.87-11.47v-45.9l39.75-22.95 19.88 11.48 19.89 11.47zm-120.42-70.83V883l39.77-23 19.87 11.49 19.79 11.51v45.91l-39.74 23-19.89-11.48zm80.65-139.71 39.77 23V858l-39.77 23-19.88-11.49-19.95-11.51v-45.9zm81.79 0 19.85 11.49 19.89 11.48V858l-39.77 23-19.87-11.49-19.93-11.51v-45.9zm-39.75-118.7 39.75-23 19.85 11.53 19.89 11.47v45.91l-19.89 11.49-19.88 11.47-39.75-23zm-40.91 258.41V883l39.78-23 19.87 11.49 19.79 11.51v45.91l-39.74 23-19.89-11.48zm120.43-400.06v45.91l-19.92 11.49-19.88 11.47-19.87-11.47-19.88-11.48v-45.91l39.75-23 19.88 11.53zm-80.65 47.88 19.87 11.47 19.87 11.48v45.91l-39.74 22.95-39.78-22.95v-45.9l19.89-11.48zm-121.56 493.83v-45.9l19.88-11.48 19.89-11.48 39.74 22.96v45.9l-39.74 23-19.97-11.53zm203.29-635.48 19.88 11.48 19.84 11.47v45.9l-39.74 23-39.78-22.96V458l19.89-11.48zm-368 495.81 19.88 11.48 19.87 11.47v45.91l-18.2 10.5-21.56 12.45-10.15-5.86-29.61-17.09v-45.91l19.89-11.47zM1791.12-37.8l39.75-23 39.77 23V8.11l-19.88 11.48-19.89 11.47-39.75-22.95zm0 141.66 39.75-23 19.89 11.48 19.88 11.48v45.9l-19.88 11.48-19.89 11.48-19.86-11.44-19.87-11.48zm-204.48 116.73v-45.91l39.77-23 39.74 23v45.91l-39.74 22.95zm81.78-45.91 39.78-23 39.74 23v45.91l-39.74 22.95-39.78-22.95zm40.91 70.83 39.75-23 19.93 11.49 19.89 11.48v45.93l-19.89 11.5-19.88 11.48-39.75-22.95zm0 141.67 39.75-22.95 19.93 11.47 19.89 11.48v45.91l-19.89 11.47-19.93 11.44-19.87-11.48-19.88-11.47zm-204.46 116.73V458l39.74-23 39.76 23v45.9l-39.76 23zm81.77-45.9 39.77-23 39.74 23v45.9l-39.74 23-39.77-23zm-81.77 141.65 39.74-22.95 39.76 22.95v45.91L1564.49 657l-19.88 11.48-19.87-11.48-19.87-11.47zm-1.15 139.69-39.76-23v-45.87l39.77-23 19.88 11.52 19.87 11.47v45.91zm42-68.87 19.9-11.48 19.88-11.48 19.89 11.48 19.88 11.47v45.91l-19.88 11.48-19.89 11.47-39.75-23zm-42 118.7 39.75 23V858l-39.76 23-39.7-23v-45.9zm-82.91 139.71-19.89 11.48-19.91 11.48-19.88-11.48-19.87-11.48V883l19.87-11.48 19.88-11.52 39.77 23zm-120.43-116.75 39.77-23 39.75 23V858l-19.89 11.53-19.86 11.47-39.77-23zm0 141.67 39.77-22.95 19.86 11.48 19.87 11.47v45.91l-39.75 22.95-39.77-22.95zm-2.27 187.56-39.75 23-19.89-11.48-19.88-11.47v-45.91l19.88-11.47 19.89-11.48 39.75 23zm-202.2-70.83v-45.9l39.76-23 39.77 23v45.9l-39.77 23zm81.8-45.9 39.74-23 39.78 23v45.9l-19.89 11.46-19.89 11.48-39.74-23zm0 187.55v-45.9l39.74-23 39.78 22.96v45.9l-39.78 23zm81.79 0v-45.9l39.74-23 39.78 22.96v45.9l-39.78 23zm81.79 0v-45.9l39.75-23 39.77 23v45.89l-39.77 23zm81.79 0v-45.9l39.74-23 39.78 23v45.89l-39.77 23zm81.79 0v-45.9l39.74-23 39.76 22.96v45.9l-39.76 23zm81.77 0v-45.9l19.88-11.48 19.89-11.48 39.74 22.96v45.9l-39.74 23zm81.78 0v-45.9l39.78-22.96 39.74 22.96v45.9l-39.74 23zm81.79 0v-45.9l19.89-11.48 19.88-11.48 19.88 11.48 19.87 11.48v45.9l-39.75 23zm161.31 0-39.74 23-39.77-23v-45.9l19.88-11.48 19.89-11.48 39.74 22.96zm40.91-70.82-39.77 23-19.88-11.48-19.87-11.47v-45.91l39.75-23 39.77 23zm0-141.65-39.77 22.95-19.88-11.48-19.87-11.47v-45.91l39.75-22.95 39.77 22.95zm0-141.68-39.77 23-19.88-11.49-19.87-11.55v-45.9l39.75-23 39.77 23zm0-141.65-39.77 23-19.88-11.47-19.87-11.48v-45.96l39.75-23 39.77 23zm0-141.65-39.77 23-19.88-11.47-19.87-11.48v-45.96l39.75-23 39.77 23zm0-141.65-39.77 23-19.88-11.48-19.87-11.47v-45.96l39.75-22.95 39.77 22.95zm0-141.65-39.77 22.95-19.88-11.48-19.87-11.47v-45.93l39.75-23 39.77 23zm0-141.68-39.77 23-19.88-11.48-19.87-11.48v-45.9l39.75-23 39.77 23z"/>
    <path d="m1749.64 80.57.56-.32V31.72l-42-24.26-42 24.26v48.53l42 24.26ZM1668.41 33l39.78-23 39.74 23v45.94l-39.74 23-39.78-23Zm-82.35 330.9.57-.33V315l-42-24.26-41.45 23.94-.56.32v48.53l42 24.27Zm-81.2-47.54 39.74-23 39.76 23v45.9l-39.76 23-39.74-23ZM644.94-39.76 604-63.37l-40.85 23.61-40.91-23.61-40.88 23.61-40.91-23.61-40.88 23.61-40.91-23.61-40.88 23.61-40.89-23.61L236-39.76l-40.9-23.61-40.91 23.61-40.88-23.61-42 24.26V8.11l-39.75 23L-9.38 7.46l-41.46 23.93-.56.33v48.53l40.88 23.61v45.9L-50.84 173l-.56.33v48.57l40.88 23.61v45.93l-40.32 23.28-.56.32v48.53l40.88 23.61v45.91l-40.32 23.28-.56.33v48.53l40.88 23.6v45.91L-50.84 598l-.56.33v48.53l40.88 23.6v45.91l-40.32 23.28-.56.33v48.53l40.88 23.61V858l-40.88 23.68v48.52l40.88 23.61v45.91L-50.84 1023l-.56.32v48.53l40.88 23.61v47.22l40.91 23.61v47.22l42 24.26 42-24.26v-47.22l40.37-23.29.57-.32v-48.53l-40.88-23.61v-47.22l-40.91-23.6v-45.91l39.77-22.95 39.75 22.95V1001l42 24.26 41.45-23.94.57-.32v-48.5l-40.88-23.61v-47.22l-42.05-24.28L113.31 881l-39.77-23v-45.9l39.77-23 40.88 23.61 42.05-24.26v-47.14L236.55 718l.57-.33v-47.19l40.88-23.6v-49.01h-.83L236 574.09l-40.89 23.6-39.77-23v-45.86l40.91-23.6V458l39.74-23 39.78 23v47.21l42 24.26 41.45-23.94.56-.32V456.7l-40.88-23.61v-45.91l40.32-23.28.56-.33v-47.22l40.91-23.6V244.2l-40.91-23.61v-45.91l40.91-23.61v-47.21L441 80.57l.57-.32V33l39.77-23 39.76 23v45.94l-40.31 23.28-.57.32v47.22l-40.9 23.61v48.53l42 24.26 41.45-23.93.56-.33v-47.22l39.78-23L604 175.34l42-24.27v-48.53l-40.91-23.6V33l39.78-23 40.88 23.61 42-24.27v-48.45l-42-24.26Zm-1.14 2V8.11L604 31.06l-19.84-11.47-19.88-11.48V-37.8l39.75-23ZM602.89 33v45.94l-39.74 23-19.89-11.53-19.89-11.47V33l19.89-11.48 19.89-11.47L583 21.55ZM480.22-37.8V8.11l-39.77 23-19.88-11.52L400.7 8.11V-37.8l39.75-23Zm-81.79 0V8.11l-19.89 11.48-19.88 11.47-39.75-22.95V-37.8l39.75-23Zm-81.22 140-.57.32v47.22l-39.76 23-39.76-23v-45.9L278 80.25V33l39.74-23 39.75 23v45.94Zm40.31 72.46v45.91l-39.74 22.95L278 220.59v-45.91l39.74-23 19.88 11.47Zm-80.64 139.73-39.76-22.95v-45.93l39.77-23 39.75 23v45.93ZM175.22 444.56l-19.89-11.47v-45.91l19.89-11.48 19.88-11.47L215 375.7l19.87 11.48v45.91L195.1 456Zm-22.16 84.27v45.91l-39.75 23-19.88-11.52-19.89-11.48v-45.91l19.89-11.47 19.88-11.48 19.88 11.48Zm0 187.56-39.75 23-39.77-23v-45.91l39.77-23 39.75 23Zm-100.53 82.3-19.87-11.47v-45.91l39.75-22.95 39.77 22.95v45.91l-39.77 22.95Zm18.74 13.45V858L51.4 869.53 31.52 881l-19.88-11.47L-8.25 858v-45.9l19.89-11.48 19.88-11.48 19.88 11.52Zm0 141.67v45.91l-19.87 11.47-19.88 11.48-19.88-11.48-19.89-11.47v-45.91l19.89-11.47 19.88-11.48 19.88 11.48ZM-8.25 716.39v-45.91L11.64 659l19.88-11.48L51.4 659l19.87 11.47v45.91l-39.75 23-19.88-11.51Zm0-141.65v-45.91l19.89-11.47 19.88-11.48 19.88 11.48 19.87 11.47v45.91L51.4 586.22l-19.88 11.47-19.88-11.47Zm0-141.65v-45.91l19.89-11.48 19.88-11.47L51.4 375.7l19.87 11.48v45.91L31.52 456l-19.88-11.44Zm0-141.65v-45.93L11.64 234l19.88-11.48L51.4 234l19.87 11.48v45.93l-19.87 11.5-19.88 11.48-19.88-11.48Zm0-141.68v-45.9l19.89-11.48L31.52 80.9 51.4 92.38l19.87 11.48v45.9L51.4 161.24l-19.88 11.48-19.88-11.48ZM92.29 21.55 112.18 33v45.94L92.29 90.41l-19.88 11.48-19.88-11.48-19.87-11.47V33l39.75-23Zm61.9-11.47L194 33v45.94l-39.78 23-39.74-23V33ZM236 101.89l-19.89-11.48-19.87-11.47V33l39.75-23 39.77 23v45.9Zm39.77 118.7L236 243.54l-19.88-11.48-19.87-11.47v-45.91l39.75-23 39.77 23ZM112.18 503.91l-19.89 11.48-19.88 11.48-19.88-11.48-19.87-11.48V458l39.75-23 19.88 11.48L112.18 458Zm0 95.75v45.91l-39.77 22.95L52.53 657l-19.87-11.43v-45.91l19.87-11.48 19.88-11.47 19.88 11.47Zm-79.52-237.4v-45.9l19.87-11.48 19.88-11.47 19.88 11.47 19.89 11.48v45.9l-19.89 11.48-19.88 11.47-19.88-11.47Zm0-141.67v-45.91l19.87-11.48 19.88-11.47 19.88 11.47 19.89 11.48v45.91l-19.89 11.47-19.88 11.48-19.88-11.48ZM113.31 80.9l39.75 23v45.9l-39.75 23-19.88-11.56-19.89-11.48v-45.9l19.89-11.48Zm42 23 39.77-23L215 92.38l19.87 11.48v45.9l-39.75 23-19.88-11.48-19.89-11.48Zm79.52 141.65v45.93l-39.73 22.91-19.88-11.48-19.89-11.47v-45.93L175.22 234l19.88-11.48L215 234Zm-81.77 141.63v45.91l-39.75 23-19.88-11.53-19.89-11.47v-45.91l19.89-11.48 19.88-11.47 19.88 11.47Zm-79.52-95.74v-45.93L93.43 234l19.88-11.48L133.19 234l19.87 11.48v45.93l-39.75 22.95-19.88-11.45ZM194 174.68v45.91l-19.89 11.47-19.89 11.48-19.87-11.48-19.87-11.47v-45.91l39.74-23 19.89 11.47Zm-39.81 210.53-19.87-11.47-19.87-11.48v-45.9l39.74-23 19.89 11.48L194 316.36v45.9l-19.89 11.48Zm81.8 0-19.88-11.47-19.87-11.48v-45.9l39.75-23 39.77 23v45.89l-19.89 11.48Zm80.65-423v45.9l-39.76 23-10.08-5.86-29.68-17.14V-37.8l39.77-23Zm-81.79 0v45.9l-39.75 23-39.77-23V-37.8l39.77-23Zm-161.31 0 39.77-23 39.75 23v45.9l-39.75 23-19.88-11.52L73.54 8.11ZM-49.13 33l39.75-23 39.77 23v45.94L10.5 90.41l-19.88 11.48-39.75-23Zm0 141.65 39.75-23L10.5 163.2l19.89 11.48v45.91L10.5 232.06l-19.88 11.48-39.75-22.95Zm0 141.68 39.75-23 19.88 11.55 19.89 11.48v45.9L10.5 373.74l-19.88 11.48-39.75-23Zm0 141.65 39.75-23 19.88 11.55L30.39 458v45.9L10.5 515.39l-19.88 11.48-39.75-23Zm0 141.65 39.75-22.95 19.88 11.5 19.89 11.48v45.91L10.5 657l-19.88 11.52-39.75-22.95Zm0 141.65 39.75-22.95 19.88 11.5 19.89 11.48v45.91L10.5 798.69l-19.88 11.48-39.75-22.95Zm0 141.67 39.74-23L10.5 871.5 30.39 883v45.9L10.5 940.37l-19.88 11.48-39.75-23Zm0 141.66 39.75-23 19.88 11.48 19.89 11.48v45.9L10.5 1082l-19.88 11.5-39.75-23Zm40.88 70.82L11.64 1084l19.88-11.48L51.4 1084l19.87 11.47v45.91l-39.75 23-39.77-23Zm120.43 116.73-39.77 23-39.75-23v-45.9l39.75-23 19.88 11.48 19.89 11.48Zm40.88-70.82-39.75 23-19.88-11.48-19.89-11.47v-45.91L93.43 1084l19.88-11.48 39.75 23Zm-40.88-70.83L92.29 1082l-19.88 11.47L52.53 1082l-19.87-11.48v-45.9l19.87-11.48 19.88-11.48 39.77 23Zm122.67-70.82-39.75 22.95-39.77-22.95v-45.88l19.89-11.47 19.88-11.48 39.75 22.95ZM194 883v45.9l-19.89 11.48-19.89 11.48-39.74-23V883l39.74-23Zm-81.79 45.9-39.77 23-19.91-11.53-19.87-11.48V883l19.87-11.5L72.41 860l39.77 23ZM194 787.22l-39.78 22.95-39.74-22.95v-45.91l39.74-22.95 19.89 11.47L194 741.31Zm40.88-70.83-39.75 23-19.88-11.47-19.89-11.48v-45.96L175.22 659l19.88-11.48L215 659l19.87 11.47Zm40.91-116.72v45.9L236 668.52 216.11 657l-19.87-11.47v-45.87L236 576.71ZM194 645.57 174.08 657l-19.89 11.48-39.74-22.95v-45.87l39.74-22.95L194 599.66Zm0-141.66-39.77 23-19.88-11.48-19.87-11.48V458l39.74-23 19.89 11.48L194 458Zm43.15-116.73L257 375.7l19.88-11.47 19.88 11.47 19.87 11.48v45.91l-39.76 23-39.76-23Zm120.4 116.73-39.74 23-39.75-23V458l39.75-23 39.74 23Zm0-141.65-39.74 23-19.91-11.52-19.9-11.48v-45.9l39.74-23 19.88 11.48 19.87 11.48Zm40.91-70.82-39.77 22.95-19.87-11.48-19.88-11.47v-45.93l39.75-23 39.77 23Zm0-141.68-39.77 23-19.87-11.48-19.88-11.48v-45.9l39.75-23 19.88 11.48 19.89 11.48Zm40.89-70.82-39.75 23-19.92-11.53-19.89-11.47V33l19.89-11.48 19.88-11.47 19.88 11.47L439.32 33ZM482.49-37.8l39.75-23 39.76 23V8.11l-19.88 11.48-19.88 11.47-39.75-22.95Zm0 141.66 39.75-23 19.88 11.48L562 103.86v45.9l-39.77 23-19.88-11.48-19.87-11.48Zm38.61 116.73-39.74 22.95-39.77-22.95v-45.91l39.77-23 19.87 11.47 19.87 11.48Zm122.7-70.83-39.77 23-39.75-23v-45.9L604 80.9l39.77 23ZM725.59 8.11l-39.77 23-39.75-23V-37.8l39.75-23 39.77 23Z"/>
    <path d="M439.32 315v48.53l42 24.27 41.45-23.94.56-.33V315l-42-24.26Zm81.78 47.22-39.74 23-39.77-23v-45.9l39.77-23 39.74 23ZM275.76 881.68v48.52l42 24.27 41.45-23.94.56-.33v-48.52l-42-24.29Zm81.76 47.21-39.74 23-39.75-23V883l39.75-23 39.74 23Z"/>
  </g>
</svg>
