<svg xmlns="http://www.w3.org/2000/svg" viewBox="0 0 1920 1080">
  <path d="M0 0h1920v87c-325 10-646 112-961 227S306 422 0 317V0z" fill="#333" opacity=".1"/>
  <path d="M0 92c636 38 1278-57 1920-62v87c-326 12-646 137-959 275-158 71-318 115-481 118-161 3-326-38-480-100V93zM1920 1080H0v-40c324-5 645-52 960-105s653-50 960-2v146z" fill="#333" opacity=".1"/>
  <path d="M0 178c316 33 641 17 959-24 319-41 638-83 959-87v63c-326 11-642 126-959 252-155 61-315 104-479 109-162 5-327-28-480-82V179z" fill="#333" opacity=".1"/>
  <path d="M0 260c312 49 643 26 959-36 319-62 637-124 959-131v63c-330 14-643 149-959 295-153 72-314 123-479 131-162 7-329-30-480-91V261z" fill="#333" opacity=".1"/>
  <path d="M0 332c307 61 645 32 959-47 319-81 637-160 961-169v63c-333 16-643 167-959 332-156 81-317 148-479 158-160 9-327-39-480-108V331zM1920 1037c-635-17-1278 26-1920 28v-40c326-6 646-63 960-127 156-32 316-52 479-53 161-1 326 17 480 46v146z" fill="#333" opacity=".1"/>
</svg>
