<svg xmlns="http://www.w3.org/2000/svg" version="1.1" width="1920" height="1080" viewBox="0 0 1920 1080">
    <path d="m 0,-0 c 639,0 1279,0 1920,0 0,29 0,58 0,87 C 1595,97 1274,199 959,314 644,429 306,422 0,317 c 0,-105 0,-211 0,-317 z"
          fill="#ebe3e1" opacity="0.2"/>
    <path d="M 0,92 C 636,130 1278,35 1920,30 c 0,29 0,58 0,87 -326,12 -646,137 -959,275 C 803,463 643,507 480,510 319,513 154,472 0,410 c 0,-105 0,-211 0,-317 z"
          fill="#ebe3e1" opacity="0.2"/>
    <path d="m 1920,1080 c -639,0 -1279,0 -1920,0 0,-13 0,-26 0,-40 C 324,1035 645,988 960,935 1275,882 1613,885 1920,933 c 0,48 0,97 0,146 z"
          fill="#ebe3e1" opacity="0.2"/>
    <path d="M 0,178 C 316,211 641,195 959,154 c 319,-41 638,-83 959,-87 0,21 0,42 0,63 C 1592,141 1276,256 959,382 804,443 644,486 480,491 318,496 153,463 0,409 c 0,-76 0,-153 0,-230 z"
          fill="#ebe3e1" opacity="0.2"/>
    <path d="M 0,260 C 312,309 643,286 959,224 c 319,-62 637,-124 959,-131 0,21 0,42 0,63 -330,14 -643,149 -959,295 C 806,523 645,574 480,582 318,589 151,552 0,491 c 0,-76 0,-153 0,-230 z"
          fill="#ebe3e1" opacity="0.2"/>
    <path d="M 0,332 C 307,393 645,364 959,285 1278,204 1596,125 1920,116 c 0,21 0,42 0,63 -333,16 -643,167 -959,332 -156,81 -317,148 -479,158 -160,9 -327,-39 -480,-108 0,-76 0,-153 0,-230 z"
          fill="#ebe3e1" opacity="0.2"/>
    <path d="m 1920,1037 c -635,-17 -1278,26 -1920,28 0,-13 0,-26 0,-40 C 326,1019 646,962 960,898 1116,866 1276,846 1439,845 c 161,-1 326,17 480,46 0,48 0,97 0,146 z"
          fill="#ebe3e1" opacity="0.2"/>
</svg>
