<svg width="1000" height="250" viewBox="0 0 1000 250"
     xmlns="http://www.w3.org/2000/svg">
  <style>
    text { font-family: sans-serif; font-size: 12px; }
  </style>
  <rect fill="#dfd9d9" x="0" y="0" width="1000" height="250" rx="10" ry="10"/>
  <svg x="21" y="21">
    <svg x="0" y="0">
      <rect fill="#efefee" x="0" y="0" width="40" height="40"/>
      <text fill="#22211f" x="10" y="15">~</text>
      <text fill="#22211f" x="10" y="30">`</text>
    </svg>
    <svg x="42" y="0">
      <rect fill="#efefee" x="0" y="0" width="40" height="40"/>
      <text fill="#22211f" x="10" y="15">!</text>
      <text fill="#22211f" x="10" y="30">1</text>
    </svg>
    <svg x="84" y="0">
      <rect fill="#efefee" x="0" y="0" width="40" height="40"/>
      <text fill="#22211f" x="10" y="15">@</text>
      <text fill="#22211f" x="10" y="30">2</text>
    </svg>
    <svg x="126" y="0">
      <rect fill="#efefee" x="0" y="0" width="40" height="40"/>
      <text fill="#22211f" x="10" y="15">#</text>
      <text fill="#22211f" x="10" y="30">3</text>
    </svg>
    <svg x="168" y="0">
      <rect fill="#efefee" x="0" y="0" width="40" height="40"/>
      <text fill="#22211f" x="10" y="15">$</text>
      <text fill="#22211f" x="10" y="30">4</text>
    </svg>
    <svg x="210" y="0">
      <rect fill="#efefee" x="0" y="0" width="40" height="40"/>
      <text fill="#22211f" x="10" y="15">%</text>
      <text fill="#22211f" x="10" y="30">5</text>
    </svg>
    <svg x="252" y="0">
      <rect fill="#efefee" x="0" y="0" width="40" height="40"/>
      <text fill="#22211f" x="10" y="15">^</text>
      <text fill="#22211f" x="10" y="30">6</text>
    </svg>
    <svg x="294" y="0">
      <rect fill="#efefee" x="0" y="0" width="40" height="40"/>
      <text fill="#22211f" x="10" y="15">&amp;</text>
      <text fill="#22211f" x="10" y="30">7</text>
    </svg>
    <svg x="336" y="0">
      <rect fill="#efefee" x="0" y="0" width="40" height="40"/>
      <text fill="#22211f" x="10" y="15">*</text>
      <text fill="#22211f" x="10" y="30">8</text>
    </svg>
    <svg x="378" y="0">
      <rect fill="#efefee" x="0" y="0" width="40" height="40"/>
      <text fill="#22211f" x="10" y="15">(</text>
      <text fill="#22211f" x="10" y="30">9</text>
    </svg>
    <svg x="420" y="0">
      <rect fill="#efefee" x="0" y="0" width="40" height="40"/>
      <text fill="#22211f" x="10" y="15">)</text>
      <text fill="#22211f" x="10" y="30">0</text>
    </svg>
    <svg x="462" y="0">
      <rect fill="#efefee" x="0" y="0" width="40" height="40"/>
      <text fill="#22211f" x="10" y="15">{</text>
      <text fill="#22211f" x="10" y="30">[</text>
    </svg>
    <svg x="504" y="0">
      <rect fill="#efefee" x="0" y="0" width="40" height="40"/>
      <text fill="#22211f" x="10" y="15">}</text>
      <text fill="#22211f" x="10" y="30">]</text>
    </svg>
    <svg x="546" y="0">
      <rect fill="#d9d9d8" x="0" y="0" width="83" height="40"/>
      <text x="15" y="25">Backspace</text>
    </svg>
    <svg x="648" y="0">
      <rect fill="#efefee" x="0" y="0" width="40" height="40"/>
      <text x="5" y="16">Insert</text>
    </svg>
    <svg x="690" y="0">
      <rect fill="#efefee" x="0" y="0" width="40" height="40"/>
      <text x="5" y="16">Home</text>
    </svg>
    <svg x="732" y="0">
      <rect fill="#efefee" x="0" y="0" width="40" height="40"/>
      <text x="5" y="16">Page</text>
      <text x="5" y="28">Up</text>
    </svg>
    <svg x="792" y="0">
      <rect fill="#efefee" x="0" y="0" width="40" height="40"/>
      <text x="5" y="16">Num</text>
      <text x="5" y="28">Lock</text>
    </svg>
    <svg x="834" y="0">
      <rect fill="#efefee" x="0" y="0" width="40" height="40"/>
      <text x="15" y="25">⁄</text>
    </svg>
    <svg x="876" y="0">
      <rect fill="#efefee" x="0" y="0" width="40" height="40"/>
      <text x="15" y="25">×</text>
    </svg>
    <svg x="918" y="0">
      <rect fill="#efefee" x="0" y="0" width="40" height="40"/>
      <text x="15" y="25">−</text>
    </svg>
    <svg x="0" y="42">
      <rect fill="#d9d9d8" x="0" y="0" width="63" height="40"/>
      <text x="15" y="25">Tab</text>
    </svg>
    <svg x="65" y="42">
      <rect fill="#efefee" x="0" y="0" width="40" height="40"/>
      <text fill="#22211f" x="10" y="15">"</text>
      <text fill="#22211f" x="10" y="30">'</text>
    </svg>
    <svg x="107" y="42">
      <rect fill="#efefee" x="0" y="0" width="40" height="40"/>
      <text fill="#22211f" x="10" y="15">&lt;</text>
      <text fill="#22211f" x="10" y="30">,</text>
    </svg>
    <svg x="149" y="42">
      <rect fill="#efefee" x="0" y="0" width="40" height="40"/>
      <text fill="#22211f" x="10" y="15">&gt;</text>
      <text fill="#22211f" x="10" y="30">.</text>
    </svg>
    <svg x="191" y="42">
      <rect fill="#efefee" x="0" y="0" width="40" height="40"/>
      <text x="15" y="25">P</text>
    </svg>
    <svg x="233" y="42">
      <rect fill="#efefee" x="0" y="0" width="40" height="40"/>
      <text x="15" y="25">Y</text>
    </svg>
    <svg x="275" y="42">
      <rect fill="#efefee" x="0" y="0" width="40" height="40"/>
      <text x="15" y="25">F</text>
    </svg>
    <svg x="317" y="42">
      <rect fill="#efefee" x="0" y="0" width="40" height="40"/>
      <text x="15" y="25">G</text>
    </svg>
    <svg x="359" y="42">
      <rect fill="#efefee" x="0" y="0" width="40" height="40"/>
      <text x="15" y="25">C</text>
    </svg>
    <svg x="401" y="42">
      <rect fill="#efefee" x="0" y="0" width="40" height="40"/>
      <text x="15" y="25">R</text>
    </svg>
    <svg x="443" y="42">
      <rect fill="#efefee" x="0" y="0" width="40" height="40"/>
      <text x="15" y="25">L</text>
    </svg>
    <svg x="485" y="42">
      <rect fill="#efefee" x="0" y="0" width="40" height="40"/>
      <text fill="#22211f" x="10" y="15">?</text>
      <text fill="#22211f" x="10" y="30">/</text>
    </svg>
    <svg x="527" y="42">
      <rect fill="#efefee" x="0" y="0" width="40" height="40"/>
      <text fill="#22211f" x="10" y="15">+</text>
      <text fill="#22211f" x="10" y="30">=</text>
    </svg>
    <svg x="569" y="42">
      <rect fill="#efefee" x="0" y="0" width="60" height="40"/>
      <text fill="#22211f" x="10" y="15">|</text>
      <text fill="#22211f" x="10" y="30">\</text>
    </svg>
    <svg x="648" y="42">
      <rect fill="#efefee" x="0" y="0" width="40" height="40"/>
      <text x="5" y="16">Delete</text>
    </svg>
    <svg x="690" y="42">
      <rect fill="#efefee" x="0" y="0" width="40" height="40"/>
      <text x="5" y="16">End</text>
    </svg>
    <svg x="732" y="42">
      <rect fill="#efefee" x="0" y="0" width="40" height="40"/>
      <text x="5" y="16">Page</text>
      <text x="5" y="28">Down</text>
    </svg>
    <svg x="792" y="42">
      <rect fill="#efefee" x="0" y="0" width="40" height="40"/>
      <text x="8" y="18">7</text>
      <text x="35" y="32" text-anchor="end">Home</text>
    </svg>
    <svg x="834" y="42">
      <rect fill="#efefee" x="0" y="0" width="40" height="40"/>
      <text x="8" y="18">8</text>
      <text x="35" y="32" text-anchor="end">↑</text>
    </svg>
    <svg x="876" y="42">
      <rect fill="#efefee" x="0" y="0" width="40" height="40"/>
      <text x="8" y="18">9</text>
      <text x="35" y="32" text-anchor="end">Pg Up</text>
    </svg>
    <svg x="918" y="42">
      <rect fill="#efefee" x="0" y="0" width="40" height="82"/>
      <text x="15" y="25">+</text>
    </svg>
    <svg x="0" y="84">
      <rect fill="#d9d9d8" x="0" y="0" width="70" height="40"/>
      <text x="15" y="25">Caps Lock</text>
    </svg>
    <svg x="72" y="84">
      <rect fill="#efefee" x="0" y="0" width="40" height="40"/>
      <text x="15" y="25">A</text>
    </svg>
    <svg x="114" y="84">
      <rect fill="#efefee" x="0" y="0" width="40" height="40"/>
      <text x="15" y="25">O</text>
    </svg>
    <svg x="156" y="84">
      <rect fill="#efefee" x="0" y="0" width="40" height="40"/>
      <text x="15" y="25">E</text>
    </svg>
    <svg x="198" y="84">
      <rect fill="#efefee" x="0" y="0" width="40" height="40"/>
      <text x="15" y="25">U</text>
    </svg>
    <svg x="240" y="84">
      <rect fill="#efefee" x="0" y="0" width="40" height="40"/>
      <text x="15" y="25">I</text>
    </svg>
    <svg x="282" y="84">
      <rect fill="#efefee" x="0" y="0" width="40" height="40"/>
      <text x="15" y="25">D</text>
    </svg>
    <svg x="324" y="84">
      <rect fill="#efefee" x="0" y="0" width="40" height="40"/>
      <text x="15" y="25">H</text>
    </svg>
    <svg x="366" y="84">
      <rect fill="#efefee" x="0" y="0" width="40" height="40"/>
      <text x="15" y="25">T</text>
    </svg>
    <svg x="408" y="84">
      <rect fill="#efefee" x="0" y="0" width="40" height="40"/>
      <text x="15" y="25">N</text>
    </svg>
    <svg x="450" y="84">
      <rect fill="#efefee" x="0" y="0" width="40" height="40"/>
      <text x="15" y="25">S</text>
    </svg>
    <svg x="492" y="84">
      <rect fill="#efefee" x="0" y="0" width="40" height="40"/>
      <text fill="#22211f" x="10" y="15">_</text>
      <text fill="#22211f" x="10" y="30">-</text>
    </svg>
    <svg x="534" y="84">
      <rect fill="#d9d9d8" x="0" y="0" width="95" height="40"/>
      <text x="15" y="25">Enter</text>
    </svg>
    <svg x="792" y="84">
      <rect fill="#efefee" x="0" y="0" width="40" height="40"/>
      <text x="8" y="18">4</text>
      <text x="35" y="32" text-anchor="end">←</text>
    </svg>
    <svg x="834" y="84">
      <rect fill="#efefee" x="0" y="0" width="40" height="40"/>
      <text x="8" y="18">5</text>
    </svg>
    <svg x="876" y="84">
      <rect fill="#efefee" x="0" y="0" width="40" height="40"/>
      <text x="8" y="18">6</text>
      <text x="35" y="32" text-anchor="end">→</text>
    </svg>
    <svg x="0" y="126">
      <rect fill="#d9d9d8" x="0" y="0" width="92" height="40"/>
      <text x="15" y="25">Shift</text>
    </svg>
    <svg x="94" y="126">
      <rect fill="#efefee" x="0" y="0" width="40" height="40"/>
      <text fill="#22211f" x="10" y="15">:</text>
      <text fill="#22211f" x="10" y="30">;</text>
    </svg>
    <svg x="136" y="126">
      <rect fill="#efefee" x="0" y="0" width="40" height="40"/>
      <text x="15" y="25">Q</text>
    </svg>
    <svg x="178" y="126">
      <rect fill="#efefee" x="0" y="0" width="40" height="40"/>
      <text x="15" y="25">J</text>
    </svg>
    <svg x="220" y="126">
      <rect fill="#efefee" x="0" y="0" width="40" height="40"/>
      <text x="15" y="25">K</text>
    </svg>
    <svg x="262" y="126">
      <rect fill="#efefee" x="0" y="0" width="40" height="40"/>
      <text x="15" y="25">X</text>
    </svg>
    <svg x="304" y="126">
      <rect fill="#efefee" x="0" y="0" width="40" height="40"/>
      <text x="15" y="25">B</text>
    </svg>
    <svg x="346" y="126">
      <rect fill="#efefee" x="0" y="0" width="40" height="40"/>
      <text x="15" y="25">M</text>
    </svg>
    <svg x="388" y="126">
      <rect fill="#efefee" x="0" y="0" width="40" height="40"/>
      <text x="15" y="25">W</text>
    </svg>
    <svg x="430" y="126">
      <rect fill="#efefee" x="0" y="0" width="40" height="40"/>
      <text x="15" y="25">V</text>
    </svg>
    <svg x="472" y="126">
      <rect fill="#efefee" x="0" y="0" width="40" height="40"/>
      <text x="15" y="25">Z</text>
    </svg>
    <svg x="514" y="126">
      <rect fill="#d9d9d8" x="0" y="0" width="115" height="40"/>
      <text x="15" y="25">Shift</text>
    </svg>
    <svg x="690" y="126">
      <rect fill="#efefee" x="0" y="0" width="40" height="40"/>
      <text x="20" y="25" text-anchor="middle">↑</text>
    </svg>
    <svg x="792" y="126">
      <rect fill="#efefee" x="0" y="0" width="40" height="40"/>
      <text x="8" y="18">
        1
      </text>
      <text x="35" y="32" text-anchor="end">End</text>
    </svg>
    <svg x="834" y="126">
      <rect fill="#efefee" x="0" y="0" width="40" height="40"/>
      <text x="8" y="18">
        2
      </text>
      <text x="35" y="32" text-anchor="end">↓</text>
    </svg>
    <svg x="876" y="126">
      <rect fill="#efefee" x="0" y="0" width="40" height="40"/>
      <text x="8" y="18">
        3
      </text>
      <text x="35" y="32" text-anchor="end">Pg Dn</text>
    </svg>
    <svg x="918" y="126">
      <rect fill="#efefee" x="0" y="0" width="40" height="82"/>
      <text x="5" y="16">Enter</text>
    </svg>
    <svg x="0" y="168">
      <rect fill="#d9d9d8" x="0" y="0" width="63" height="40"/>
      <text x="15" y="25">Ctrl</text>
    </svg>
    <svg x="65" y="168">
      <rect fill="#d9d9d8" x="0" y="0" width="63" height="40"/>
      <text x="15" y="25">Alt</text>
    </svg>
    <svg x="130" y="168">
      <rect fill="#efefee" x="0" y="0" width="369" height="40"/>
    </svg>
    <svg x="501" y="168">
      <rect fill="#d9d9d8" x="0" y="0" width="63" height="40"/>
      <text x="15" y="25">Alt</text>
    </svg>
    <svg x="566" y="168">
      <rect fill="#d9d9d8" x="0" y="0" width="63" height="40"/>
      <text x="15" y="25">Ctrl</text>
    </svg>
    <svg x="648" y="168">
      <rect fill="#efefee" x="0" y="0" width="40" height="40"/>
      <text x="20" y="25" text-anchor="middle">←</text>
    </svg>
    <svg x="690" y="168">
      <rect fill="#efefee" x="0" y="0" width="40" height="40"/>
      <text x="20" y="25" text-anchor="middle">↓</text>
    </svg>
    <svg x="732" y="168">
      <rect fill="#efefee" x="0" y="0" width="40" height="40"/>
      <text x="20" y="25" text-anchor="middle">→</text>
    </svg>
    <svg x="792" y="168">
      <rect fill="#efefee" x="0" y="0" width="82" height="40"/>
      <text x="8" y="18">0</text>
      <text x="77" y="32" text-anchor="end">Ins</text>
    </svg>
    <svg x="876" y="168">
      <rect fill="#efefee" x="0" y="0" width="40" height="40"/>
      <text x="8" y="18">.</text>
      <text x="35" y="32" text-anchor="end">Del</text>
    </svg>
  </svg>
</svg>
